SplineFontDB: 3.0
FontName: SPSida-Bold
FullName: SP Sida Bold
FamilyName: SP Sida
Weight: Bold
Copyright: Copyright (c) 2006 by Department of Intellectual Property (DIP), Ministry of Commerce and Software Industry Promotion Agency (Public Organization) (SIPA). All rights reserved.
Version: 2.3
ItalicAngle: 0
UnderlinePosition: -55
UnderlineWidth: 50
Ascent: 800
Descent: 200
LayerCount: 2
Layer: 0 0 "Back"  1
Layer: 1 0 "Fore"  0
XUID: [1021 375 425136265 8860753]
FSType: 0
OS2Version: 3
OS2_WeightWidthSlopeOnly: 0
OS2_UseTypoMetrics: 1
CreationTime: 1158666300
ModificationTime: 1404907441
PfmFamily: 17
TTFWeight: 700
TTFWidth: 5
LineGap: 60
VLineGap: 0
Panose: 2 0 5 6 0 0 0 2 0 4
OS2TypoAscent: 0
OS2TypoAOffset: 1
OS2TypoDescent: 0
OS2TypoDOffset: 1
OS2TypoLinegap: 0
OS2WinAscent: -26
OS2WinAOffset: 1
OS2WinDescent: -176
OS2WinDOffset: 1
HheadAscent: -26
HheadAOffset: 1
HheadDescent: 176
HheadDOffset: 1
OS2SubXSize: 700
OS2SubYSize: 650
OS2SubXOff: 0
OS2SubYOff: 140
OS2SupXSize: 700
OS2SupYSize: 650
OS2SupXOff: 0
OS2SupYOff: 477
OS2StrikeYSize: 50
OS2StrikeYPos: 250
OS2FamilyClass: 773
OS2Vendor: 'K2D '
Lookup: 4 0 0 "'frac' Diagonal Fractions in Latin lookup 0"  {"'frac' Diagonal Fractions in Latin lookup 0 subtable"  } ['frac' ('latn' <'dflt' > ) ]
Lookup: 6 0 0 "'liga' Standard Ligatures in Latin lookup 1"  {"'liga' Standard Ligatures in Latin lookup 1 subtable"  } ['liga' ('latn' <'dflt' > ) ]
Lookup: 6 0 0 "'liga' Standard Ligatures in Latin lookup 2"  {"'liga' Standard Ligatures in Latin lookup 2 subtable"  } ['liga' ('latn' <'dflt' > ) ]
Lookup: 6 0 0 "'liga' Standard Ligatures in Latin lookup 3"  {"'liga' Standard Ligatures in Latin lookup 3 subtable"  } ['liga' ('latn' <'dflt' > ) ]
Lookup: 6 0 0 "'liga' Standard Ligatures in Latin lookup 4"  {"'liga' Standard Ligatures in Latin lookup 4 subtable"  } ['liga' ('latn' <'dflt' > ) ]

StartChar: .notdef
Encoding: 65536 -1 0
Width: 783
VWidth: 1507
Flags: W
HStem: 0 59<179 600> 989 59<179 600>
VStem: 92 87<59 989> 600 87<59 989>
LayerCount: 2
Fore
SplineSet
600 59 m 1
 600 989 l 1
 179 989 l 1
 179 59 l 1
 600 59 l 1
687 0 m 1
 92 0 l 1
 92 1048 l 1
 687 1048 l 1
 687 0 l 1
EndSplineSet
Validated: 1
EndChar

StartChar: numbersign
Encoding: 35 35 4
Width: 652
VWidth: 1507
Flags: W
HStem: -10 21G<174 198 347 371> 220 54<71.8235 178 270 351 445 554.651> 434 53<95.8235 203 295 377 469 578.914> 706 20G<279 303.5 452 476.5>
LayerCount: 2
Fore
SplineSet
405 677 m 2
 408 709 431 726 473 726 c 0
 480 726 488 725 497 724 c 1
 469 487 l 1
 606 487 l 1
 606 452 584 434 540 434 c 2
 463 434 l 1
 445 274 l 1
 582 274 l 1
 582 238 560 220 515 220 c 2
 439 220 l 1
 429 129 425 111 418 38 c 0
 414 6 391 -10 351 -10 c 0
 343 -10 334 -9 324 -8 c 1
 351 220 l 1
 264 220 l 1
 260 158 253 114 244 38 c 0
 240 6 218 -10 178 -10 c 0
 170 -10 161 -9 151 -8 c 1
 178 220 l 1
 45 220 l 1
 45 256 67 274 110 274 c 2
 184 274 l 1
 203 434 l 1
 69 434 l 1
 69 469 91 487 134 487 c 2
 210 487 l 1
 232 677 l 2
 235 709 258 726 300 726 c 0
 307 726 315 725 324 724 c 1
 295 487 l 1
 383 487 l 1
 405 677 l 2
270 274 m 1
 357 274 l 1
 377 434 l 1
 289 434 l 1
 270 274 l 1
EndSplineSet
Validated: 1
EndChar

StartChar: dollar
Encoding: 36 36 5
Width: 712
VWidth: 1507
Flags: W
HStem: -6 62<248.122 311 398 456.264> 660 62<254.065 311 398 450.177>
VStem: 59 92<151.511 222.147> 88 95<462.156 594.87> 311 87<-56.1035 -3.62961 56 329 410 660 720.05 772.104> 523 94<495.268 582.401> 556 97<146.901 271.532>
LayerCount: 2
Fore
SplineSet
311 -6 m 1xca
 129 16 59 145 59 198 c 0
 59 239 106 261 152 261 c 1
 151 259 151 256 151 252 c 2
 151 228 l 2xea
 151 159 203 75 311 56 c 1
 311 345 l 1
 168 375 88 413 88 528 c 0
 88 595 144 704 311 722 c 1
 311 746 l 2
 311 782 340 800 398 800 c 1
 398 722 l 1
 601 696 617 533 617 519 c 0
 617 482 572 458 522 458 c 1
 523 463 523 469 523 474 c 2
 523 490 l 2xdc
 523 560 490 642 398 660 c 1
 398 393 l 1
 499 374 653 348 653 225 c 0
 653 110 541 10 398 -6 c 1
 398 -30 l 2
 398 -66 369 -84 311 -84 c 1
 311 -6 l 1xca
398 56 m 1
 483 71 556 142 556 217 c 0
 556 268 527 297 398 329 c 1
 398 56 l 1
311 660 m 1
 237 646 183 592 183 529 c 0xd8
 183 465 217 433 311 410 c 1
 311 660 l 1
EndSplineSet
Validated: 1
EndChar

StartChar: percent
Encoding: 37 37 6
Width: 884
VWidth: 1507
Flags: W
HStem: -5 50<592.703 711.054> 306 50<169.831 289.872> 360 50<591.614 710.342> 671 49<170.526 290.075>
VStem: 63 85<379.264 649.392> 312 84<378.918 649.392> 485 85<67.9844 335.912> 733 85<67.7986 338.242>
LayerCount: 2
Fore
SplineSet
231 720 m 256
 318 720 396 672 396 601 c 2
 396 427 l 2
 396 344 300 306 231 306 c 256
 149 306 63 352 63 427 c 2
 63 601 l 2
 63 666 134 720 231 720 c 256
231 671 m 0
 185 671 148 643 148 601 c 2
 148 427 l 2
 148 384 185 356 231 356 c 0
 274 356 312 384 312 427 c 2
 312 601 l 2
 312 643 274 671 231 671 c 0
653 410 m 0
 742 410 818 362 818 289 c 2
 818 115 l 2
 818 40 730 -5 653 -5 c 256
 563 -5 485 48 485 115 c 2
 485 289 l 2
 485 362 561 410 653 410 c 0
653 360 m 0
 607 360 570 332 570 289 c 2
 570 115 l 2
 570 75 607 45 653 45 c 0
 697 45 733 76 733 115 c 2
 733 289 l 2
 733 332 696 360 653 360 c 0
577 724 m 2
 590 747 608 759 632 759 c 0
 646 759 663 754 681 745 c 1
 306 -2 l 2
 294 -26 277 -38 254 -38 c 0
 239 -38 222 -33 202 -23 c 1
 577 724 l 2
EndSplineSet
Validated: 1
EndChar

StartChar: ampersand
Encoding: 38 38 7
Width: 678
VWidth: 1507
Flags: W
HStem: -9 60<194.436 377.809> 666 59<250.616 362.363>
VStem: 33 95<117.034 279.886> 118 96<479.977 628.588> 387 94<510.034 642.614> 549 87<215.375 298.79>
LayerCount: 2
Fore
SplineSet
665 14 m 1xdc
 650 -3 630 -12 610 -12 c 0
 593 -12 576 -5 561 9 c 2
 502 68 l 1
 425 13 332 -9 267 -9 c 0
 142 -9 33 71 33 191 c 0xec
 33 299 109 367 182 405 c 1
 128 477 118 523 118 553 c 0
 118 640 183 725 314 725 c 0
 410 725 481 672 481 582 c 0
 481 503 410 435 300 384 c 1
 410 262 l 2
 445 222 474 192 497 170 c 1
 538 217 549 262 549 330 c 1
 624 330 636 296 636 273 c 0
 636 243 623 200 553 121 c 1
 592 89 602 65 665 14 c 1xdc
265 436 m 1
 374 491 387 534 387 576 c 0
 387 608 375 666 307 666 c 256
 250 666 214 619 214 559 c 256xdc
 214 516 220 498 265 436 c 1
128 199 m 0xec
 128 81 219 51 277 51 c 0
 352 51 410 84 451 118 c 1
 408 161 l 1
 288 286 l 1
 228 354 l 1
 200 338 128 292 128 199 c 0xec
EndSplineSet
Validated: 1
EndChar

StartChar: quotesingle
Encoding: 39 39 8
Width: 250
VWidth: 1507
Flags: W
HStem: 503 222<94.1668 146.569>
VStem: 72 107<599.778 685.766>
LayerCount: 2
Fore
SplineSet
72 657 m 0
 72 708 123 725 179 725 c 1
 170 564 l 2
 169 550 149 503 81 503 c 1
 74 626 72 642 72 657 c 0
EndSplineSet
Validated: 1
EndChar

StartChar: parenleft
Encoding: 40 40 9
Width: 318
VWidth: 1507
Flags: W
VStem: 68 96<139.71 478.677>
LayerCount: 2
Fore
SplineSet
164 307 m 256
 164 154 200 18 304 -109 c 1
 293 -124 276 -133 260 -133 c 0
 244 -133 229 -126 217 -110 c 0
 86 53 68 213 68 307 c 256
 68 499 141 630 217 727 c 0
 229 742 244 750 260 750 c 0
 276 750 293 741 304 725 c 1
 199 598 164 461 164 307 c 256
EndSplineSet
Validated: 1
EndChar

StartChar: asterisk
Encoding: 42 42 11
Width: 464
VWidth: 1507
Flags: W
LayerCount: 2
Fore
SplineSet
277 540 m 1
 299 511 305 506 321 482 c 1
 320 482 l 1
 369 421 l 1
 285 375 l 1
 225 496 l 1
 220 482 216 476 210 463 c 2
 161 375 l 1
 89 422 l 1
 179 543 l 1
 124 538 l 2
 96 534 86 535 29 531 c 1
 29 597 l 1
 182 585 l 1
 170 605 159 612 146 632 c 2
 89 707 l 1
 172 757 l 1
 231 641 l 1
 288 757 l 1
 369 708 l 1
 276 585 l 1
 335 589 l 2
 373 593 402 594 431 598 c 1
 431 531 l 1
 277 540 l 1
EndSplineSet
Validated: 1
EndChar

StartChar: plus
Encoding: 43 43 12
Width: 633
VWidth: 1507
Flags: W
HStem: 271 56<73.4332 268 362 558.284>
VStem: 268 94<73.9623 271 327 523.642>
LayerCount: 2
Fore
SplineSet
268 271 m 1
 44 271 l 1
 44 308 67 327 112 327 c 2
 268 327 l 1
 268 496 l 2
 268 536 299 556 362 556 c 1
 362 327 l 1
 588 327 l 1
 588 290 565 271 519 271 c 2
 362 271 l 1
 362 101 l 2
 362 62 331 42 268 42 c 1
 268 271 l 1
EndSplineSet
Validated: 1
EndChar

StartChar: comma
Encoding: 44 44 13
Width: 223
VWidth: 1507
Flags: W
HStem: -9 118<54.7428 113>
VStem: 113 74<-67.6657 -9>
LayerCount: 2
Fore
SplineSet
113 -9 m 1
 72 -9 39 15 39 50 c 256
 39 85 72 109 113 109 c 256
 154 109 187 85 187 50 c 0
 187 -66 147 -106 104 -143 c 0
 97 -148 90 -150 81 -150 c 0
 69 -150 60 -147 53 -140 c 1
 92 -106 112 -62 113 -9 c 1
EndSplineSet
Validated: 1
EndChar

StartChar: hyphen
Encoding: 45 45 14
Width: 384
VWidth: 1507
Flags: W
HStem: 270 59<73.451 309.549>
VStem: 42 299<282.226 316.774>
LayerCount: 2
Fore
SplineSet
42 270 m 1
 42 309 65 329 112 329 c 2
 341 329 l 1
 341 290 318 270 271 270 c 2
 42 270 l 1
EndSplineSet
Validated: 1
EndChar

StartChar: period
Encoding: 46 46 15
Width: 227
VWidth: 1507
Flags: W
HStem: -9 118<54.7428 171.257>
VStem: 39 148<7.97408 92.625>
LayerCount: 2
Fore
SplineSet
113 -9 m 256
 72 -9 39 15 39 50 c 256
 39 85 72 109 113 109 c 256
 154 109 187 85 187 50 c 256
 187 14 155 -9 113 -9 c 256
EndSplineSet
Validated: 1
EndChar

StartChar: slash
Encoding: 47 47 16
Width: 450
VWidth: 1507
Flags: W
LayerCount: 2
Fore
SplineSet
360 720 m 2
 370 738 387 756 415 756 c 0
 429 756 446 751 464 742 c 1
 89 -5 l 2
 77 -29 60 -41 37 -41 c 0
 22 -41 5 -36 -15 -26 c 1
 360 720 l 2
EndSplineSet
Validated: 1
EndChar

StartChar: zero
Encoding: 48 48 17
Width: 723
VWidth: 1507
Flags: W
HStem: -9 60<268.301 454.599> 665 60<268.589 454.799>
VStem: 83 95<129.249 584.891> 543 96<128.013 587.6>
LayerCount: 2
Fore
SplineSet
360 725 m 256
 510 725 639 638 639 520 c 2
 639 196 l 2
 639 77 509 -9 360 -9 c 256
 203 -9 83 85 83 196 c 2
 83 520 l 2
 83 631 204 725 360 725 c 256
360 665 m 256
 263 665 178 603 178 520 c 2
 178 196 l 2
 178 107 271 51 360 51 c 256
 462 51 543 117 543 196 c 2
 543 520 l 2
 543 599 462 665 360 665 c 256
EndSplineSet
Validated: 1
EndChar

StartChar: one
Encoding: 49 49 18
Width: 723
VWidth: 1507
Flags: W
HStem: -9 21G<342 374.5> 657 59<255.199 342>
VStem: 342 97<24.9763 657>
LayerCount: 2
Fore
SplineSet
392 716 m 2
 418 716 439 702 439 684 c 2
 439 54 l 2
 439 12 407 -9 342 -9 c 1
 342 657 l 1
 294 657 l 2
 247 657 223 677 223 716 c 1
 392 716 l 2
EndSplineSet
Validated: 1
EndChar

StartChar: two
Encoding: 50 50 19
Width: 723
VWidth: 1507
Flags: W
HStem: 0 60<182 602.582> 665 60<271.316 449.472>
VStem: 86 96<60 118.079> 544 95<441.475 576.993>
LayerCount: 2
Fore
SplineSet
362 725 m 0
 477 725 639 654 639 506 c 0
 639 429 575 366 466 312 c 2
 371 268 l 2
 277 223 199 154 182 60 c 1
 562 60 l 2
 606 60 639 42 639 0 c 1
 130 0 l 2
 111 0 86 9 86 27 c 0
 86 145 176 251 332 323 c 2
 425 365 l 2
 459 381 544 428 544 506 c 0
 544 594 459 665 362 665 c 256
 262 665 178 591 178 506 c 2
 178 490 l 2
 178 486 179 480 181 473 c 1
 129 473 89 508 87 537 c 1
 109 654 242 725 362 725 c 0
EndSplineSet
Validated: 1
EndChar

StartChar: three
Encoding: 51 51 20
Width: 723
VWidth: 1507
Flags: W
HStem: -9 60<267.227 451.473> 359 62<313.945 441.052> 665 60<281.169 438.678>
VStem: 87 91<133.538 209.663> 124 95<526.678 606.897> 502 96<477.113 607.84> 543 96<132.178 276.718>
LayerCount: 2
Fore
SplineSet
124 563 m 0xec
 124 623 207 725 360 725 c 256
 495 725 598 641 598 543 c 0xec
 598 452 512 403 493 392 c 1
 589 354 639 280 639 205 c 0
 639 89 518 -9 360 -9 c 256
 197 -9 87 100 87 182 c 0
 87 238 144 238 181 238 c 1
 179 232 178 225 178 205 c 0
 178 116 262 51 360 51 c 256
 463 51 543 121 543 205 c 256xf2
 543 285 465 359 360 359 c 0
 334 359 312 371 312 390 c 256
 312 409 331 421 360 421 c 0
 439 421 502 472 502 543 c 256
 502 612 439 665 360 665 c 0
 288 665 219 613 219 543 c 2
 219 528 l 2
 219 522 220 516 222 511 c 1
 217 510 211 510 206 510 c 0
 159 510 124 532 124 563 c 0xec
EndSplineSet
Validated: 1
EndChar

StartChar: four
Encoding: 52 52 21
Width: 723
VWidth: 1507
Flags: W
HStem: -9 21G<463 494.5> 178 60<170 463 558 645.801>
VStem: 463 95<24.9763 178 238 580>
LayerCount: 2
Fore
SplineSet
513 732 m 0
 533 732 554 720 558 693 c 1
 558 238 l 1
 678 238 l 1
 678 198 654 178 607 178 c 2
 558 178 l 1
 558 54 l 2
 558 12 526 -9 463 -9 c 1
 463 178 l 1
 96 178 l 2
 70 178 55 198 55 211 c 0
 55 216 57 222 62 228 c 2
 475 714 l 2
 480 720 490 732 513 732 c 0
463 238 m 1
 463 580 l 1
 170 238 l 1
 463 238 l 1
EndSplineSet
Validated: 1
EndChar

StartChar: five
Encoding: 53 53 22
Width: 723
VWidth: 1507
Flags: W
HStem: -9 60<280.85 439.243> 458 59<278.813 440.25> 657 59<309 558.498>
VStem: 87 91<158.705 259.049> 543 96<161.726 348.933>
LayerCount: 2
Fore
SplineSet
229 690 m 1
 234 711 263 716 276 716 c 2
 591 716 l 1
 591 677 567 657 519 657 c 2
 309 657 l 1
 259 499 l 1
 287 511 321 517 360 517 c 0
 524 517 639 391 639 255 c 256
 639 115 522 -9 360 -9 c 256
 179 -9 87 135 87 232 c 0
 87 283 133 286 181 286 c 1
 179 276 178 266 178 255 c 0
 178 135 266 51 360 51 c 256
 461 51 543 144 543 255 c 256
 543 364 464 458 360 458 c 0
 336 458 277 454 225 390 c 0
 207 373 185 370 175 370 c 0
 154 370 135 383 135 402 c 0
 135 406 135 411 137 416 c 2
 231 692 l 1
 229 690 l 1
EndSplineSet
Validated: 1
EndChar

StartChar: six
Encoding: 54 54 23
Width: 723
VWidth: 1507
Flags: W
HStem: -9 60<281.203 439.243> 458 59<339.527 440.25>
VStem: 83 95<159.538 350.721> 543 96<161.726 348.933>
LayerCount: 2
Fore
SplineSet
360 -9 m 256
 202 -9 83 114 83 255 c 0
 83 333 128 402 166 443 c 2
 410 704 l 2
 426 721 443 730 461 730 c 0
 478 730 496 721 514 705 c 1
 338 515 l 1
 343 516 350 517 360 517 c 0
 524 517 639 391 639 255 c 256
 639 115 522 -9 360 -9 c 256
360 51 m 256
 461 51 543 144 543 255 c 256
 543 364 464 458 360 458 c 256
 256 458 178 365 178 255 c 256
 178 135 266 51 360 51 c 256
EndSplineSet
Validated: 1
EndChar

StartChar: seven
Encoding: 55 55 24
Width: 723
VWidth: 1507
Flags: W
HStem: -10 21G<250.5 269.5> 657 59<125.199 538>
LayerCount: 2
Fore
SplineSet
600 716 m 2
 630 716 646 694 646 679 c 0
 646 676 645 672 644 668 c 1
 311 23 l 2
 299 1 281 -10 258 -10 c 0
 243 -10 225 -5 205 5 c 1
 538 657 l 1
 164 657 l 2
 117 657 93 677 93 716 c 1
 600 716 l 2
EndSplineSet
Validated: 1
EndChar

StartChar: eight
Encoding: 56 56 25
Width: 723
VWidth: 1507
Flags: W
HStem: -9 60<267.787 451.473> 359 62<278.692 441.052> 665 60<281.647 438.678>
VStem: 83 95<133.125 277.245> 122 97<476.18 608.659> 502 96<477.113 607.84> 543 96<132.178 276.718>
LayerCount: 2
Fore
SplineSet
226 392 m 1xf2
 176 420 122 472 122 543 c 0
 122 640 227 725 360 725 c 256
 495 725 598 641 598 543 c 0xec
 598 452 512 403 493 392 c 1
 589 354 639 280 639 205 c 0
 639 89 518 -9 360 -9 c 256
 201 -9 83 91 83 205 c 0
 83 294 158 361 226 392 c 1xf2
360 359 m 256
 263 359 178 293 178 205 c 256
 178 116 262 51 360 51 c 256
 463 51 543 121 543 205 c 256xf2
 543 285 465 359 360 359 c 256
360 665 m 256
 280 665 219 611 219 543 c 256
 219 472 281 421 360 421 c 256
 439 421 502 472 502 543 c 256xec
 502 612 439 665 360 665 c 256
EndSplineSet
Validated: 1
EndChar

StartChar: nine
Encoding: 57 57 26
Width: 723
VWidth: 1507
Flags: W
HStem: -14 21G<253 270.5> 199 60<282.394 378.699> 665 60<280.807 440.482>
VStem: 83 95<367.539 557.066> 543 96<370.304 556.199>
LayerCount: 2
Fore
SplineSet
360 725 m 256
 524 725 639 599 639 463 c 0
 639 387 598 321 555 274 c 2
 311 12 l 2
 295 -5 279 -14 262 -14 c 0
 244 -14 225 -6 206 11 c 1
 381 199 l 1
 360 199 l 2
 202 199 83 322 83 463 c 256
 83 600 201 725 360 725 c 256
360 665 m 256
 265 665 178 582 178 463 c 256
 178 343 266 259 360 259 c 256
 461 259 543 352 543 463 c 256
 543 579 456 665 360 665 c 256
EndSplineSet
Validated: 1
EndChar

StartChar: less
Encoding: 60 60 29
Width: 633
VWidth: 1507
Flags: W
HStem: -3 21G<539.714 578.5>
LayerCount: 2
Fore
SplineSet
576 601 m 1
 581 589 584 577 584 566 c 0
 584 541 572 526 556 517 c 2
 158 298 l 1
 556 81 l 2
 572 72 584 57 584 32 c 0
 584 21 581 9 576 -3 c 1
 68 277 l 2
 54 283 47 290 47 298 c 0
 47 305 54 313 68 321 c 2
 576 601 l 1
EndSplineSet
Validated: 1
EndChar

StartChar: equal
Encoding: 61 61 30
Width: 633
VWidth: 1507
Flags: W
HStem: 181 57<73.4332 558.284> 360 58<73.4332 558.284>
LayerCount: 2
Fore
SplineSet
44 360 m 1
 44 399 67 418 112 418 c 2
 588 418 l 1
 588 379 565 360 519 360 c 2
 44 360 l 1
44 181 m 1
 44 219 67 238 112 238 c 2
 588 238 l 1
 588 200 565 181 519 181 c 2
 44 181 l 1
EndSplineSet
Validated: 1
EndChar

StartChar: question
Encoding: 63 63 32
Width: 533
VWidth: 1507
Flags: W
HStem: -9 118<202.593 317.977> 668 57<187.311 333.522>
VStem: 35 90<533.941 604.15> 187 148<7.375 91.6396> 214 92<175.358 296.719> 395 92<448.889 605.771>
LayerCount: 2
Fore
SplineSet
259 725 m 0xec
 374 725 487 656 487 525 c 0
 487 499 483 439 416 378 c 2
 377 344 l 2
 319 298 306 275 306 235 c 2
 306 203 l 2
 306 163 275 143 214 143 c 1
 214 235 l 2
 218 333 297 357 368 441 c 0
 386 462 395 490 395 525 c 0
 395 610 338 668 259 668 c 0
 196 668 125 623 125 525 c 2
 125 508 l 2
 125 504 126 499 127 493 c 1
 74 493 36 527 35 553 c 1
 54 648 146 725 259 725 c 0xec
259 -9 m 0
 219 -9 187 15 187 50 c 256
 187 85 220 109 259 109 c 0
 300 109 335 85 335 50 c 256xf4
 335 15 302 -9 259 -9 c 0
EndSplineSet
Validated: 1
EndChar

StartChar: at
Encoding: 64 64 33
Width: 877
VWidth: 1507
Flags: W
HStem: -9 51<347.76 560.634> 136 54<329.877 427.909 541.5 623.043> 522 55<405.205 502.418> 675 50<347.591 558.799>
VStem: 74 86<241.024 475.052> 210 97<213.06 395.805> 713 87<314.23 529.146>
LayerCount: 2
Fore
SplineSet
307 288 m 0
 307 228 334 190 375 190 c 256
 460 190 523 345 523 431 c 0
 523 474 501 522 464 522 c 0
 372 522 307 387 307 288 c 0
469 577 m 0
 531 577 557 552 573 529 c 1
 583 558 l 1
 669 558 l 1
 570 252 l 2
 566 240 561 227 561 211 c 0
 561 195 564 187 571 187 c 0
 636 187 713 306 713 424 c 0
 713 581 587 675 454 675 c 0
 278 675 160 520 160 354 c 0
 160 174 298 42 455 42 c 0
 553 42 644 95 699 176 c 0
 712 193 724 201 737 201 c 0
 752 201 766 191 781 173 c 1
 722 71 604 -9 455 -9 c 0
 232 -9 74 167 74 362 c 0
 74 556 241 725 452 725 c 0
 668 725 800 579 800 422 c 0
 800 263 667 136 561 136 c 0
 522 136 495 151 481 181 c 1
 452 159 410 136 362 136 c 0
 261 136 210 209 210 282 c 0
 210 427 312 577 469 577 c 0
EndSplineSet
Validated: 1
EndChar

StartChar: A
Encoding: 65 65 34
Width: 663
VWidth: 1507
Flags: W
HStem: -17 21G<78 105.711 556.209 581.5> 232 60<219 445> 707 20G<318 339>
LayerCount: 2
Fore
SplineSet
98 -17 m 1
 58 -2 32 27 32 57 c 0
 32 63 33 68 35 74 c 2
 286 707 l 2
 291 720 306 727 330 727 c 0
 348 727 369 720 375 707 c 2
 627 74 l 2
 629 69 630 64 630 58 c 0
 630 28 599 -3 564 -17 c 1
 467 232 l 1
 194 232 l 1
 98 -17 l 1
330 586 m 1
 219 292 l 1
 445 292 l 1
 330 586 l 1
EndSplineSet
Validated: 1
EndChar

StartChar: B
Encoding: 66 66 35
Width: 731
VWidth: 1507
Flags: W
HStem: 0 60<184 543.372> 330 60<184 479.24> 659 58<184 476.968>
VStem: 87 97<60 330 390 659> 531 95<447.711 600.681> 591 95<108.052 281.929>
LayerCount: 2
Fore
SplineSet
428 717 m 2xf4
 551 717 626 615 626 525 c 0xf8
 626 477 601 411 541 378 c 1
 625 355 686 288 686 196 c 0
 686 94 615 -0 488 0 c 2
 136 0 l 2
 111 0 87 13 87 33 c 2
 87 684 l 2
 87 704 107 717 136 717 c 2
 428 717 l 2xf4
531 525 m 256
 531 581 488 659 428 659 c 2
 184 659 l 1
 184 390 l 1
 428 390 l 2
 480 390 531 457 531 525 c 256
591 196 m 256xf4
 591 285 543 330 488 330 c 2
 184 330 l 1
 184 60 l 1
 488 60 l 2
 545 60 591 108 591 196 c 256xf4
EndSplineSet
Validated: 1
EndChar

StartChar: C
Encoding: 67 67 36
Width: 729
VWidth: 1507
Flags: W
HStem: -9 60<275.057 467.757> 666 61<273.503 469.455>
VStem: 72 97<148.105 568.109> 576 91<149.438 219.115 495.175 567.16>
LayerCount: 2
Fore
SplineSet
371 666 m 256
 257 666 169 588 169 491 c 2
 169 228 l 2
 169 123 268 51 371 51 c 0
 474 51 576 123 576 228 c 2
 576 244 l 2
 576 250 575 256 574 261 c 1
 624 261 667 235 667 195 c 0
 667 123 556 -9 371 -9 c 0
 225 -9 72 85 72 228 c 2
 72 491 l 2
 72 640 235 727 371 727 c 0
 561 727 668 597 668 519 c 0
 668 470 602 458 574 458 c 1
 575 463 576 469 576 475 c 2
 576 491 l 2
 576 586 487 666 371 666 c 256
EndSplineSet
Validated: 1
EndChar

StartChar: D
Encoding: 68 68 37
Width: 759
VWidth: 1507
Flags: W
HStem: 0 60<184 480.073> 659 58<184 480.073>
VStem: 87 97<60 659> 591 93<162.398 555.603>
LayerCount: 2
Fore
SplineSet
87 684 m 2
 87 704 107 717 136 717 c 2
 386 717 l 2
 519 717 684 638 684 482 c 2
 684 237 l 2
 684 95 536 0 386 0 c 2
 136 0 l 2
 111 0 87 13 87 33 c 2
 87 684 l 2
591 482 m 2
 591 583 491 659 386 659 c 2
 184 659 l 1
 184 60 l 1
 386 60 l 2
 491 60 591 136 591 237 c 2
 591 482 l 2
EndSplineSet
Validated: 1
EndChar

StartChar: E
Encoding: 69 69 38
Width: 729
VWidth: 1507
Flags: W
HStem: -9 60<275.057 467.757> 330 60<169 433.195> 666 61<273.503 469.455>
VStem: 72 97<148.105 330 390 568.109> 576 91<149.438 219.115 495.175 567.16>
LayerCount: 2
Fore
SplineSet
371 666 m 256
 257 666 169 588 169 491 c 2
 169 390 l 1
 466 390 l 1
 466 350 442 330 393 330 c 2
 169 330 l 1
 169 228 l 2
 169 123 268 51 371 51 c 0
 474 51 576 123 576 228 c 2
 576 244 l 2
 576 250 575 256 574 261 c 1
 624 261 667 235 667 195 c 0
 667 123 556 -9 371 -9 c 0
 225 -9 72 85 72 228 c 2
 72 491 l 2
 72 640 235 727 371 727 c 0
 561 727 668 597 668 519 c 0
 668 470 602 458 574 458 c 1
 575 463 576 469 576 475 c 2
 576 491 l 2
 576 586 487 666 371 666 c 256
EndSplineSet
Validated: 1
EndChar

StartChar: F
Encoding: 70 70 39
Width: 729
VWidth: 1507
Flags: W
HStem: -9 21G<72 104.5> 330 60<169 433.195> 666 61<273.503 467.311>
VStem: 72 97<24.9763 330 390 568.109> 576 92<495.175 566.412>
LayerCount: 2
Fore
SplineSet
371 727 m 0
 570 727 668 584 668 519 c 0
 668 470 602 458 574 458 c 1
 575 463 576 469 576 475 c 2
 576 491 l 2
 576 586 487 666 371 666 c 256
 257 666 169 588 169 491 c 2
 169 390 l 1
 466 390 l 1
 466 350 442 330 393 330 c 2
 169 330 l 1
 169 54 l 2
 169 12 137 -9 72 -9 c 1
 72 491 l 2
 72 640 235 727 371 727 c 0
EndSplineSet
Validated: 1
EndChar

StartChar: G
Encoding: 71 71 40
Width: 744
VWidth: 1507
Flags: W
HStem: -9 60<275.057 465.94> 330 60<386.805 574> 666 61<273.503 469.455>
VStem: 72 97<148.105 568.109> 574 95<151.913 330 496.887 569.943>
LayerCount: 2
Fore
SplineSet
621 390 m 2
 648 390 669 377 669 357 c 2
 669 228 l 2
 669 82 515 -9 371 -9 c 256
 225 -9 72 85 72 228 c 2
 72 491 l 2
 72 640 235 727 371 727 c 0
 561 727 668 597 668 519 c 0
 668 470 602 458 574 458 c 1
 575 463 576 469 576 475 c 2
 576 491 l 2
 576 586 487 666 371 666 c 256
 257 666 169 588 169 491 c 2
 169 228 l 2
 169 123 268 51 371 51 c 0
 471 51 574 121 574 228 c 2
 574 330 l 1
 354 330 l 1
 354 370 378 390 427 390 c 2
 621 390 l 2
EndSplineSet
Validated: 1
EndChar

StartChar: H
Encoding: 72 72 41
Width: 774
VWidth: 1507
Flags: W
HStem: -9 21G<87 119.5 589 620.5> 330 60<184 589> 707 20G<151.5 184 652.5 684>
VStem: 87 97<24.9763 330 390 692.628> 589 95<24.9763 330 390 692.628>
LayerCount: 2
Fore
SplineSet
684 54 m 2
 684 12 652 -9 589 -9 c 1
 589 330 l 1
 184 330 l 1
 184 54 l 2
 184 12 152 -9 87 -9 c 1
 87 663 l 2
 87 706 119 727 184 727 c 1
 184 390 l 1
 589 390 l 1
 589 663 l 2
 589 706 621 727 684 727 c 1
 684 54 l 2
EndSplineSet
Validated: 1
EndChar

StartChar: I
Encoding: 73 73 42
Width: 271
VWidth: 1507
Flags: W
HStem: -9 21G<87 119.5> 707 20G<151.5 184>
VStem: 87 97<24.9763 692.628>
LayerCount: 2
Fore
SplineSet
184 54 m 2
 184 12 152 -9 87 -9 c 1
 87 663 l 2
 87 706 119 727 184 727 c 1
 184 54 l 2
EndSplineSet
Validated: 1
EndChar

StartChar: J
Encoding: 74 74 43
Width: 670
VWidth: 1507
Flags: W
HStem: -9 60<246.326 407.93> 659 58<335.29 500>
VStem: 60 94<142.911 226.376> 500 95<143.79 659>
LayerCount: 2
Fore
SplineSet
157 261 m 1
 155 255 154 248 154 228 c 0
 154 122 242 51 327 51 c 0
 412 51 500 122 500 228 c 2
 500 659 l 1
 377 659 l 2
 328 659 304 678 304 717 c 1
 550 717 l 2
 577 717 595 704 595 684 c 2
 595 228 l 2
 595 99 477 -9 327 -9 c 0
 140 -9 60 140 60 200 c 0
 60 249 125 261 157 261 c 1
EndSplineSet
Validated: 1
EndChar

StartChar: K
Encoding: 75 75 44
Width: 714
VWidth: 1507
Flags: W
HStem: -9 21G<87 119.5 529 560.5> 366 59<338.413 436.891> 707 20G<151.5 184>
VStem: 87 97<24.9763 272.266 372 692.628> 529 95<24.9763 272.736>
LayerCount: 2
Fore
SplineSet
356 366 m 0
 261 366 184 285 184 188 c 2
 184 54 l 2
 184 12 152 -9 87 -9 c 1
 87 663 l 2
 87 706 119 727 184 727 c 1
 184 372 l 1
 565 737 l 1
 584 718 593 700 593 683 c 0
 593 671 587 658 576 647 c 2
 347 428 l 1
 336 424 l 1
 339 425 343 425 346 425 c 2
 356 425 l 2
 494 425 624 327 624 188 c 2
 624 54 l 2
 624 12 592 -9 529 -9 c 1
 529 188 l 2
 529 289 448 366 356 366 c 0
EndSplineSet
Validated: 1
EndChar

StartChar: L
Encoding: 76 76 45
Width: 654
VWidth: 1507
Flags: W
HStem: 0 60<184 591.801> 707 20G<151.5 184>
VStem: 87 97<60 692.628>
LayerCount: 2
Fore
SplineSet
136 0 m 2
 111 0 87 13 87 33 c 2
 87 663 l 2
 87 706 119 727 184 727 c 1
 184 60 l 1
 553 60 l 2
 600 60 624 40 624 0 c 1
 136 0 l 2
EndSplineSet
Validated: 1
EndChar

StartChar: M
Encoding: 77 77 46
Width: 886
VWidth: 1507
Flags: W
HStem: -9 21G<89 120.5 429 455 699 731.5> 707 20G<151 190.681 692.352 732.5>
VStem: 89 95<24.9763 506> 699 97<24.9763 506>
LayerCount: 2
Fore
SplineSet
89 663 m 2
 89 706 120 727 182 727 c 1
 442 128 l 1
 701 727 l 1
 764 727 796 706 796 663 c 2
 796 54 l 2
 796 12 764 -9 699 -9 c 1
 699 506 l 1
 485 12 l 2
 482 7 468 -9 442 -9 c 256
 416 -9 402 5 398 12 c 2
 184 506 l 1
 184 54 l 2
 184 12 152 -9 89 -9 c 1
 89 663 l 2
EndSplineSet
Validated: 1
EndChar

StartChar: N
Encoding: 78 78 47
Width: 774
VWidth: 1507
Flags: W
HStem: -9 21G<87 119.5 591.597 632> 707 20G<151.5 198.286>
VStem: 87 97<24.9763 577> 589 95<160 692.628>
LayerCount: 2
Fore
SplineSet
87 663 m 2
 87 706 119 727 184 727 c 1
 589 160 l 1
 589 727 l 1
 652 727 684 706 684 663 c 2
 684 54 l 2
 684 12 658 -9 606 -9 c 1
 184 577 l 1
 184 54 l 2
 184 12 152 -9 87 -9 c 1
 87 663 l 2
EndSplineSet
Validated: 1
EndChar

StartChar: O
Encoding: 79 79 48
Width: 884
VWidth: 1507
Flags: W
HStem: -9 60<333.063 540.613> 666 61<335.685 546.693>
VStem: 59 95<241.306 471.017> 728 96<242.093 469.224>
LayerCount: 2
Fore
SplineSet
440 -9 m 256
 221 -9 59 160 59 359 c 256
 59 565 230 727 440 727 c 256
 655 727 824 562 824 359 c 256
 824 160 661 -9 440 -9 c 256
440 666 m 0
 283 666 154 531 154 359 c 0
 154 191 278 51 440 51 c 0
 591 51 728 178 728 359 c 0
 728 525 603 666 440 666 c 0
EndSplineSet
Validated: 1
EndChar

StartChar: P
Encoding: 80 80 49
Width: 744
VWidth: 1507
Flags: W
HStem: -9 21G<87 119.5> 330 60<184 536.634> 659 58<184 538.636>
VStem: 87 97<24.9763 330 390 659> 589 95<446.477 600.753>
LayerCount: 2
Fore
SplineSet
684 525 m 256
 684 422 597 330 487 330 c 2
 184 330 l 1
 184 54 l 2
 184 12 152 -9 87 -9 c 1
 87 684 l 2
 87 704 107 717 136 717 c 2
 487 717 l 2
 603 717 684 621 684 525 c 256
589 525 m 256
 589 585 546 659 487 659 c 2
 184 659 l 1
 184 390 l 1
 487 390 l 2
 539 390 589 455 589 525 c 256
EndSplineSet
Validated: 1
EndChar

StartChar: Q
Encoding: 81 81 50
Width: 884
VWidth: 1507
Flags: W
HStem: -12 53<750.149 802.564> -9 60<332.947 549.851> 243 60<182.843 390.809> 666 61<335.685 546.693>
VStem: 59 95<286.543 471.017> 728 96<240.821 469.224>
LayerCount: 2
Fore
SplineSet
705 92 m 1x7c
 737 68 776 41 824 41 c 1
 824 2 803 -12 774 -12 c 0xbc
 734 -12 679 15 644 45 c 1
 591 15 522 -9 440 -9 c 0
 221 -9 59 160 59 359 c 256
 59 565 230 727 440 727 c 256
 655 727 824 562 824 359 c 0
 824 252 780 159 705 92 c 1x7c
440 666 m 0
 283 666 154 531 154 359 c 0
 154 332 156 308 161 286 c 1
 202 297 242 303 280 303 c 0
 456 303 583 200 645 142 c 1
 693 191 728 266 728 359 c 0
 728 525 603 666 440 666 c 0
182 222 m 1
 224 130 315 51 440 51 c 0x7c
 495 51 544 65 589 93 c 1
 523 159 404 243 280 243 c 0
 250 243 217 236 182 222 c 1
EndSplineSet
Validated: 1
EndChar

StartChar: R
Encoding: 82 82 51
Width: 761
VWidth: 1507
Flags: W
HStem: -9 21G<87 119.5 591 622.5> 330 60<184 537.684> 659 58<184 538.636>
VStem: 87 97<24.9763 330 390 659> 591 95<24.9763 277.51 451.576 599.429>
LayerCount: 2
Fore
SplineSet
589 525 m 256
 589 585 546 659 487 659 c 2
 184 659 l 1
 184 390 l 1
 487 390 l 2
 539 390 589 455 589 525 c 256
591 196 m 2
 591 285 542 330 487 330 c 2
 184 330 l 1
 184 54 l 2
 184 12 152 -9 87 -9 c 1
 87 684 l 2
 87 704 107 717 136 717 c 2
 487 717 l 2
 603 717 684 621 684 525 c 0
 684 497 672 421 585 357 c 1
 645 325 686 260 686 196 c 2
 686 54 l 2
 686 12 654 -9 591 -9 c 1
 591 196 l 2
EndSplineSet
Validated: 1
EndChar

StartChar: S
Encoding: 83 83 52
Width: 714
VWidth: 1507
Flags: W
HStem: -9 60<261.902 448.679> 666 61<262.939 440.069>
VStem: 58 93<151.088 220.793> 86 97<465.121 593.381> 525 91<506.604 580.485> 558 95<147.018 271.943>
LayerCount: 2
Fore
SplineSet
653 218 m 0xd4
 653 99 517 -9 354 -9 c 0
 161 -9 58 126 58 196 c 0
 58 238 104 261 152 261 c 1
 151 256 151 250 151 245 c 2
 151 228 l 2
 151 124 251 51 354 51 c 0
 460 51 558 125 558 221 c 0xe4
 558 299 447 320 345 341 c 0
 210 367 86 395 86 526 c 0
 86 629 193 727 354 727 c 0
 564 727 609 579 616 532 c 1
 614 482 559 458 523 458 c 1
 524 463 525 469 525 475 c 2
 525 491 l 2xd8
 525 593 457 666 354 666 c 256
 246 666 183 593 183 529 c 0
 183 459 222 430 363 399 c 0
 541 369 653 336 653 218 c 0xd4
EndSplineSet
Validated: 1
EndChar

StartChar: T
Encoding: 84 84 53
Width: 592
VWidth: 1507
Flags: W
HStem: -9 21G<249 280.5> 659 58<28.7252 249 344 562.002>
VStem: 249 95<24.9763 659>
LayerCount: 2
Fore
SplineSet
592 717 m 1
 592 678 569 659 522 659 c 2
 344 659 l 1
 344 54 l 2
 344 12 312 -9 249 -9 c 1
 249 659 l 1
 -2 659 l 1
 -2 698 22 717 69 717 c 2
 592 717 l 1
EndSplineSet
Validated: 1
EndChar

StartChar: U
Encoding: 85 85 54
Width: 774
VWidth: 1507
Flags: W
HStem: -9 60<291.297 481.162> 707 20G<151.5 184 652.5 684>
VStem: 87 97<153.027 692.628> 589 95<151.913 692.628>
LayerCount: 2
Fore
SplineSet
386 -9 m 256
 240 -9 87 85 87 228 c 2
 87 663 l 2
 87 706 119 727 184 727 c 1
 184 228 l 2
 184 128 279 51 386 51 c 256
 487 51 589 121 589 228 c 2
 589 663 l 2
 589 706 621 727 684 727 c 1
 684 228 l 2
 684 82 530 -9 386 -9 c 256
EndSplineSet
Validated: 1
EndChar

StartChar: V
Encoding: 86 86 55
Width: 681
VWidth: 1507
Flags: W
HStem: -9 21G<327.5 350.5> 708 20G<48.5 70.5 609.5 631.5>
LayerCount: 2
Fore
SplineSet
338 131 m 1
 555 687 l 2
 566 712 594 728 625 728 c 0
 638 728 651 725 665 719 c 1
 384 11 l 2
 377 -2 362 -9 339 -9 c 256
 316 -9 301 -2 295 11 c 2
 15 719 l 1
 29 725 42 728 55 728 c 0
 86 728 114 712 125 687 c 2
 338 131 l 1
EndSplineSet
Validated: 1
EndChar

StartChar: W
Encoding: 87 87 56
Width: 991
VWidth: 1507
Flags: W
HStem: -9 21G<308 339.4 646.6 679> 708 20G<45 61.5 926 941>
LayerCount: 2
Fore
SplineSet
493 491 m 1
 333 -9 l 1
 283 -9 250 5 240 42 c 2
 15 722 l 1
 27 726 39 728 51 728 c 0
 72 728 113 720 124 684 c 2
 295 157 l 1
 448 638 l 2
 453 652 468 659 493 659 c 256
 518 659 533 652 538 638 c 2
 690 157 l 1
 862 684 l 2
 874 721 917 728 935 728 c 0
 947 728 959 726 971 722 c 1
 746 42 l 2
 736 5 705 -9 653 -9 c 1
 493 491 l 1
EndSplineSet
Validated: 1
EndChar

StartChar: X
Encoding: 88 88 57
Width: 663
VWidth: 1507
Flags: W
HStem: -13 21G<57 76.5 587 605.5>
LayerCount: 2
Fore
SplineSet
32 714 m 1
 48 726 64 732 80 732 c 0
 92 732 120 727 139 701 c 2
 330 436 l 1
 523 701 l 2
 537 720 560 732 582 732 c 0
 598 732 614 726 630 714 c 1
 378 369 l 1
 645 5 l 1
 629 -7 613 -13 598 -13 c 0
 576 -13 554 -1 538 20 c 2
 330 303 l 1
 124 20 l 2
 110 0 88 -13 65 -13 c 0
 49 -13 33 -7 17 5 c 1
 282 369 l 1
 32 714 l 1
EndSplineSet
Validated: 1
EndChar

StartChar: Y
Encoding: 89 89 58
Width: 633
VWidth: 1507
Flags: W
HStem: -9 21G<268 299.5>
VStem: 268 95<24.9763 369>
LayerCount: 2
Fore
SplineSet
363 54 m 2
 363 12 331 -9 268 -9 c 1
 268 369 l 1
 17 714 l 1
 33 726 49 732 65 732 c 0
 77 732 105 727 124 701 c 2
 315 436 l 1
 508 701 l 2
 522 720 545 732 567 732 c 0
 583 732 599 726 615 714 c 1
 363 369 l 1
 363 54 l 2
EndSplineSet
Validated: 1
EndChar

StartChar: Z
Encoding: 90 90 59
Width: 663
VWidth: 1507
Flags: W
HStem: 0 60<143 600.801> 659 58<58.9984 517>
LayerCount: 2
Fore
SplineSet
585 717 m 2
 620 717 629 688 629 681 c 0
 629 676 627 671 623 666 c 2
 143 60 l 1
 562 60 l 2
 609 60 633 40 633 0 c 1
 75 0 l 2
 41 0 32 28 32 36 c 0
 32 41 34 46 38 51 c 2
 517 659 l 1
 99 659 l 2
 52 659 29 678 29 717 c 1
 585 717 l 2
EndSplineSet
Validated: 1
EndChar

StartChar: bracketleft
Encoding: 91 91 60
Width: 318
VWidth: 1507
Flags: W
HStem: -128 59<181 294.498> 683 60<181 294.498>
VStem: 87 94<-69 683>
LayerCount: 2
Fore
SplineSet
87 -128 m 1
 87 743 l 1
 327 743 l 1
 327 703 303 683 255 683 c 2
 181 683 l 1
 181 -69 l 1
 255 -69 l 2
 303 -69 327 -89 327 -128 c 1
 87 -128 l 1
EndSplineSet
Validated: 1
EndChar

StartChar: backslash
Encoding: 92 92 61
Width: 450
VWidth: 1507
Flags: W
LayerCount: 2
Fore
SplineSet
464 -26 m 1
 448 -35 432 -39 418 -39 c 0
 407 -39 378 -35 360 -5 c 2
 -15 742 l 1
 4 752 21 756 36 756 c 0
 59 756 77 744 89 720 c 2
 464 -26 l 1
EndSplineSet
Validated: 1
EndChar

StartChar: asciicircum
Encoding: 94 94 63
Width: 672
VWidth: 1507
Flags: W
HStem: 700 20G<324.5 346.5>
LayerCount: 2
Fore
SplineSet
291 702 m 2
 298 714 313 720 336 720 c 0
 357 718 371 712 378 702 c 1
 598 214 l 1
 585 207 571 203 556 203 c 0
 549 203 509 204 496 232 c 2
 335 597 l 1
 173 232 l 2
 163 215 141 203 113 203 c 0
 98 203 85 207 72 214 c 1
 291 702 l 2
EndSplineSet
Validated: 1
EndChar

StartChar: underscore
Encoding: 95 95 64
Width: 575
VWidth: 1507
Flags: W
HStem: -280 54<0 574>
LayerCount: 2
Fore
SplineSet
0 -280 m 1
 0 -226 l 1
 574 -226 l 1
 574 -280 l 1
 0 -280 l 1
EndSplineSet
Validated: 1
EndChar

StartChar: grave
Encoding: 96 96 65
Width: 355
VWidth: 1507
Flags: W
HStem: 558 161
VStem: 62 224
LayerCount: 2
Fore
SplineSet
286 558 m 1
 246 558 210 560 187 583 c 2
 62 719 l 1
 115 719 l 2
 159 719 187 709 199 690 c 2
 286 558 l 1
EndSplineSet
Validated: 1
EndChar

StartChar: a
Encoding: 97 97 66
Width: 587
VWidth: 1507
Flags: W
HStem: -9 56<203.496 355.555> 282 54<203.523 353.984> 467 55<212.917 350.716>
VStem: 57 91<99.3918 228.371> 408 89<21.7405 23 99.3586 228.527 303 411.145>
LayerCount: 2
Fore
SplineSet
57 163 m 0
 57 255 151 336 277 336 c 0
 326 336 370 325 408 303 c 1
 408 350 l 2
 408 406 357 467 277 467 c 0
 212 467 158 402 134 354 c 1
 100 380 92 412 92 426 c 0
 92 435 94 442 99 449 c 0
 147 500 219 522 277 522 c 0
 393 522 497 450 497 350 c 2
 497 48 l 2
 497 10 467 -9 408 -9 c 1
 408 23 l 1
 373 4 330 -9 277 -9 c 0
 152 -9 57 71 57 163 c 0
148 163 m 0
 148 103 199 47 277 47 c 0
 362 47 408 107 408 163 c 0
 408 221 362 282 277 282 c 0
 200 282 148 225 148 163 c 0
EndSplineSet
Validated: 1
Substitution2: "Single Substitution lookup 22 subtable" uni0E38
Substitution2: "Single Substitution lookup 22 subtable" uni0E38
EndChar

StartChar: b
Encoding: 98 98 67
Width: 602
VWidth: 1507
Flags: W
HStem: -9 56<231.167 384.013> 467 55<232.101 385.184> 705 20G<147.5 178>
VStem: 87 91<98.8555 414.415 488 694.26> 439 89<100.174 411.145>
LayerCount: 2
Fore
SplineSet
307 467 m 0
 228 467 178 407 178 350 c 2
 178 164 l 2
 178 100 232 47 307 47 c 0
 388 47 439 103 439 164 c 2
 439 350 l 2
 439 407 390 467 307 467 c 0
528 164 m 2
 528 81 444 -9 307 -9 c 0
 256 -9 212 3 175 26 c 1
 165 -3 129 -9 87 -9 c 1
 87 668 l 2
 87 706 117 725 178 725 c 1
 178 488 l 1
 216 511 259 522 307 522 c 0
 422 522 528 450 528 350 c 2
 528 164 l 2
EndSplineSet
Validated: 1
Substitution2: "Single Substitution lookup 22 subtable" uni0E39
Substitution2: "Single Substitution lookup 22 subtable" uni0E39
EndChar

StartChar: c
Encoding: 99 99 68
Width: 548
VWidth: 1507
Flags: W
HStem: -9 56<218.496 367.28> 467 55<216.952 367.127>
VStem: 72 91<101.166 411.761> 424 75<102.004 133.698 379.561 410.238>
LayerCount: 2
Fore
SplineSet
72 348 m 2
 72 444 171 522 292 522 c 0
 444 522 499 424 499 399 c 0
 499 367 451 345 424 345 c 1
 424 400 379 467 292 467 c 0
 215 467 163 410 163 348 c 2
 163 163 l 2
 163 103 214 47 292 47 c 0
 377 47 424 111 424 167 c 1
 454 167 499 145 499 113 c 0
 499 86 440 -9 292 -9 c 0
 167 -9 72 71 72 163 c 2
 72 348 l 2
EndSplineSet
Validated: 1
Substitution2: "Single Substitution lookup 22 subtable" uni0E3A
Substitution2: "Single Substitution lookup 22 subtable" uni0E3A
EndChar

StartChar: d
Encoding: 100 100 69
Width: 602
VWidth: 1507
Flags: W
HStem: -9 56<218.496 370.126> 467 55<218.69 369.871> 705 20G<482.5 512>
VStem: 72 91<101.166 414.398> 424 88<20.4463 23 97.618 414.833 488 695.554>
LayerCount: 2
Fore
SplineSet
292 47 m 0
 374 47 424 103 424 163 c 2
 424 348 l 2
 424 409 374 467 292 467 c 0
 214 467 163 408 163 348 c 2
 163 163 l 2
 163 103 214 47 292 47 c 0
72 348 m 2
 72 441 168 522 292 522 c 0
 341 522 385 511 424 488 c 1
 424 668 l 2
 424 706 453 725 512 725 c 1
 512 48 l 2
 512 10 483 -9 424 -9 c 1
 424 23 l 1
 378 -2 332 -9 292 -9 c 0
 167 -9 72 71 72 163 c 2
 72 348 l 2
EndSplineSet
Validated: 1
EndChar

StartChar: e
Encoding: 101 101 70
Width: 587
VWidth: 1507
Flags: W
HStem: -9 56<218.496 367.28> 265 55<163 424> 467 55<216.952 369.222>
VStem: 72 91<101.166 265 320 411.761> 424 88<320 411.761> 424 75<102.004 133.698>
LayerCount: 2
Fore
SplineSet
512 294 m 2xf8
 512 277 489 265 467 265 c 2
 163 265 l 1
 163 163 l 2
 163 103 214 47 292 47 c 0
 377 47 424 111 424 167 c 1
 454 167 499 145 499 113 c 0xf4
 499 86 440 -9 292 -9 c 0
 167 -9 72 71 72 163 c 2
 72 348 l 2
 72 444 171 522 292 522 c 0
 416 522 512 444 512 348 c 2
 512 294 l 2xf8
292 467 m 0
 215 467 163 410 163 348 c 2
 163 320 l 1
 424 320 l 1
 424 348 l 2xf8
 424 409 374 467 292 467 c 0
EndSplineSet
Validated: 1
EndChar

StartChar: f
Encoding: 102 102 71
Width: 331
VWidth: 1507
Flags: W
HStem: -9 21G<99 128.5> 458 54<40.0547 99 188 255.651> 669 56<210.229 316.234>
VStem: 99 89<21.7405 458 512 646.598>
LayerCount: 2
Fore
SplineSet
265 669 m 0
 203 669 188 617 188 586 c 2
 188 512 l 1
 283 512 l 1
 283 476 261 458 216 458 c 2
 188 458 l 1
 188 48 l 2
 188 10 158 -9 99 -9 c 1
 99 458 l 1
 12 458 l 1
 12 494 35 512 80 512 c 2
 99 512 l 1
 99 586 l 2
 99 650 146 725 265 725 c 0
 313 725 325 695 325 677 c 0
 325 669 323 661 318 653 c 1
 293 664 275 669 265 669 c 0
EndSplineSet
Validated: 1
EndChar

StartChar: g
Encoding: 103 103 72
Width: 602
VWidth: 1507
Flags: W
HStem: -213 56<221.236 368.772> -9 56<218.496 370.126> 467 55<216.952 369.797>
VStem: 72 91<101.166 411.761> 84 79<-101.887 -70.8778> 424 88<-103.247 23 97.618 414.833>
LayerCount: 2
Fore
SplineSet
292 47 m 0xf4
 374 47 424 103 424 163 c 2
 424 348 l 2
 424 409 374 467 292 467 c 0
 215 467 163 410 163 348 c 2
 163 163 l 2
 163 103 214 47 292 47 c 0xf4
292 -157 m 0
 377 -157 424 -96 424 -41 c 2
 424 23 l 1
 378 -2 332 -9 292 -9 c 0
 167 -9 72 71 72 163 c 2
 72 348 l 2xf4
 72 444 171 522 292 522 c 0
 345 522 391 507 425 487 c 1
 437 522 495 522 512 522 c 1
 512 -41 l 2
 512 -134 417 -213 292 -213 c 0
 143 -213 84 -111 84 -88 c 0
 84 -64 128 -36 163 -36 c 1xec
 163 -96 214 -157 292 -157 c 0
EndSplineSet
Validated: 1
EndChar

StartChar: h
Encoding: 104 104 73
Width: 617
VWidth: 1507
Flags: W
HStem: -9 21G<87 117.5 439 468.5> 467 55<232.321 384.684> 705 20G<147.5 178>
VStem: 87 91<21.7405 414.398 488 694.26> 439 89<21.7405 414.422>
LayerCount: 2
Fore
SplineSet
307 467 m 0
 229 467 178 408 178 348 c 2
 178 48 l 2
 178 10 148 -9 87 -9 c 1
 87 668 l 2
 87 706 117 725 178 725 c 1
 178 488 l 1
 216 511 259 522 307 522 c 0
 433 522 528 441 528 348 c 2
 528 48 l 2
 528 10 498 -9 439 -9 c 1
 439 348 l 2
 439 409 389 467 307 467 c 0
EndSplineSet
Validated: 1
EndChar

StartChar: i
Encoding: 105 105 74
Width: 265
VWidth: 1507
Flags: W
HStem: -9 21G<87 116.5> 502 20G<146.5 176> 597 107<76.8065 186.983>
VStem: 63 137<612 689.834> 87 89<21.7405 491.656>
LayerCount: 2
Fore
SplineSet
87 466 m 2xe8
 87 503 117 522 176 522 c 1
 176 48 l 2
 176 10 146 -9 87 -9 c 1
 87 466 l 2xe8
133 597 m 256
 94 597 63 620 63 651 c 0
 63 671 81 704 133 704 c 256
 183 704 200 670 200 651 c 0xf0
 200 619 171 597 133 597 c 256
EndSplineSet
Validated: 1
EndChar

StartChar: j
Encoding: 106 106 75
Width: 265
VWidth: 1507
Flags: W
HStem: -213 56<-38.735 64.4071> 502 20G<146.5 176> 597 107<76.8065 186.983>
VStem: 63 137<612 689.834> 87 89<-134.3 491.656>
LayerCount: 2
Fore
SplineSet
11 -157 m 0xe8
 72 -157 87 -107 87 -74 c 2
 87 466 l 2
 87 503 117 522 176 522 c 1
 176 -74 l 2
 176 -144 121 -213 11 -213 c 0
 -37 -213 -48 -181 -48 -162 c 0
 -48 -155 -46 -147 -42 -139 c 1
 -18 -151 -0 -157 11 -157 c 0xe8
133 597 m 256
 94 597 63 620 63 651 c 0
 63 671 81 704 133 704 c 256
 183 704 200 670 200 651 c 0xf0
 200 619 171 597 133 597 c 256
EndSplineSet
Validated: 1
EndChar

StartChar: k
Encoding: 107 107 76
Width: 602
VWidth: 1507
Flags: W
HStem: -9 21G<87 117.5 439 468.5> 705 20G<147.5 178>
VStem: 87 91<21.7405 259.059 336 694.26> 439 89<21.7405 258.547>
LayerCount: 2
Fore
SplineSet
307 311 m 0
 228 311 178 253 178 193 c 2
 178 48 l 2
 178 10 148 -9 87 -9 c 1
 87 668 l 2
 87 706 117 725 178 725 c 1
 178 336 l 1
 484 531 l 1
 493 515 498 500 498 487 c 0
 498 468 488 452 467 440 c 2
 350 365 l 1
 335 365 l 1
 440 352 528 289 528 193 c 2
 528 48 l 2
 528 10 498 -9 439 -9 c 1
 439 193 l 2
 439 252 391 311 307 311 c 0
EndSplineSet
Validated: 1
EndChar

StartChar: l
Encoding: 108 108 77
Width: 319
VWidth: 1507
Flags: W
HStem: -9 56<200.617 303.934> 705 20G<147.5 178>
VStem: 87 91<69.845 694.26>
LayerCount: 2
Fore
SplineSet
313 40 m 0
 313 22 301 -9 253 -9 c 0
 134 -9 87 67 87 130 c 2
 87 668 l 2
 87 706 117 725 178 725 c 1
 178 130 l 2
 178 97 193 47 253 47 c 0
 264 47 282 53 306 65 c 1
 311 56 313 48 313 40 c 0
EndSplineSet
Validated: 1
EndChar

StartChar: m
Encoding: 109 109 78
Width: 816
VWidth: 1507
Flags: W
HStem: -9 21G<89 118.5 362 392 636 665.5> 467 55<207.252 331.372 481.011 605.225>
VStem: 89 89<21.7405 438.219> 362 90<21.7405 436.269> 636 89<21.7405 436.684>
CounterMasks: 1 38
LayerCount: 2
Fore
SplineSet
543 467 m 0
 491 467 452 430 452 383 c 2
 452 48 l 2
 452 10 422 -9 362 -9 c 1
 362 383 l 2
 362 429 321 467 270 467 c 0
 217 467 178 430 178 383 c 2
 178 48 l 2
 178 10 148 -9 89 -9 c 1
 89 466 l 2
 89 503 119 522 178 522 c 1
 178 503 l 1
 203 516 234 522 270 522 c 0
 326 522 372 501 404 473 c 1
 439 506 486 522 543 522 c 0
 651 522 725 454 725 383 c 2
 725 48 l 2
 725 10 695 -9 636 -9 c 1
 636 383 l 2
 636 430 596 467 543 467 c 0
EndSplineSet
Validated: 1
EndChar

StartChar: n
Encoding: 110 110 79
Width: 617
VWidth: 1507
Flags: W
HStem: -9 21G<87 117.5 439 468.5> 467 55<232.321 384.684>
VStem: 87 91<21.7405 414.398 488 491.656> 439 89<21.7405 414.422>
LayerCount: 2
Fore
SplineSet
307 467 m 0
 229 467 178 408 178 348 c 2
 178 48 l 2
 178 10 148 -9 87 -9 c 1
 87 466 l 2
 87 503 117 522 178 522 c 1
 178 488 l 1
 216 511 259 522 307 522 c 0
 433 522 528 441 528 348 c 2
 528 48 l 2
 528 10 498 -9 439 -9 c 1
 439 348 l 2
 439 409 389 467 307 467 c 0
EndSplineSet
Validated: 1
EndChar

StartChar: o
Encoding: 111 111 80
Width: 679
VWidth: 1507
Flags: W
HStem: -9 56<254.757 421.694> 467 55<255.704 419.577>
VStem: 59 89<160.301 353.125> 529 91<159.339 350.935>
LayerCount: 2
Fore
SplineSet
338 -9 m 256
 187 -9 59 103 59 256 c 0
 59 404 186 522 338 522 c 256
 482 522 620 411 620 256 c 0
 620 109 496 -9 338 -9 c 256
338 467 m 256
 233 467 148 373 148 256 c 256
 148 155 218 47 338 47 c 256
 453 47 529 149 529 256 c 256
 529 381 436 467 338 467 c 256
EndSplineSet
Validated: 1
EndChar

StartChar: p
Encoding: 112 112 81
Width: 602
VWidth: 1507
Flags: W
HStem: -213 21G<87 117.5> -9 56<231.826 384.884> 467 55<232.321 384.684>
VStem: 87 91<-181.863 23 97.618 414.398 488 491.656> 439 89<101.166 414.422>
LayerCount: 2
Fore
SplineSet
307 467 m 0
 229 467 178 408 178 348 c 2
 178 163 l 2
 178 103 229 47 307 47 c 0
 389 47 439 103 439 163 c 2
 439 348 l 2
 439 409 389 467 307 467 c 0
307 -9 m 0
 255 -9 212 4 178 23 c 1
 178 -155 l 2
 178 -194 148 -213 87 -213 c 1
 87 466 l 2
 87 503 117 522 178 522 c 1
 178 488 l 1
 216 511 259 522 307 522 c 0
 433 522 528 441 528 348 c 2
 528 163 l 2
 528 71 434 -9 307 -9 c 0
EndSplineSet
Validated: 1
EndChar

StartChar: q
Encoding: 113 113 82
Width: 602
VWidth: 1507
Flags: W
HStem: -213 21G<424 453.5> -9 56<218.496 370.126> 467 55<218.69 369.797>
VStem: 72 91<101.166 414.398> 424 88<-183.182 23 97.618 414.833>
LayerCount: 2
Fore
SplineSet
292 47 m 0
 374 47 424 103 424 163 c 2
 424 348 l 2
 424 409 374 467 292 467 c 0
 214 467 163 408 163 348 c 2
 163 163 l 2
 163 103 214 47 292 47 c 0
292 522 m 0
 345 522 391 507 425 487 c 1
 437 522 495 522 512 522 c 1
 512 -155 l 2
 512 -194 483 -213 424 -213 c 1
 424 23 l 1
 378 -2 332 -9 292 -9 c 0
 167 -9 72 71 72 163 c 2
 72 348 l 2
 72 441 168 522 292 522 c 0
EndSplineSet
Validated: 1
EndChar

StartChar: r
Encoding: 114 114 83
Width: 408
VWidth: 1507
Flags: W
HStem: -9 21G<87 117.5> 467 55<237.425 370.812>
VStem: 87 91<21.7405 411.8 487 491.656>
LayerCount: 2
Fore
SplineSet
178 348 m 2
 178 48 l 2
 178 10 148 -9 87 -9 c 1
 87 466 l 2
 87 503 117 522 178 522 c 1
 178 487 l 1
 215 510 258 522 307 522 c 0
 329 522 350 519 366 515 c 2
 380 512 l 1
 376 479 346 467 310 467 c 0
 252 467 178 424 178 348 c 2
EndSplineSet
Validated: 1
EndChar

StartChar: s
Encoding: 115 115 84
Width: 526
VWidth: 1507
Flags: W
HStem: -9 56<187.232 336.78> 467 55<194.21 322.748>
VStem: 44 85<101.222 180.019> 62 92<326.146 428.682> 371 87<331.732 418.967> 392 89<98.3049 196.65>
LayerCount: 2
Fore
SplineSet
261 522 m 0xd4
 441 522 458 382 458 369 c 0
 458 338 426 319 389 319 c 0
 382 319 375 320 368 321 c 1
 370 330 371 340 371 349 c 0
 371 416 321 467 261 467 c 0
 187 467 154 411 154 375 c 0xd8
 154 276 308 305 418 252 c 0
 441 240 481 215 481 153 c 0
 481 73 382 -9 261 -9 c 0
 120 -9 44 86 44 142 c 0
 44 162 56 191 115 191 c 0
 121 191 127 191 133 190 c 1
 130 181 129 171 129 163 c 0xe4
 129 101 191 47 261 47 c 0
 334 47 392 100 392 156 c 0
 392 240 211 224 116 278 c 0
 67 305 62 352 62 373 c 0
 62 441 135 522 261 522 c 0xd4
EndSplineSet
Validated: 1
EndChar

StartChar: t
Encoding: 116 116 85
Width: 331
VWidth: 1507
Flags: W
HStem: -6 56<212.617 315.934> 458 54<40.0547 99 190 255.651> 708 20G<159.5 190>
VStem: 99 91<72.845 458 512 697.26>
LayerCount: 2
Fore
SplineSet
325 43 m 0
 325 25 313 -6 265 -6 c 0
 146 -6 99 70 99 133 c 2
 99 458 l 1
 12 458 l 1
 12 494 35 512 80 512 c 2
 99 512 l 1
 99 671 l 2
 99 709 129 728 190 728 c 1
 190 512 l 1
 283 512 l 1
 283 476 261 458 216 458 c 2
 190 458 l 1
 190 133 l 2
 190 100 205 50 265 50 c 0
 276 50 294 56 318 68 c 1
 323 59 325 51 325 43 c 0
EndSplineSet
Validated: 1
EndChar

StartChar: u
Encoding: 117 117 86
Width: 617
VWidth: 1507
Flags: W
HStem: -9 56<232.888 384.906> 502 20G<147.5 178 498.5 528>
VStem: 87 91<98.8555 491.656> 439 89<21.7405 23 100.174 491.656>
LayerCount: 2
Fore
SplineSet
307 47 m 0
 388 47 439 103 439 164 c 2
 439 466 l 2
 439 503 469 522 528 522 c 1
 528 48 l 2
 528 10 498 -9 439 -9 c 1
 439 23 l 1
 393 -2 347 -9 307 -9 c 0
 182 -9 87 72 87 164 c 2
 87 466 l 2
 87 503 117 522 178 522 c 1
 178 164 l 2
 178 100 232 47 307 47 c 0
EndSplineSet
Validated: 1
EndChar

StartChar: v
Encoding: 118 118 87
Width: 536
VWidth: 1507
Flags: W
HStem: -9 21G<255.5 273.5> 502 20G<58 71 461.5 475.5>
LayerCount: 2
Fore
SplineSet
267 -9 m 256
 244 -9 230 6 228 9 c 0
 226 12 64 405 23 512 c 1
 38 519 52 522 64 522 c 0
 78 522 108 517 119 488 c 2
 267 118 l 1
 416 488 l 2
 426 516 454 522 469 522 c 0
 482 522 496 519 512 512 c 1
 307 9 l 2
 302 -3 280 -9 267 -9 c 256
EndSplineSet
Validated: 1
EndChar

StartChar: w
Encoding: 119 119 88
Width: 759
VWidth: 1507
Flags: W
HStem: -9 21G<249 277.485 478.515 507.5> 502 20G<59 78 680 699>
LayerCount: 2
Fore
SplineSet
378 321 m 1
 271 -9 l 1
 227 -9 198 1 187 33 c 2
 23 514 l 1
 39 519 53 522 65 522 c 0
 91 522 109 509 118 484 c 2
 238 137 l 1
 336 448 l 2
 340 460 356 469 378 469 c 256
 387 469 415 467 421 448 c 2
 519 136 l 1
 639 484 l 2
 649 509 667 521 693 521 c 0
 705 521 719 519 734 514 c 1
 570 33 l 2
 558 1 530 -9 485 -9 c 1
 378 321 l 1
EndSplineSet
Validated: 1
EndChar

StartChar: x
Encoding: 120 120 89
Width: 539
VWidth: 1507
Flags: W
HStem: -14 21G<65.5 77.5 454 470.5> 506 20G<89.5 106 431 448>
LayerCount: 2
Fore
SplineSet
514 9 m 1
 495 -6 478 -14 463 -14 c 0
 445 -14 430 -4 416 15 c 2
 268 211 l 1
 122 15 l 2
 102 -10 82 -14 73 -14 c 0
 58 -14 42 -7 24 9 c 1
 222 273 l 1
 48 506 l 1
 66 519 82 526 97 526 c 0
 115 526 131 516 146 497 c 2
 268 335 l 1
 390 497 l 2
 405 516 422 526 440 526 c 0
 456 526 472 519 490 506 c 1
 315 273 l 1
 514 9 l 1
EndSplineSet
Validated: 1
EndChar

StartChar: y
Encoding: 121 121 90
Width: 536
VWidth: 1507
Flags: W
HStem: -214 51<46.1872 113.956> 502 20G<58 71 461.5 475.5>
LayerCount: 2
Fore
SplineSet
214 -156 m 1
 172 -194 107 -214 76 -214 c 0
 43 -214 25 -197 21 -163 c 1
 57 -163 147 -163 202 -35 c 2
 225 18 l 1
 23 512 l 1
 38 519 52 522 64 522 c 0
 78 522 108 517 119 488 c 2
 267 118 l 1
 416 488 l 2
 427 516 454 522 469 522 c 0
 482 522 496 519 512 512 c 1
 282 -53 l 2
 264 -96 241 -130 214 -156 c 1
EndSplineSet
Validated: 1
EndChar

StartChar: z
Encoding: 122 122 91
Width: 485
VWidth: 1507
Flags: W
HStem: 0 56<127 434.294> 458 54<48.0864 356>
LayerCount: 2
Fore
SplineSet
418 512 m 2
 437 512 458 495 458 478 c 0
 458 472 456 468 452 464 c 2
 127 56 l 1
 396 56 l 2
 441 56 463 37 463 0 c 1
 65 0 l 2
 40 0 26 21 26 34 c 0
 26 40 28 45 32 50 c 2
 356 458 l 1
 87 458 l 2
 43 458 21 476 21 512 c 1
 418 512 l 2
EndSplineSet
Validated: 1
EndChar

StartChar: braceleft
Encoding: 123 123 92
Width: 318
VWidth: 1507
Flags: W
HStem: -127 53<224.018 299.458> 285 45<33.0522 108.29> 689 54<225.244 299.667>
VStem: 121 95<-70.488 274.824 346.511 685.084>
LayerCount: 2
Fore
SplineSet
69 285 m 0
 47 285 33 294 33 307 c 256
 33 323 51 330 69 330 c 0
 99 330 121 347 121 421 c 2
 121 610 l 2
 121 673 144 743 238 743 c 2
 327 743 l 1
 327 700 297 689 258 689 c 0
 236 689 216 687 216 624 c 2
 216 431 l 2
 216 361 191 326 139 307 c 1
 191 292 216 268 216 185 c 2
 216 -8 l 2
 216 -72 237 -74 257 -74 c 0
 297 -74 327 -85 327 -127 c 1
 238 -127 l 2
 178 -127 121 -97 121 6 c 2
 121 196 l 2
 121 268 100 285 69 285 c 0
EndSplineSet
Validated: 1
EndChar

StartChar: bar
Encoding: 124 124 93
Width: 262
VWidth: 1507
Flags: W
VStem: 87 86<-127.104 766.104>
LayerCount: 2
Fore
SplineSet
87 740 m 2
 87 776 116 794 173 794 c 1
 173 -101 l 2
 173 -137 144 -155 87 -155 c 1
 87 740 l 2
EndSplineSet
Validated: 1
EndChar

StartChar: asciitilde
Encoding: 126 126 95
Width: 682
VWidth: 1507
Flags: W
HStem: 234 57<384.232 537.2> 304 61<116.672 284.236>
LayerCount: 2
Fore
SplineSet
193 304 m 0
 139 304 101 275 75 253 c 1
 60 274 53 290 53 304 c 0
 53 340 108 365 193 365 c 0
 311 365 391 291 469 291 c 0
 511 291 554 316 597 366 c 1
 616 352 631 334 631 312 c 0
 631 281 572 234 469 234 c 0
 357 234 278 304 193 304 c 0
EndSplineSet
Validated: 1
EndChar

StartChar: quotedbl
Encoding: 34 34 97
Width: 409
VWidth: 1507
Flags: W
HStem: 503 222<94.8889 147.687 254.889 307.185>
VStem: 72 269
LayerCount: 2
Fore
SplineSet
72 658 m 1
 72 709 125 725 181 725 c 1
 172 564 l 2
 171 546 146 503 81 503 c 1
 72 658 l 1
232 658 m 1
 232 709 285 725 341 725 c 1
 332 564 l 2
 331 542 301 503 241 503 c 1
 232 658 l 1
EndSplineSet
Validated: 1
EndChar

StartChar: exclam
Encoding: 33 33 98
Width: 251
VWidth: 1507
Flags: W
HStem: -9 118<66.7428 182.64> 705 20G<155 187.31>
VStem: 51 148<8.36042 91.6396> 66 122<522 674.725> 81 89<177.231 390.628>
LayerCount: 2
Fore
SplineSet
66 644 m 0xd0
 66 701 122 725 188 725 c 1xd0
 170 203 l 2
 168 153 123 143 81 143 c 1xc8
 76 310 66 627 66 644 c 0xd0
125 -9 m 0
 84 -9 51 15 51 50 c 256
 51 85 84 109 125 109 c 0
 164 109 199 85 199 50 c 256xe0
 199 15 165 -9 125 -9 c 0
EndSplineSet
Validated: 1
EndChar

StartChar: exclamdown
Encoding: 161 161 100
Width: 251
VWidth: 1507
Flags: W
HStem: -213 21G<63.6897 107> 404 118<70.2625 183.312>
VStem: 53 147<421.497 504.777> 63 122<-163.219 -10> 81 89<121.733 335.93>
LayerCount: 2
Fore
SplineSet
185 -131 m 0xd0
 185 -177 151 -213 63 -213 c 1xd0
 81 309 l 2
 83 362 133 369 170 369 c 1xc8
 175 202 185 -114 185 -131 c 0xd0
128 522 m 0
 167 522 200 498 200 464 c 0
 200 430 168 404 128 404 c 0
 88 404 53 428 53 464 c 0xe0
 53 498 87 522 128 522 c 0
EndSplineSet
Validated: 1
EndChar

StartChar: cent
Encoding: 162 162 101
Width: 548
VWidth: 1507
Flags: W
HStem: -2 58<211.55 249 336 377.5> 463 59<336 374.916>
VStem: 74 90<101.781 414.953> 249 87<-57.8461 0.392204 56 463 518.462 569.578> 425 75<103.937 137.971 382.161 414.826>
LayerCount: 2
Fore
SplineSet
74 351 m 2
 74 445 157 505 249 520 c 1
 249 543 l 2
 249 586 284 597 336 597 c 1
 336 522 l 1
 447 506 500 431 500 402 c 0
 500 369 452 348 425 348 c 1
 425 404 385 448 336 463 c 1
 336 56 l 1
 385 71 425 114 425 170 c 1
 454 170 500 150 500 117 c 0
 500 93 456 14 336 -3 c 1
 336 -30 l 2
 336 -62 319 -84 249 -84 c 1
 249 -2 l 1
 159 13 74 71 74 166 c 2
 74 351 l 2
249 463 m 1
 203 447 164 408 164 351 c 2
 164 166 l 2
 164 114 201 71 249 56 c 1
 249 463 l 1
EndSplineSet
Validated: 1
EndChar

StartChar: sterling
Encoding: 163 163 102
Width: 605
VWidth: 1507
Flags: W
HStem: 0 60<208 526.498> 329 60<92.1987 185 282 418.801> 666 59<316.151 471.936>
VStem: 175 93<392.3 613.666> 200 91<138.528 326.193>
LayerCount: 2
Fore
SplineSet
291 232 m 0xe8
 291 149 267 103 208 60 c 1
 487 60 l 2
 535 60 559 40 559 0 c 1
 74 0 l 1
 74 74 150 56 191 166 c 0
 197 183 200 201 200 222 c 0xe8
 200 243 199 276 193 329 c 1
 60 329 l 1
 60 369 84 389 131 389 c 2
 185 389 l 1
 176 467 175 493 175 519 c 0
 175 643 264 725 390 725 c 0
 466 725 528 701 528 666 c 0
 528 662 526 640 505 621 c 1
 471 651 431 666 386 666 c 0
 302 666 268 606 268 517 c 0xf0
 268 491 271 453 276 389 c 1
 451 389 l 1
 451 349 427 329 380 329 c 2
 282 329 l 1
 288 261 291 251 291 232 c 0xe8
EndSplineSet
Validated: 1
EndChar

StartChar: currency
Encoding: 164 164 103
Width: 773
VWidth: 1507
Flags: W
HStem: 78 58<298.803 470.315> 582 60<300.465 468.026>
VStem: 89 95<259.507 458.502> 585 96<260.913 457.761>
LayerCount: 2
Fore
SplineSet
384 78 m 256
 282 78 240 109 214 130 c 1
 152 66 l 1
 93 125 l 1
 151 188 l 1
 110 239 89 296 89 359 c 0
 89 428 119 491 152 532 c 1
 93 594 l 1
 151 654 l 1
 214 592 l 1
 233 607 282 642 384 642 c 0
 449 642 507 624 558 589 c 1
 626 656 l 1
 680 594 l 1
 620 532 l 1
 664 479 681 415 681 359 c 0
 681 289 653 230 621 188 c 1
 680 125 l 1
 623 68 l 1
 559 131 l 1
 539 115 489 78 384 78 c 256
384 582 m 256
 272 582 184 477 184 359 c 256
 184 243 268 136 384 136 c 256
 503 136 585 245 585 359 c 256
 585 476 498 582 384 582 c 256
EndSplineSet
Validated: 1
EndChar

StartChar: yen
Encoding: 165 165 104
Width: 633
VWidth: 1507
Flags: W
HStem: -6 21G<270 301.5> 262 59<113.805 270 365 516.195> 396 61<113.805 208 425 516.195>
VStem: 270 95<27.9763 262 321 372>
LayerCount: 2
Fore
SplineSet
81 396 m 1
 81 437 105 457 154 457 c 2
 208 457 l 1
 18 717 l 1
 34 729 50 735 66 735 c 0
 90 735 112 723 125 704 c 2
 317 439 l 1
 509 704 l 2
 532 733 560 735 569 735 c 0
 584 735 600 729 616 717 c 1
 425 457 l 1
 549 457 l 1
 549 416 525 396 476 396 c 2
 381 396 l 1
 365 372 l 1
 365 321 l 1
 549 321 l 1
 549 282 525 262 476 262 c 2
 365 262 l 1
 365 57 l 2
 365 15 333 -6 270 -6 c 1
 270 262 l 1
 81 262 l 1
 81 301 105 321 154 321 c 2
 270 321 l 1
 270 372 l 1
 252 396 l 1
 81 396 l 1
EndSplineSet
Validated: 1
EndChar

StartChar: brokenbar
Encoding: 166 166 105
Width: 262
VWidth: 1507
Flags: W
VStem: 87 86<-127.104 242.104 397.268 766.104>
LayerCount: 2
Fore
SplineSet
87 740 m 2
 87 776 116 794 173 794 c 1
 173 424 l 2
 173 387 144 369 87 369 c 1
 87 740 l 2
87 216 m 2
 87 252 116 270 173 270 c 1
 173 -101 l 2
 173 -137 144 -155 87 -155 c 1
 87 216 l 2
EndSplineSet
Validated: 1
EndChar

StartChar: section
Encoding: 167 167 106
Width: 622
VWidth: 1507
Flags: W
HStem: -9 57<207.319 379.137> 672 53<248.313 407.236>
VStem: 87 94<352.423 458.051> 125 94<543.708 643.698> 415 90<80.6481 191.476> 437 95<272.98 391.268>
LayerCount: 2
Fore
SplineSet
320 672 m 0xd0
 265 672 219 644 219 594 c 0
 219 497 374 514 481 438 c 0
 528 405 532 366 532 345 c 0xd4
 532 315 523 275 469 225 c 1
 502 183 505 155 505 140 c 0
 505 38 404 -9 292 -9 c 0
 231 -9 178 9 155 23 c 0
 143 32 137 46 137 60 c 0
 137 75 143 92 152 107 c 1
 217 49 277 48 295 48 c 0
 359 48 415 74 415 134 c 0
 415 246 249 232 138 309 c 0
 104 332 87 363 87 401 c 0xe8
 87 423 96 464 157 511 c 1
 125 543 125 574 125 585 c 0
 125 669 207 725 327 725 c 0
 375 725 432 716 458 695 c 0
 466 689 469 679 469 668 c 0
 469 653 463 636 455 626 c 1
 425 645 367 672 320 672 c 0xd0
411 264 m 1
 416 269 437 294 437 338 c 0
 437 396 378 422 335 437 c 2
 275 456 l 2
 254 464 235 471 219 478 c 1xd4
 205 464 181 434 181 404 c 0xe0
 181 343 251 317 300 303 c 0
 373 276 385 279 411 264 c 1
EndSplineSet
Validated: 1
EndChar

StartChar: dieresis
Encoding: 168 168 107
Width: 354
VWidth: 1507
Flags: W
HStem: 601 107<22.4455 134.193 218.446 329.899>
VStem: 9 139<615.235 693.625> 205 139<615.235 693.625>
LayerCount: 2
Fore
SplineSet
78 601 m 256
 39 601 9 623 9 656 c 0
 9 687 40 708 78 708 c 256
 117 708 148 686 148 656 c 0
 148 623 117 601 78 601 c 256
274 601 m 256
 235 601 205 623 205 656 c 0
 205 687 236 708 274 708 c 256
 311 708 344 687 344 656 c 0
 344 623 312 601 274 601 c 256
EndSplineSet
Validated: 1
EndChar

StartChar: copyright
Encoding: 169 169 108
Width: 854
VWidth: 1507
Flags: W
HStem: -9 54<320.891 531.873> 140 51<368.82 490.359> 526 50<367.887 489.204> 671 54<324.669 526.477>
VStem: 44 89<241.396 475.273> 244 88<226.773 490.048> 529 82<229.818 283.25 433.75 486.366> 717 91<240.934 473.713>
LayerCount: 2
Fore
SplineSet
425 -9 m 256
 210 -9 44 154 44 357 c 256
 44 561 208 725 425 725 c 256
 646 725 808 554 808 357 c 256
 808 158 642 -9 425 -9 c 256
133 356 m 0
 133 188 259 45 425 45 c 256
 586 45 717 182 717 356 c 256
 717 538 579 671 425 671 c 256
 273 671 133 539 133 356 c 0
529 428 m 1
 529 478 485 526 430 526 c 256
 371 526 332 478 332 436 c 2
 332 282 l 2
 332 234 375 191 430 191 c 256
 486 191 529 238 529 289 c 1
 537 290 545 291 552 291 c 0
 574 291 611 283 611 253 c 0
 611 210 544 140 430 140 c 0
 348 140 244 193 244 282 c 2
 244 436 l 2
 244 514 333 576 430 576 c 0
 544 576 611 509 611 464 c 0
 611 434 574 426 552 426 c 0
 545 426 537 427 529 428 c 1
EndSplineSet
Validated: 1
EndChar

StartChar: ordfeminine
Encoding: 170 170 109
Width: 440
VWidth: 1507
Flags: W
HStem: 307 52<130.328 249.46> 529 51<130.407 249.632> 669 51<136.113 249.826>
VStem: 12 87<389.647 498.454> 279 87<388.66 500.231 561 640.383>
LayerCount: 2
Fore
SplineSet
99 443 m 0
 99 399 137 359 190 359 c 256
 246 359 279 402 279 443 c 0
 279 489 243 529 190 529 c 256
 137 529 99 489 99 443 c 0
12 443 m 0
 12 516 88 580 190 580 c 0
 221 580 251 574 279 561 c 1
 279 586 l 2
 279 632 242 669 190 669 c 0
 142 669 100 615 83 582 c 1
 48 605 41 632 41 644 c 0
 41 674 102 720 190 720 c 0
 273 720 366 667 366 586 c 2
 366 356 l 2
 366 323 337 307 279 307 c 1
 279 326 l 1
 253 313 223 307 190 307 c 0
 98 307 12 361 12 443 c 0
EndSplineSet
Validated: 1
EndChar

StartChar: logicalnot
Encoding: 172 172 111
Width: 633
VWidth: 1507
Flags: W
HStem: 360 58<73.4332 500>
VStem: 500 88<208.896 360>
LayerCount: 2
Fore
SplineSet
588 418 m 1
 588 235 l 2
 588 199 559 181 500 181 c 1
 500 360 l 1
 44 360 l 1
 44 399 67 418 112 418 c 2
 588 418 l 1
EndSplineSet
Validated: 1
EndChar

StartChar: registered
Encoding: 174 174 112
Width: 853
VWidth: 1507
Flags: W
HStem: -9 54<319.59 531.873> 332 51<335 518.154> 517 50<335 517.809> 671 54<324.669 526.477>
VStem: 44 89<239.336 475.273> 249 86<166.109 332 383 517> 532 88<166.109 323.225 394.246 506.12> 717 91<240.934 473.713>
LayerCount: 2
Fore
SplineSet
531 451 m 256
 531 480 513 517 490 517 c 2
 335 517 l 1
 335 383 l 1
 490 383 l 2
 513 383 531 422 531 451 c 256
532 265 m 2
 532 314 507 332 490 332 c 2
 335 332 l 1
 335 185 l 2
 335 151 288 142 249 142 c 1
 249 541 l 2
 249 551 258 567 292 567 c 2
 490 567 l 2
 568 567 616 508 616 451 c 0
 616 413 592 378 565 357 c 1
 595 337 620 302 620 265 c 2
 620 185 l 2
 620 151 572 142 532 142 c 1
 532 265 l 2
425 -9 m 256
 210 -9 44 154 44 357 c 256
 44 561 208 725 425 725 c 256
 646 725 808 554 808 357 c 256
 808 158 642 -9 425 -9 c 256
425 671 m 256
 273 671 133 539 133 356 c 256
 133 178 269 45 425 45 c 256
 586 45 717 182 717 356 c 256
 717 538 579 671 425 671 c 256
EndSplineSet
Validated: 5
EndChar

StartChar: macron
Encoding: 175 175 113
Width: 355
VWidth: 1507
Flags: W
HStem: 632 52<39 314>
VStem: 39 275<632 684>
LayerCount: 2
Fore
SplineSet
39 632 m 1
 39 684 l 1
 314 684 l 1
 314 632 l 1
 39 632 l 1
EndSplineSet
Validated: 1
EndChar

StartChar: degree
Encoding: 176 176 114
Width: 355
VWidth: 1507
Flags: W
HStem: 448 49<121.897 230.45> 675 50<121.694 230.783>
VStem: 20 73<525.669 646.636> 259 73<525.846 646.033>
LayerCount: 2
Fore
SplineSet
176 448 m 0
 79 448 20 516 20 586 c 256
 20 656 79 725 176 725 c 0
 265 725 332 661 332 586 c 256
 332 510 264 448 176 448 c 0
176 675 m 256
 130 675 93 638 93 586 c 256
 93 535 131 497 176 497 c 256
 226 497 259 539 259 586 c 256
 259 637 223 675 176 675 c 256
EndSplineSet
Validated: 1
EndChar

StartChar: plusminus
Encoding: 177 177 115
Width: 633
VWidth: 1507
Flags: W
HStem: 2 58<78.7728 553.832> 271 56<73.4332 270 360 558.284>
VStem: 270 90<116.344 271 327 482.481>
LayerCount: 2
Fore
SplineSet
270 271 m 1
 44 271 l 1
 44 308 67 327 112 327 c 2
 270 327 l 1
 270 457 l 2
 270 494 300 512 360 512 c 1
 360 327 l 1
 588 327 l 1
 588 290 565 271 519 271 c 2
 360 271 l 1
 360 142 l 2
 360 105 330 86 270 86 c 1
 270 271 l 1
589 60 m 1
 589 22 559 2 517 2 c 2
 45 2 l 1
 45 27 62 60 116 60 c 2
 589 60 l 1
EndSplineSet
Validated: 1
EndChar

StartChar: twosuperior
Encoding: 178 178 116
Width: 449
VWidth: 1507
Flags: W
HStem: 311 51<146 365.45> 671 49<169.211 279.519>
VStem: 59 83<594.875 644.771> 306 84<551.145 645.459>
LayerCount: 2
Fore
SplineSet
223 720 m 0
 310 720 390 670 390 594 c 0
 390 539 350 503 235 457 c 0
 185 435 155 403 146 362 c 1
 333 362 l 2
 358 362 390 352 390 311 c 1
 99 311 l 2
 85 311 57 316 57 335 c 0
 57 454 207 504 240 522 c 0
 286 546 306 565 306 594 c 0
 306 635 270 671 223 671 c 0
 178 671 142 634 142 594 c 2
 142 584 l 2
 142 581 143 575 145 567 c 1
 91 567 59 595 59 607 c 0
 59 645 121 720 223 720 c 0
EndSplineSet
Validated: 1
EndChar

StartChar: threesuperior
Encoding: 179 179 117
Width: 449
VWidth: 1507
Flags: W
HStem: 306 50<166.068 280.465> 505 50<181.47 270.005> 671 49<177.06 269.099>
VStem: 59 83<379.828 437.481> 79 85<596.213 657.625> 283 86<567.692 658.159> 304 86<379.49 480.837>
LayerCount: 2
Fore
SplineSet
79 623 m 0xe8
 79 659 125 720 223 720 c 0
 308 720 369 668 369 613 c 0xec
 369 578 339 548 320 532 c 1
 358 509 390 471 390 431 c 0
 390 356 314 306 223 306 c 0
 124 306 59 369 59 418 c 0
 59 445 87 458 143 458 c 1
 142 453 142 449 142 445 c 2
 142 431 l 2
 142 386 180 356 223 356 c 256
 266 356 304 386 304 431 c 0xf2
 304 471 268 505 223 505 c 0
 194 505 181 519 181 529 c 0
 181 547 204 555 223 555 c 0
 259 555 283 581 283 613 c 256
 283 648 256 671 223 671 c 0
 192 671 164 648 164 613 c 0xec
 164 606 166 598 169 591 c 1
 160 590 151 589 142 589 c 0xf0
 117 589 79 596 79 623 c 0xe8
EndSplineSet
Validated: 1
EndChar

StartChar: acute
Encoding: 180 180 118
Width: 349
VWidth: 1507
Flags: W
HStem: 558 161
VStem: 62 224
LayerCount: 2
Fore
SplineSet
149 690 m 2
 162 709 191 719 234 719 c 2
 286 719 l 1
 163 583 l 2
 138 561 107 558 62 558 c 1
 149 690 l 2
EndSplineSet
Validated: 1
EndChar

StartChar: mu
Encoding: 181 181 119
Width: 617
VWidth: 1507
Flags: W
HStem: -213 21G<87 117.5> -9 56<231.217 384.906> 502 20G<147.5 178 498.5 528>
VStem: 87 91<-181.863 23 98.8555 491.656> 439 89<21.7405 23 100.174 491.656>
LayerCount: 2
Fore
SplineSet
439 23 m 1
 393 -2 347 -9 307 -9 c 256
 255 -9 212 4 178 23 c 1
 178 -155 l 2
 178 -194 148 -213 87 -213 c 1
 87 466 l 2
 87 503 117 522 178 522 c 1
 178 164 l 2
 178 100 232 47 307 47 c 0
 388 47 439 103 439 164 c 2
 439 466 l 2
 439 503 469 522 528 522 c 1
 528 48 l 2
 528 10 498 -9 439 -9 c 1
 439 23 l 1
EndSplineSet
Validated: 1
EndChar

StartChar: paragraph
Encoding: 182 182 120
Width: 619
VWidth: 1507
Flags: W
HStem: 671 54<371 436.052>
VStem: 35 336<396.957 588.221> 277 94<-105.09 270> 437 92<-105.891 671>
LayerCount: 2
Fore
SplineSet
357 725 m 0xd0
 426 725 496 721 529 714 c 1
 529 -81 l 2
 529 -126 482 -137 437 -137 c 1
 437 671 l 1
 371 671 l 1
 371 -81 l 2
 371 -124 324 -137 277 -137 c 1
 277 270 l 1xb0
 169 273 35 343 35 485 c 0
 35 581 81 725 357 725 c 0xd0
EndSplineSet
Validated: 1
EndChar

StartChar: periodcentered
Encoding: 183 183 121
Width: 376
VWidth: 1507
Flags: W
HStem: 199 200<116.411 259.594>
VStem: 72 231<241.42 357.433>
LayerCount: 2
Fore
SplineSet
188 199 m 256
 122 199 72 245 72 298 c 0
 72 356 124 399 188 399 c 256
 253 399 303 357 303 298 c 0
 303 248 258 199 188 199 c 256
EndSplineSet
Validated: 1
EndChar

StartChar: cedilla
Encoding: 184 184 122
Width: 293
VWidth: 1507
Flags: W
HStem: -210 47<71.5566 164.368>
VStem: 169 89<-158.067 -94.0057>
LayerCount: 2
Fore
SplineSet
164 -42 m 1
 207 -48 258 -74 258 -116 c 0
 258 -185 175 -210 130 -210 c 0
 61 -210 38 -180 38 -160 c 0
 38 -150 42 -139 51 -127 c 1
 82 -151 109 -163 130 -163 c 0
 145 -163 169 -151 169 -124 c 0
 169 -91 122 -82 82 -82 c 0
 76 -82 70 -83 63 -83 c 1
 130 17 l 1
 205 17 l 1
 164 -42 l 1
EndSplineSet
Validated: 1
EndChar

StartChar: onesuperior
Encoding: 185 185 123
Width: 449
VWidth: 1507
Flags: W
HStem: 665 51<172.455 206>
VStem: 206 86<333.896 665>
LayerCount: 2
Fore
SplineSet
246 716 m 2
 272 716 292 704 292 687 c 2
 292 360 l 2
 292 324 263 306 206 306 c 1
 206 665 l 1
 168 665 145 685 145 716 c 1
 246 716 l 2
EndSplineSet
Validated: 1
EndChar

StartChar: ordmasculine
Encoding: 186 186 124
Width: 473
VWidth: 1507
Flags: W
HStem: 307 52<152.899 290.1> 669 51<150.491 289.433>
VStem: -2 86<429.602 596.812> 357 86<429.849 595.687>
LayerCount: 2
Fore
SplineSet
219 307 m 0
 97 307 -2 403 -2 512 c 0
 -2 633 104 720 219 720 c 0
 341 720 443 630 443 512 c 0
 443 401 341 307 219 307 c 0
219 669 m 0
 147 669 84 602 84 512 c 0
 84 428 146 359 219 359 c 0
 294 359 357 424 357 512 c 0
 357 607 291 669 219 669 c 0
EndSplineSet
Validated: 1
EndChar

StartChar: onequarter
Encoding: 188 188 126
Width: 884
VWidth: 1507
Flags: W
HStem: -5 21G<684 712.5> 95 51<567 684 770 811.87> 665 51<179.88 213>
VStem: 213 87<333.896 665> 684 86<17.8758 95 146 282>
LayerCount: 2
Fore
SplineSet
253 716 m 2
 280 716 300 704 300 687 c 2
 300 360 l 2
 300 324 271 306 213 306 c 1
 213 665 l 1
 164 665 152 696 152 716 c 1
 253 716 l 2
736 412 m 0
 755 412 769 401 770 383 c 2
 770 146 l 1
 835 146 l 1
 835 112 816 95 779 95 c 2
 770 95 l 1
 770 39 l 2
 770 10 741 -5 684 -5 c 1
 684 95 l 1
 505 95 l 2
 479 95 464 112 464 123 c 0
 464 128 466 132 470 137 c 2
 687 390 l 2
 708 411 731 412 736 412 c 0
684 146 m 1
 684 282 l 1
 567 146 l 1
 684 146 l 1
577 724 m 2
 594 754 618 759 632 759 c 0
 646 759 663 754 681 745 c 1
 306 -2 l 2
 294 -26 277 -38 254 -38 c 0
 239 -38 222 -33 202 -23 c 1
 577 724 l 2
EndSplineSet
Validated: 1
LCarets2: 2 0 0 
Ligature2: "'frac' Diagonal Fractions in Latin lookup 0 subtable" one fraction four
Ligature2: "'frac' Diagonal Fractions in Latin lookup 0 subtable" one slash four
EndChar

StartChar: onehalf
Encoding: 189 189 127
Width: 884
VWidth: 1507
Flags: W
HStem: 0 51<573 792.45> 360 50<595.747 705.908> 665 51<179.88 213>
VStem: 213 87<333.896 665> 487 81<282.983 333.467> 733 84<239.654 333.842>
LayerCount: 2
Fore
SplineSet
253 716 m 2
 280 716 300 704 300 687 c 2
 300 360 l 2
 300 324 271 306 213 306 c 1
 213 665 l 1
 164 665 152 696 152 716 c 1
 253 716 l 2
651 410 m 0
 735 410 817 358 817 282 c 0
 817 207 721 169 663 145 c 0
 612 123 582 92 573 51 c 1
 760 51 l 2
 785 51 817 41 817 0 c 1
 528 0 l 2
 509 0 485 6 485 24 c 0
 485 91 536 155 629 193 c 0
 710 231 733 247 733 282 c 0
 733 323 698 360 651 360 c 256
 601 360 568 319 568 282 c 2
 568 274 l 2
 568 270 569 264 571 256 c 1
 531 256 487 279 487 295 c 0
 487 333 545 410 651 410 c 0
577 724 m 2
 594 754 618 759 632 759 c 0
 646 759 663 754 681 745 c 1
 306 -2 l 2
 294 -26 277 -38 254 -38 c 0
 239 -38 222 -33 202 -23 c 1
 577 724 l 2
EndSplineSet
Validated: 1
LCarets2: 2 0 0 
Ligature2: "'frac' Diagonal Fractions in Latin lookup 0 subtable" one fraction two
Ligature2: "'frac' Diagonal Fractions in Latin lookup 0 subtable" one slash two
EndChar

StartChar: threequarters
Encoding: 190 190 128
Width: 884
VWidth: 1507
Flags: W
HStem: -5 21G<684 712.5> 95 51<567 684 770 811.87> 306 50<172.686 288.943> 505 50<187.514 277.901> 671 49<184.347 277.228>
VStem: 66 82<381.094 437.481> 86 84<596.096 658.102> 291 84<568.328 658.349> 312 84<380.333 480.837> 684 86<17.8758 95 146 282>
LayerCount: 2
Fore
SplineSet
735 412 m 0xf840
 754 412 769 401 770 383 c 2
 770 146 l 1
 835 146 l 1
 835 112 816 95 779 95 c 2
 770 95 l 1
 770 39 l 2
 770 10 741 -5 684 -5 c 1
 684 95 l 1
 505 95 l 2
 479 95 464 112 464 123 c 0
 464 128 466 132 470 137 c 2
 687 390 l 2
 708 411 731 412 735 412 c 0xf840
684 146 m 1
 684 282 l 1
 567 146 l 1
 684 146 l 1
86 623 m 0xfb40
 86 652 124 720 231 720 c 0
 300 720 375 680 375 613 c 0xfb40
 375 579 345 548 327 532 c 1
 365 509 396 471 396 431 c 0
 396 360 325 306 231 306 c 0
 129 306 66 372 66 418 c 0
 66 445 94 458 149 458 c 1
 148 453 148 449 148 445 c 2
 148 431 l 2
 148 388 183 356 231 356 c 0
 274 356 312 386 312 431 c 0xfcc0
 312 471 276 505 231 505 c 0
 213 505 187 514 187 529 c 0
 187 545 207 555 231 555 c 0
 266 555 291 581 291 613 c 256
 291 648 264 671 231 671 c 256
 197 671 170 648 170 613 c 0
 170 606 172 598 175 591 c 1
 166 590 157 589 149 589 c 0
 119 589 86 598 86 623 c 0xfb40
577 724 m 2
 594 754 618 759 632 759 c 0
 646 759 663 754 681 745 c 1
 306 -2 l 2
 294 -26 277 -38 254 -38 c 0
 239 -38 222 -33 202 -23 c 1
 577 724 l 2
EndSplineSet
Validated: 1
LCarets2: 2 0 0 
Ligature2: "'frac' Diagonal Fractions in Latin lookup 0 subtable" three fraction four
Ligature2: "'frac' Diagonal Fractions in Latin lookup 0 subtable" three slash four
EndChar

StartChar: questiondown
Encoding: 191 191 129
Width: 533
VWidth: 1507
Flags: W
HStem: -213 58<197.939 342.928> 404 118<214.502 328.144>
VStem: 45 92<-92.6196 65.1641> 197 148<421.884 504.176> 226 92<216.281 336.642> 407 90<-90.9185 -21.3899>
LayerCount: 2
Fore
SplineSet
271 -213 m 0xec
 159 -213 45 -143 45 -12 c 0
 45 46 71 94 116 134 c 2
 155 169 l 2
 210 211 226 238 226 279 c 2
 226 309 l 2
 226 349 257 369 318 369 c 1
 318 279 l 2
 316 180 234 153 164 72 c 0
 146 51 137 23 137 -12 c 0
 137 -96 194 -155 271 -155 c 0
 339 -155 407 -106 407 -12 c 2
 407 4 l 2
 407 9 406 14 405 20 c 1
 458 20 496 -14 497 -41 c 1
 477 -144 373 -213 271 -213 c 0xec
271 522 m 0
 311 522 345 499 345 464 c 0
 345 429 312 404 271 404 c 0
 232 404 197 429 197 464 c 0xf4
 197 497 232 522 271 522 c 0
EndSplineSet
Validated: 1
EndChar

StartChar: AE
Encoding: 198 198 135
Width: 939
VWidth: 1507
Flags: W
HStem: -17 21G<49 78.3333> 0 60<623 890.549> 232 60<271 497> 330 60<591 846.195> 659 58<552 877.002>
LayerCount: 2
Fore
SplineSet
65 -17 m 1xb8
 33 -4 17 19 17 43 c 0
 17 53 21 64 27 74 c 2
 463 717 l 1
 837 717 l 2
 884 717 907 698 907 659 c 1
 552 659 l 1
 583 390 l 1
 879 390 l 1
 879 350 855 330 806 330 c 2
 591 330 l 1
 623 60 l 1
 922 60 l 1
 922 20 899 0 852 0 c 2
 528 0 l 1x78
 503 232 l 1
 231 232 l 1
 65 -17 l 1xb8
464 585 m 1
 271 292 l 1
 497 292 l 1
 464 585 l 1
EndSplineSet
Validated: 1
EndChar

StartChar: Ccedilla
Encoding: 199 199 136
Width: 729
VWidth: 1507
Flags: W
HStem: -210 47<306.557 399.368> 666 61<273.503 469.455>
VStem: 72 97<151.005 568.109> 404 89<-158.067 -94.0057> 576 91<150.614 219.115 495.175 567.16>
LayerCount: 2
Fore
SplineSet
371 666 m 0
 257 666 169 588 169 491 c 2
 169 228 l 2
 169 123 268 51 371 51 c 0
 474 51 576 123 576 228 c 2
 576 244 l 2
 576 250 575 256 574 261 c 1
 624 261 667 235 667 195 c 0
 667 130 577 17 425 -5 c 1
 399 -42 l 1
 442 -48 493 -74 493 -116 c 0
 493 -185 410 -210 365 -210 c 0
 296 -210 273 -180 273 -160 c 0
 273 -150 277 -139 286 -127 c 1
 317 -151 344 -163 365 -163 c 0
 380 -163 404 -151 404 -124 c 0
 404 -91 357 -82 317 -82 c 0
 311 -82 305 -83 298 -83 c 1
 348 -8 l 1
 209 1 72 92 72 228 c 2
 72 491 l 2
 72 640 235 727 371 727 c 0
 561 727 668 597 668 519 c 0
 668 470 602 458 574 458 c 1
 575 463 576 469 576 475 c 2
 576 491 l 2
 576 586 487 666 371 666 c 0
EndSplineSet
Validated: 1
EndChar

StartChar: Eth
Encoding: 208 208 145
Width: 759
VWidth: 1507
Flags: W
HStem: 3 60<185 479.751> 332 57<27.4332 89 185 323.567> 662 58<185 480.941>
VStem: 89 96<63 332 389 662> 592 94<162.72 562.28>
LayerCount: 2
Back
SplineSet
-2 332 m 1
 -2 370 20.6667 389 66 389 c 2
 353 389 l 1
 353 351 330.333 332 285 332 c 2
 -2 332 l 1
387 720 m 2
 422.333 720 457.667 714.833 493 704.5 c 128
 528.333 694.167 560.333 679.167 589 659.5 c 128
 617.667 639.833 641 615.167 659 585.5 c 128
 677 555.833 686 522.333 686 485 c 2
 686 240 l 2
 686 203.333 677.167 170.5 659.5 141.5 c 128
 641.833 112.5 619 87.6667 591 67 c 128
 563 46.3333 531.167 30.5 495.5 19.5 c 128
 459.833 8.5 423.667 3 387 3 c 2
 137 3 l 2
 123 3 111.5 6.33333 102.5 13 c 128
 93.5 19.6667 89 27.3333 89 36 c 2
 89 687 l 2
 89 697 93.5 705 102.5 711 c 128
 111.5 717 123 720 137 720 c 2
 387 720 l 2
185 662 m 1
 185 63 l 1
 387 63 l 2
 415.667 63 442.167 67.8333 466.5 77.5 c 128
 490.833 87.1667 512.333 99.8333 531 115.5 c 128
 549.667 131.167 564.5 149.667 575.5 171 c 128
 586.5 192.333 592 215.333 592 240 c 2
 592 485 l 2
 592 509.667 586.5 532.667 575.5 554 c 128
 564.5 575.333 549.667 593.833 531 609.5 c 128
 512.333 625.167 490.833 637.833 466.5 647.5 c 128
 442.167 657.167 415.667 662 387 662 c 2
 185 662 l 1
EndSplineSet
Fore
SplineSet
592 485 m 2
 592 584 495 662 387 662 c 2
 185 662 l 1
 185 389 l 1
 353 389 l 1
 353 351 330 332 285 332 c 2
 185 332 l 1
 185 63 l 1
 387 63 l 2
 495 63 592 141 592 240 c 2
 592 485 l 2
89 687 m 2
 89 707 108 720 137 720 c 2
 387 720 l 2
 530 720 686 635 686 485 c 2
 686 240 l 2
 686 103 544 3 387 3 c 2
 137 3 l 2
 112 3 89 16 89 36 c 2
 89 332 l 1
 -2 332 l 1
 -2 370 21 389 66 389 c 2
 89 389 l 1
 89 687 l 2
EndSplineSet
Validated: 1
EndChar

StartChar: multiply
Encoding: 215 215 152
Width: 633
VWidth: 1507
Flags: W
LayerCount: 2
Fore
SplineSet
81 481 m 1
 98 495 115 503 133 503 c 0
 150 503 165 496 179 482 c 2
 314 347 l 1
 449 482 l 2
 465 498 480 505 496 505 c 0
 513 505 530 497 547 481 c 1
 363 297 l 1
 547 115 l 1
 529 99 512 91 495 91 c 0
 480 91 464 99 449 113 c 2
 314 247 l 1
 179 113 l 2
 164 98 148 91 132 91 c 0
 115 91 98 99 81 115 c 1
 264 297 l 1
 81 481 l 1
EndSplineSet
Validated: 1
EndChar

StartChar: Oslash
Encoding: 216 216 153
Width: 884
VWidth: 1507
Flags: W
HStem: -9 60<344.11 540.613> 666 61<335.685 538.702>
VStem: 59 95<242.179 471.017> 728 96<242.093 475.102>
LayerCount: 2
Fore
SplineSet
440 666 m 0
 283 666 154 531 154 359 c 0
 154 258 199 167 270 110 c 1
 540 647 l 1
 509 659 476 666 440 666 c 0
577 720 m 2
 587 738 604 756 632 756 c 0
 646 756 663 751 681 742 c 1
 645 671 l 1
 753 606 824 490 824 359 c 0
 824 160 661 -9 440 -9 c 0
 395 -9 353 -2 314 11 c 1
 306 -5 l 2
 294 -29 277 -41 254 -41 c 0
 239 -41 222 -36 202 -26 c 1
 238 46 l 1
 129 111 59 229 59 359 c 0
 59 565 230 727 440 727 c 0
 486 727 529 720 570 706 c 1
 577 720 l 2
612 605 m 1
 343 69 l 1
 373 57 406 51 440 51 c 0
 591 51 728 178 728 359 c 0
 728 458 683 549 612 605 c 1
EndSplineSet
Validated: 1
EndChar

StartChar: Thorn
Encoding: 222 222 159
Width: 625
VWidth: 1507
Flags: W
HStem: -9 21G<87 112.5> 173 58<182 383.393> 546 55<183.509 399.032> 705 20G<157.5 182>
VStem: 87 95<25.832 176 234.236 539.399 595 688.226> 476 94<312.225 477.711>
LayerCount: 2
Fore
SplineSet
182 595 m 1
 204 597 247 601 291 601 c 0
 535 601 570 458 570 402 c 0
 570 265 450 173 264 173 c 0
 207 173 198 173 182 176 c 1
 182 53 l 2
 182 8 138 -9 87 -9 c 1
 87 663 l 2
 87 707 133 725 182 725 c 1
 182 595 l 1
267 231 m 0
 442 231 476 329 476 395 c 0
 476 504 395 546 291 546 c 256
 269 546 224 545 182 535 c 1
 182 237 l 1
 208 233 239 231 267 231 c 0
EndSplineSet
Validated: 1
EndChar

StartChar: uni00DF
Encoding: 223 223 160
Width: 589
VWidth: 1507
Flags: W
HStem: -9 54<262.448 384.221> 357 53<240 322.87> 671 54<216.147 336.004>
VStem: 87 95<-103.42 633.496> 374 96<460.136 630.892> 421 93<89.0849 289.772>
LayerCount: 2
Fore
SplineSet
271 671 m 0xf8
 200 671 182 600 182 537 c 2
 182 -75 l 2
 182 -116 150 -137 87 -137 c 1
 87 532 l 2
 87 624 126 725 282 725 c 0
 402 725 470 645 470 543 c 0xf8
 470 478 439 428 377 393 c 1
 456 364 514 305 514 203 c 0
 514 104 476 -9 326 -9 c 0
 295 -9 239 -7 239 46 c 0
 239 55 242 64 247 75 c 1
 261 67 303 45 330 45 c 0
 391 45 421 95 421 196 c 0xf4
 421 293 380 357 240 357 c 1
 240 410 l 1
 352 415 374 477 374 546 c 0
 374 607 353 671 271 671 c 0xf8
EndSplineSet
Validated: 1
EndChar

StartChar: ae
Encoding: 230 230 167
Width: 925
VWidth: 1507
Flags: W
HStem: -9 56<197.564 354.886 550.408 702.35> 265 55<198.951 408 499 758> 467 55<212.972 351.236 554.881 703.886>
VStem: 59 89<94.3899 218.777> 408 91<99.3586 265 320 411.369> 758 91<320 412.173> 758 77<100.389 134.559>
LayerCount: 2
Fore
SplineSet
59 155 m 256xfa
 59 254 159 320 279 320 c 2
 408 320 l 1
 408 350 l 2
 408 400 362 467 279 467 c 0
 222 467 165 418 136 354 c 1
 102 380 93 411 93 426 c 0
 93 460 175 522 279 522 c 0
 331 522 409 504 455 455 c 1
 469 470 525 522 629 522 c 0
 749 522 849 445 849 348 c 2
 849 294 l 2xfc
 849 277 824 265 803 265 c 2
 499 265 l 1
 499 163 l 2
 499 107 543 47 629 47 c 256
 710 47 758 107 758 167 c 1
 790 167 835 146 835 114 c 0
 835 85 774 -9 629 -9 c 0
 554 -9 492 21 455 59 c 1
 412 9 339 -9 279 -9 c 0
 157 -9 59 57 59 155 c 256xfa
279 47 m 0
 357 47 408 103 408 163 c 2
 408 265 l 1
 279 265 l 2
 205 265 148 221 148 155 c 0
 148 92 204 47 279 47 c 0
629 467 m 0
 551 467 499 409 499 348 c 2
 499 320 l 1
 758 320 l 1
 758 348 l 2
 758 406 712 467 629 467 c 0
EndSplineSet
Validated: 1
EndChar

StartChar: ccedilla
Encoding: 231 231 168
Width: 548
VWidth: 1507
Flags: W
HStem: -210 47<223.557 316.368> 467 55<216.952 367.127>
VStem: 72 91<98.3944 411.761> 321 89<-158.067 -94.0057> 424 75<102.004 133.698 379.561 410.238>
LayerCount: 2
Fore
SplineSet
72 348 m 2
 72 444 171 522 292 522 c 0
 444 522 499 424 499 399 c 0
 499 367 451 345 424 345 c 1
 424 400 379 467 292 467 c 0
 215 467 163 410 163 348 c 2
 163 163 l 2
 163 103 214 47 292 47 c 0
 377 47 424 111 424 167 c 1
 454 167 499 145 499 113 c 0
 499 89 453 13 342 -5 c 1
 316 -42 l 1
 359 -48 410 -74 410 -116 c 0
 410 -185 327 -210 282 -210 c 0
 213 -210 190 -180 190 -160 c 0
 190 -150 194 -139 203 -127 c 1
 234 -151 261 -163 282 -163 c 0
 297 -163 321 -151 321 -124 c 0
 321 -91 274 -82 234 -82 c 0
 228 -82 222 -83 215 -83 c 1
 265 -8 l 1
 154 3 72 78 72 163 c 2
 72 348 l 2
EndSplineSet
Validated: 1
EndChar

StartChar: eth
Encoding: 240 240 177
Width: 660
VWidth: 1507
Flags: W
HStem: -9 54<243.782 408.458> 469 53<246.067 409.455>
VStem: 59 89<146.972 355.705> 505 95<153.419 377.2>
LayerCount: 2
Fore
SplineSet
59 249 m 0
 59 415 192 522 329 522 c 0
 367 522 411 514 455 490 c 1
 423 540 382 583 333 620 c 1
 161 540 l 1
 156 552 153 563 153 573 c 0
 153 594 165 611 190 623 c 2
 270 659 l 1
 250 671 230 682 211 690 c 2
 154 716 l 1
 181 772 l 1
 223 755 301 724 347 693 c 1
 493 763 l 1
 498 751 500 741 500 731 c 0
 500 709 488 692 464 680 c 2
 404 653 l 1
 508 565 600 447 600 270 c 0
 600 84 463 -9 324 -9 c 0
 173 -9 59 92 59 249 c 0
323 45 m 0
 432 45 505 128 505 262 c 256
 505 390 458 421 404 451 c 0
 382 463 357 469 329 469 c 0
 207 469 148 354 148 250 c 0
 148 101 253 45 323 45 c 0
EndSplineSet
Validated: 1
EndChar

StartChar: divide
Encoding: 247 247 184
Width: 633
VWidth: 1507
Flags: W
HStem: 66 116<258.593 371.175> 270 59<78.9959 550.388> 416 116<259.893 371.498>
VStem: 243 146<83.996 164.777 433.859 513.867>
LayerCount: 2
Fore
SplineSet
44 270 m 1
 44 294 60 329 115 329 c 2
 586 329 l 1
 586 290 555 270 514 270 c 2
 44 270 l 1
315 416 m 256
 267 416 243 450 243 473 c 0
 243 506 276 532 315 532 c 256
 354 532 389 506 389 473 c 0
 389 442 354 416 315 416 c 256
315 66 m 256
 276 66 243 91 243 124 c 0
 243 158 276 182 315 182 c 256
 354 182 389 158 389 124 c 0
 389 92 353 66 315 66 c 256
EndSplineSet
Validated: 1
EndChar

StartChar: oslash
Encoding: 248 248 185
Width: 679
VWidth: 1507
Flags: W
HStem: -6 56<287.956 423.826> 470 55<256.865 394.337>
VStem: 60 89<162.479 355.989> 531 90<163.859 356.169>
LayerCount: 2
Back
SplineSet
424 517 m 2
 434 535 447.5 546.333 464.5 551 c 128
 481.5 555.667 502.667 551.333 528 538 c 1
 255 -5 l 2
 245 -23 230.833 -34 212.5 -38 c 128
 194.167 -42 173 -38 149 -26 c 1
 424 517 l 2
60 259 m 0
 60 295.667 67.3333 330 82 362 c 128
 96.6667 394 116.5 422 141.5 446 c 128
 166.5 470 195.833 489.167 229.5 503.5 c 128
 263.167 517.833 299.667 525 339 525 c 256
 378.333 525 415 517.833 449 503.5 c 128
 483 489.167 512.833 470 538.5 446 c 128
 564.167 422 584.333 394 599 362 c 128
 613.667 330 621 295.667 621 259 c 0
 621 221.667 613.667 187 599 155 c 128
 584.333 123 564.167 95 538.5 71 c 128
 512.833 47 483 28.1667 449 14.5 c 128
 415 0.833333 378.333 -6 339 -6 c 256
 299.667 -6 263.167 0.833333 229.5 14.5 c 128
 195.833 28.1667 166.5 47 141.5 71 c 128
 116.5 95 96.6667 123 82 155 c 128
 67.3333 187 60 221.667 60 259 c 0
149 259 m 256
 149 230.333 154 203.167 164 177.5 c 128
 174 151.833 187.667 129.333 205 110 c 128
 222.333 90.6667 242.5 75.8333 265.5 65.5 c 128
 288.5 55.1667 313 50 339 50 c 256
 365 50 389.667 55.1667 413 65.5 c 128
 436.333 75.8333 456.667 90.6667 474 110 c 128
 491.333 129.333 505.167 151.833 515.5 177.5 c 128
 525.833 203.167 531 230.333 531 259 c 256
 531 288.333 525.833 315.833 515.5 341.5 c 128
 505.167 367.167 491.333 389.5 474 408.5 c 128
 456.667 427.5 436.333 442.5 413 453.5 c 128
 389.667 464.5 365 470 339 470 c 256
 313 470 288.5 464.5 265.5 453.5 c 128
 242.5 442.5 222.333 427.5 205 408.5 c 128
 187.667 389.5 174 367.167 164 341.5 c 128
 154 315.833 149 288.333 149 259 c 256
EndSplineSet
Fore
SplineSet
339 470 m 0
 239 470 149 381 149 259 c 0
 149 198 173 140 213 101 c 1
 395 460 l 1
 377 467 358 470 339 470 c 0
422 513 m 1
 436 542 459 553 479 553 c 0
 493 553 509 548 528 538 c 1
 498 478 l 1
 572 430 621 350 621 259 c 0
 621 114 498 -6 339 -6 c 0
 311 -6 284 -2 260 4 c 1
 251 -12 235 -40 198 -40 c 0
 183 -40 167 -35 149 -26 c 1
 182 39 l 1
 106 88 60 170 60 259 c 0
 60 401 182 525 339 525 c 0
 368 525 396 521 422 513 c 1
467 416 m 1
 287 58 l 1
 303 53 321 50 339 50 c 0
 458 50 531 157 531 259 c 0
 531 322 506 378 467 416 c 1
EndSplineSet
Validated: 1
EndChar

StartChar: thorn
Encoding: 254 254 191
Width: 617
VWidth: 1507
Flags: W
HStem: -213 21G<87 111> -9 56<231.217 384.013> 467 55<232.101 385.184> 705 20G<147.5 178>
VStem: 87 91<-185.541 23 98.8555 414.415 488 694.26> 439 89<100.174 411.145>
LayerCount: 2
Fore
SplineSet
307 467 m 0
 228 467 178 407 178 350 c 2
 178 164 l 2
 178 100 232 47 307 47 c 0
 388 47 439 103 439 164 c 2
 439 350 l 2
 439 407 390 467 307 467 c 0
528 164 m 2
 528 81 444 -9 307 -9 c 0
 255 -9 212 4 178 23 c 1
 178 -161 l 2
 178 -203 135 -213 87 -213 c 1
 87 668 l 2
 87 706 117 725 178 725 c 1
 178 488 l 1
 216 511 259 522 307 522 c 0
 422 522 528 450 528 350 c 2
 528 164 l 2
EndSplineSet
Validated: 1
EndChar

StartChar: Lslash
Encoding: 321 321 193
Width: 654
VWidth: 1507
Flags: W
HStem: 3 60<185 593.801>
VStem: 89 96<63 282 425 695.628>
LayerCount: 2
Back
SplineSet
20 237 m 1
 -4.66667 273.667 -0.666666 302.667 32 324 c 2
 342 529 l 1
 366 489.667 362.667 460.667 332 442 c 2
 20 237 l 1
555 63 m 2
 602.333 63 626 43 626 3 c 1
 137 3 l 2
 123 3 111.5 6.33333 102.5 13 c 128
 93.5 19.6667 89 27.3333 89 36 c 2
 89 666 l 2
 89 708.667 121 730 185 730 c 1
 185 63 l 1
 555 63 l 2
EndSplineSet
Fore
SplineSet
137 3 m 2
 112 3 89 16 89 36 c 2
 89 282 l 1
 20 237 l 1
 9 253 4 267 4 280 c 0
 4 297 13 312 32 324 c 2
 89 362 l 1
 89 666 l 2
 89 709 121 730 185 730 c 1
 185 425 l 1
 342 529 l 1
 353 512 358 496 358 483 c 0
 358 466 349 452 332 442 c 2
 185 345 l 1
 185 63 l 1
 555 63 l 2
 602 63 626 43 626 3 c 1
 137 3 l 2
EndSplineSet
Validated: 1
EndChar

StartChar: lslash
Encoding: 322 322 194
Width: 271
VWidth: 1507
Flags: W
HStem: -6 21G<87 119.5>
VStem: 87 97<27.9763 282 423 695.628>
LayerCount: 2
Back
SplineSet
18 238 m 1
 -5.33333 274 -1.33333 302.333 30 323 c 2
 252 467 l 1
 276 429.667 272.333 401 241 381 c 2
 18 238 l 1
184 57 m 2
 184 15 151.667 -6 87 -6 c 1
 87 666 l 2
 87 708.667 119.333 730 184 730 c 1
 184 57 l 2
EndSplineSet
Fore
SplineSet
184 57 m 2
 184 15 152 -6 87 -6 c 1
 87 282 l 1
 18 238 l 1
 8 253 3 267 3 280 c 0
 3 297 12 311 30 323 c 2
 87 360 l 1
 87 666 l 2
 87 709 119 730 184 730 c 1
 184 423 l 1
 252 467 l 1
 262 451 268 436 268 423 c 0
 268 406 259 392 241 381 c 2
 184 344 l 1
 184 57 l 2
EndSplineSet
Validated: 1
EndChar

StartChar: OE
Encoding: 338 338 195
Width: 1234
VWidth: 1507
Flags: W
HStem: -9 60<277.537 467.845 779.938 967.381> 330 60<672 936.498> 666 61<275.005 471.388 777.994 970.597>
VStem: 74 96<152.284 567.737> 576 96<150.284 330 390 567.741> 1078 93<152.118 220.663 496.853 566.161>
LayerCount: 2
Fore
SplineSet
874 666 m 256
 754 666 672 581 672 491 c 2
 672 390 l 1
 969 390 l 1
 969 350 945 330 897 330 c 2
 672 330 l 1
 672 228 l 2
 672 128 766 51 874 51 c 0
 976 51 1078 124 1078 228 c 2
 1078 244 l 2
 1078 250 1077 256 1076 261 c 1
 1127 261 1171 235 1171 195 c 0
 1171 119 1054 -9 874 -9 c 0
 785 -9 686 24 624 98 c 1
 564 23 458 -9 372 -9 c 0
 228 -9 74 83 74 228 c 2
 74 491 l 2
 74 639 234 727 372 727 c 0
 462 727 564 696 624 621 c 1
 683 696 780 727 874 727 c 0
 1057 727 1171 603 1171 521 c 0
 1171 480 1123 458 1076 458 c 1
 1077 463 1078 469 1078 475 c 2
 1078 491 l 2
 1078 587 988 666 874 666 c 256
372 51 m 0
 478 51 576 126 576 228 c 2
 576 491 l 2
 576 584 490 666 372 666 c 256
 252 666 170 581 170 491 c 2
 170 228 l 2
 170 128 264 51 372 51 c 0
EndSplineSet
Validated: 1
EndChar

StartChar: oe
Encoding: 339 339 196
Width: 940
VWidth: 1507
Flags: W
HStem: -9 56<216.775 368.232 565.651 716.842> 265 55<514 773> 467 55<219.353 369.093 567.519 718.628>
VStem: 74 89<101.166 412.459> 424 90<100.506 265 320 413.092> 773 91<320 412.173> 773 77<100.389 134.559>
LayerCount: 2
Fore
SplineSet
864 294 m 2xfc
 864 277 839 265 818 265 c 2
 514 265 l 1
 514 163 l 2
 514 107 558 47 644 47 c 0
 711 47 773 95 773 167 c 1
 805 167 850 146 850 114 c 0xfa
 850 85 789 -9 644 -9 c 0
 538 -9 482 44 467 59 c 1
 456 47 398 -9 294 -9 c 0
 167 -9 74 71 74 163 c 2
 74 348 l 2
 74 441 167 522 294 522 c 0
 399 522 458 467 469 455 c 1
 486 473 539 522 644 522 c 0
 764 522 864 445 864 348 c 2
 864 294 l 2xfc
424 348 m 2
 424 408 374 467 294 467 c 0
 214 467 163 409 163 348 c 2
 163 163 l 2
 163 103 214 47 294 47 c 0
 366 47 424 99 424 163 c 2
 424 348 l 2
644 467 m 0
 558 467 514 405 514 348 c 2
 514 320 l 1
 773 320 l 1
 773 348 l 2xfc
 773 411 720 467 644 467 c 0
EndSplineSet
Validated: 1
EndChar

StartChar: florin
Encoding: 402 402 202
Width: 605
VWidth: 1507
Flags: W
HStem: -86 54<39.2185 158.021> -25 20G<27 53> 384 55<152.865 237 335 459.638> 671 56<402.233 528.967>
LayerCount: 2
Fore
SplineSet
247 487 m 0
 262 619 326 727 469 727 c 0
 493 727 518 720 529 716 c 1
 546 706 562 690 562 673 c 0
 562 667 560 660 556 654 c 1
 531 653 l 1
 498 667 475 671 461 671 c 0
 371 671 347 561 341 485 c 2
 335 439 l 1
 490 439 l 1
 490 403 463 384 425 384 c 2
 330 384 l 1
 304 160 l 2
 296 85 277 26 247 -19 c 0
 217 -64 169 -86 104 -86 c 0
 35 -86 23 -55 23 -34 c 0
 23 -25 25 -16 29 -5 c 1
 77 -31 94 -32 110 -32 c 0
 190 -32 205 97 210 134 c 2
 237 384 l 1
 124 384 l 1
 124 406 134 439 190 439 c 2
 243 439 l 1
 243 453 244 458 247 487 c 0
EndSplineSet
Validated: 1
EndChar

StartChar: circumflex
Encoding: 710 710 203
Width: 491
VWidth: 1507
Flags: W
HStem: 558 162
VStem: 84 321
LayerCount: 2
Fore
SplineSet
244 720 m 256
 258 720 268 717 274 711 c 2
 405 576 l 1
 390 564 374 558 354 558 c 0
 336 558 320 563 309 574 c 2
 244 642 l 1
 179 574 l 2
 168 563 154 558 135 558 c 0
 116 558 99 564 84 576 c 1
 214 711 l 2
 220 717 230 720 244 720 c 256
EndSplineSet
Validated: 1
EndChar

StartChar: breve
Encoding: 728 728 205
Width: 482
VWidth: 1507
Flags: W
HStem: 558 57<181.326 298.943> 705 20G<124 146 335 356.5>
VStem: 60 86<652.099 700.454> 335 84<651.906 701.315>
LayerCount: 2
Fore
SplineSet
419 686 m 0
 419 609 323 558 240 558 c 256
 148 558 60 619 60 685 c 0
 60 709 102 725 146 725 c 1
 146 662 183 615 240 615 c 0
 297 615 335 661 335 725 c 1
 378 725 419 710 419 686 c 0
EndSplineSet
Validated: 1
EndChar

StartChar: dotaccent
Encoding: 729 729 206
Width: 268
VWidth: 1507
Flags: W
HStem: 638 107<78.7395 188.915>
VStem: 65 137<652.121 730.63>
LayerCount: 2
Fore
SplineSet
134 638 m 256
 95 638 65 660 65 692 c 0
 65 722 96 745 134 745 c 256
 173 745 202 722 202 692 c 0
 202 660 172 638 134 638 c 256
EndSplineSet
Validated: 1
EndChar

StartChar: ring
Encoding: 730 730 207
Width: 449
VWidth: 1507
Flags: W
HStem: 591 42<190.173 257.715> 751 42<190.664 255.83>
VStem: 106 73<641.064 743.188> 268 73<640.919 741.925>
LayerCount: 2
Fore
SplineSet
223 591 m 0
 159 591 106 635 106 692 c 0
 106 731 142 793 223 793 c 256
 304 793 341 731 341 692 c 0
 341 631 293 591 223 591 c 0
223 751 m 256
 188 751 179 708 179 692 c 0
 179 660 197 633 223 633 c 0
 250 633 268 657 268 692 c 0
 268 719 252 751 223 751 c 256
EndSplineSet
Validated: 1
EndChar

StartChar: ogonek
Encoding: 731 731 208
Width: 292
VWidth: 1507
Flags: W
HStem: -210 47<135.72 228.443>
VStem: 42 89<-158.162 -93.9629>
LayerCount: 2
Fore
SplineSet
42 -116 m 0
 42 -74 92 -47 136 -42 c 1
 95 17 l 1
 170 17 l 1
 237 -83 l 1
 230 -83 224 -82 218 -82 c 0
 178 -82 131 -91 131 -124 c 0
 131 -154 160 -163 170 -163 c 0
 191 -163 218 -151 249 -127 c 1
 258 -139 262 -150 262 -160 c 0
 262 -180 239 -210 170 -210 c 0
 111 -210 42 -176 42 -116 c 0
EndSplineSet
Validated: 1
EndChar

StartChar: tilde
Encoding: 732 732 209
Width: 381
VWidth: 1507
Flags: W
HStem: 592 53<225.064 280.094> 662 52<99.8903 153.16>
VStem: 17 80<600.517 661.526> 282 79<645.794 706.714>
LayerCount: 2
Fore
SplineSet
17 632 m 0
 17 647 35 714 116 714 c 0
 195 714 234 645 262 645 c 0
 274 645 282 662 282 677 c 0
 282 687 279 697 274 708 c 1
 286 712 297 715 307 715 c 0
 343 715 361 691 361 673 c 0
 361 652 341 592 262 592 c 0
 186 592 145 662 116 662 c 0
 101 662 97 638 97 630 c 0
 97 621 99 611 104 600 c 1
 92 595 80 593 70 593 c 0
 34 593 17 616 17 632 c 0
EndSplineSet
Validated: 1
EndChar

StartChar: uni0E01
Encoding: 3585 3585 212
Width: 660
VWidth: 1507
Flags: W
HStem: -9 21G<184 208 476 501> 550 57<230.579 395.872>
VStem: 59 92<371.096 474.229> 115 93<30.9245 314> 476 94<31.3366 473.772>
LayerCount: 2
Fore
SplineSet
208 -9 m 1xd8
 160 -9 115 16 115 57 c 2
 115 291 l 1xd8
 114 293 110 299 104 310 c 2
 87 344 l 2
 67 386 59 393 59 405 c 0
 59 516 174 607 314 607 c 0
 427 607 570 540 570 405 c 2
 570 57 l 2
 570 17 526 -9 476 -9 c 1
 476 405 l 2
 476 485 398 550 314 550 c 0
 221 550 153 480 151 413 c 1xe8
 153 405 168 380 179 359 c 2
 203 314 l 1
 208 298 l 1
 208 -9 l 1xd8
EndSplineSet
Validated: 1
EndChar

StartChar: uni0E02
Encoding: 3586 3586 213
Width: 634
VWidth: 1507
Flags: W
HStem: -9 57<311.192 423.046> 309 48<115.449 195.891> 454 40<128.246 194.481> 550 57<157.019 270.241>
VStem: 32 75<364.047 446.26> 190 92<78.3281 254.891> 203 62<364.88 446.986> 309 93<372.375 507.363> 451 93<75.4866 565.251>
LayerCount: 2
Fore
SplineSet
366 48 m 256xfd80
 411 48 451 79 451 139 c 2
 451 540 l 2
 451 579 494 606 544 606 c 1
 544 139 l 2
 544 50 462 -9 366 -9 c 256
 272 -9 190 50 190 139 c 2
 190 167 l 2xfd80
 190 216 201 254 277 359 c 0
 298 383 309 409 309 437 c 0
 309 496 269 550 217 550 c 0
 174 550 142 522 128 491 c 1
 138 493 144 494 155 494 c 0
 219 494 265 458 265 405 c 256xfb80
 265 357 223 309 155 309 c 0
 74 309 32 375 32 437 c 0
 32 531 112 607 217 607 c 0
 325 607 402 523 402 437 c 0
 402 345 285 306 282 167 c 2
 282 139 l 2
 282 85 321 48 366 48 c 256xfd80
155 454 m 256
 126 454 107 434 107 405 c 256
 107 376 127 357 155 357 c 256
 184 357 203 377 203 405 c 256xfb80
 203 434 184 454 155 454 c 256
EndSplineSet
Validated: 1
EndChar

StartChar: uni0E03
Encoding: 3587 3587 214
Width: 634
VWidth: 1507
Flags: W
HStem: -9 57<311.192 423.046> 309 48<115.449 195.891> 454 40<125.34 194.481> 505 102<178.132 216.209 221.244 260.963>
VStem: 32 75<364.047 446.708> 190 92<78.3281 254.891> 203 62<364.88 446.986> 309 93<372.375 530.683> 451 93<75.4866 565.251>
LayerCount: 2
Fore
SplineSet
280 546 m 1xfd80
 262 531 250 505 219 505 c 0
 197 505 193 512 158 547 c 1
 154 543 140 526 125 490 c 1
 135 493 145 494 155 494 c 0
 219 494 265 458 265 405 c 256xfb80
 265 357 223 309 155 309 c 0
 74 309 32 375 32 437 c 0
 32 484 60 607 172 607 c 0
 191 607 204 597 219 583 c 1
 235 602 250 607 267 607 c 0
 348 607 402 527 402 437 c 0
 402 345 285 306 282 167 c 2
 282 139 l 2
 282 85 321 48 366 48 c 256
 411 48 451 79 451 139 c 2
 451 540 l 2
 451 579 494 606 544 606 c 1
 544 139 l 2
 544 50 462 -9 366 -9 c 256
 272 -9 190 50 190 139 c 2
 190 167 l 2
 190 216 201 254 277 359 c 0
 298 383 309 409 309 437 c 0
 309 478 295 527 280 546 c 1xfd80
155 454 m 256
 126 454 107 434 107 405 c 256
 107 376 127 357 155 357 c 256
 184 357 203 377 203 405 c 256
 203 434 184 454 155 454 c 256
EndSplineSet
Validated: 1
EndChar

StartChar: uni0E04
Encoding: 3588 3588 215
Width: 690
VWidth: 1507
Flags: W
HStem: -9 21G<154 186.491 506 531.5> 261 46<302.775 383.693> 404 48<302.638 384.074> 550 57<262.044 424.558>
VStem: 87 94<213 473.829> 392 63<314.44 396.278> 506 94<31.3366 473.193>
LayerCount: 2
Fore
SplineSet
87 405 m 2
 87 515 203 607 344 607 c 0
 462 607 600 531 600 405 c 2
 600 57 l 2
 600 17 557 -9 506 -9 c 1
 506 405 l 2
 506 483 430 550 344 550 c 256
 260 550 181 485 181 405 c 2
 181 213 l 1
 243 393 l 2
 256 427 293 452 344 452 c 0
 402 452 455 409 455 356 c 256
 455 302 401 261 344 261 c 0
 319 261 300 265 285 274 c 1
 179 -9 l 1
 129 -9 87 17 87 57 c 2
 87 405 l 2
344 404 m 256
 317 404 295 385 295 356 c 256
 295 327 317 307 344 307 c 256
 373 307 392 329 392 356 c 256
 392 385 372 404 344 404 c 256
EndSplineSet
Validated: 1
EndChar

StartChar: uni0E05
Encoding: 3589 3589 216
Width: 690
VWidth: 1507
Flags: W
HStem: -9 21G<154 186.852 506 531.5> 247 47<302.775 384.816> 390 49<302.963 384.898> 475 81<315.843 369.071> 587 20G<220 270.5 420 472.5>
VStem: 87 94<208 509.689> 392 63<301.934 383.212> 506 94<31.3366 511.393>
LayerCount: 2
Fore
SplineSet
241 546 m 1
 230 542 181 513 181 434 c 2
 181 208 l 1
 243 380 l 1
 254 407 286 439 344 439 c 0
 406 439 455 394 455 342 c 256
 455 289 405 247 344 247 c 0
 319 247 300 252 285 261 c 1
 179 -9 l 1
 129 -9 87 17 87 57 c 2
 87 434 l 2
 87 540 182 607 258 607 c 0
 283 607 344 556 344 556 c 1
 399 603 415 607 425 607 c 0
 520 607 600 529 600 434 c 2
 600 57 l 2
 600 17 557 -9 506 -9 c 1
 506 434 l 2
 506 513 456 543 448 546 c 1
 364 477 357 475 344 475 c 0
 333 475 318 477 241 546 c 1
344 390 m 256
 317 390 295 371 295 342 c 256
 295 313 317 294 344 294 c 256
 373 294 392 314 392 342 c 256
 392 371 372 390 344 390 c 256
EndSplineSet
Validated: 1
EndChar

StartChar: uni0E06
Encoding: 3590 3590 217
Width: 721
VWidth: 1507
Flags: W
HStem: -9 51<129.851 211.425> 139 49<129.526 191.768> 309 48<115.449 195.012> 454 40<125.34 194.003> 505 102<178.797 216.209 221.244 261.631>
VStem: 32 75<364.047 446.626> 57 65<49.7141 131.019> 203 64<364.846 446.448> 309 93<373.895 530.683> 538 94<66 564.839>
LayerCount: 2
Fore
SplineSet
57 90 m 0xfbc0
 57 144 105 188 170 188 c 0
 178 188 185 188 190 187 c 1
 196 235 217 275 277 359 c 0
 298 383 309 409 309 437 c 0
 309 478 295 527 280 546 c 1
 261 532 254 505 220 505 c 0
 197 505 192 513 158 547 c 1
 154 543 140 526 125 490 c 1
 135 493 145 494 155 494 c 0
 216 494 267 460 267 405 c 256
 267 352 218 309 155 309 c 0
 74 309 32 375 32 437 c 0xfdc0
 32 483 60 607 172 607 c 0
 191 607 204 597 219 583 c 1
 235 602 250 607 267 607 c 0
 348 607 402 527 402 437 c 0
 402 347 282 296 282 173 c 0
 282 166 282 161 283 157 c 1
 538 66 l 1
 538 540 l 2
 538 578 581 606 632 606 c 1
 632 57 l 2
 632 18 596 -9 550 -9 c 1
 283 86 l 1
 279 31 234 -9 170 -9 c 0
 106 -9 57 33 57 90 c 0xfbc0
155 454 m 256
 126 454 107 434 107 405 c 256
 107 376 127 357 155 357 c 256
 184 357 203 377 203 405 c 256
 203 434 184 454 155 454 c 256
170 139 m 256
 141 139 122 119 122 90 c 256xfbc0
 122 61 142 42 170 42 c 256
 197 42 219 61 219 90 c 256
 219 119 198 139 170 139 c 256
EndSplineSet
Validated: 1
EndChar

StartChar: uni0E07
Encoding: 3591 3591 218
Width: 575
VWidth: 1507
Flags: W
HStem: -9 21G<380.951 421.5> 418 45<334.424 392.942> 559 48<334.184 416.057>
VStem: 264 63<470.769 551.154> 393 92<107 418> 424 61<470.541 550.499>
LayerCount: 2
Fore
SplineSet
264 511 m 256xf8
 264 564 314 607 375 607 c 0
 437 607 485 564 485 511 c 2
 485 57 l 2xf4
 485 18 444 -9 399 -9 c 1
 66 360 l 2
 57 370 53 381 53 396 c 0
 53 421 66 441 80 455 c 1
 393 107 l 1
 393 418 l 1
 375 418 l 2
 314 418 264 457 264 511 c 256xf8
375 559 m 256
 346 559 327 539 327 511 c 256
 327 482 347 463 375 463 c 256
 402 463 424 482 424 511 c 256
 424 540 402 559 375 559 c 256
EndSplineSet
Validated: 1
EndChar

StartChar: uni0E08
Encoding: 3592 3592 219
Width: 617
VWidth: 1507
Flags: W
HStem: -9 21G<429.071 461> 262 47<244.584 325.844> 405 49<243.841 325.056> 550 57<199.461 357.915>
VStem: 33 91<408.237 477.139> 175 62<316.809 397.87> 434 94<231 476.694>
LayerCount: 2
Fore
SplineSet
33 429 m 0
 33 481 109 607 279 607 c 0
 411 607 528 526 528 405 c 2
 528 57 l 2
 528 18 486 -9 436 -9 c 1
 339 271 l 1
 324 265 306 262 285 262 c 0
 225 262 175 304 175 357 c 0
 175 408 222 454 285 454 c 0
 348 454 380 415 390 386 c 2
 434 231 l 1
 434 405 l 2
 434 484 364 550 279 550 c 0
 195 550 124 485 124 405 c 2
 124 389 l 2
 124 385 124 380 125 374 c 1
 82 374 33 394 33 429 c 0
285 405 m 256
 256 405 237 385 237 357 c 256
 237 328 257 309 285 309 c 256
 314 309 333 329 333 357 c 256
 333 386 313 405 285 405 c 256
EndSplineSet
Validated: 1
EndChar

StartChar: uni0E09
Encoding: 3593 3593 220
Width: 655
VWidth: 1507
Flags: W
HStem: -9 48<454.621 536.858> 184 48<129.877 186.501> 329 46<129.61 208.39> 550 57<204.877 368.049>
VStem: 40 84<430.182 474.007> 59 62<238.884 320.725> 187 92<77 184> 217 62<239.192 320.185> 451 92<182.609 473.827> 547 63<48.1384 132.91>
LayerCount: 2
Fore
SplineSet
270 -9 m 1xfac0
 225 -9 187 19 187 57 c 2
 187 184 l 1xfac0
 169 184 l 2
 105 184 59 228 59 280 c 256
 59 335 107 375 169 375 c 256
 231 375 279 335 279 280 c 2xf5c0
 279 77 l 1
 418 161 l 2
 435 171 451 195 451 220 c 2
 451 405 l 2
 451 479 378 550 286 550 c 256
 196 550 124 480 124 402 c 1
 53 402 40 433 40 453 c 0
 40 497 128 607 286 607 c 0
 411 607 543 527 543 405 c 2
 543 220 l 2
 543 208 540 195 534 182 c 1
 572 170 610 136 610 90 c 0
 610 33 560 -9 496 -9 c 0
 441 -9 399 21 386 62 c 1
 270 -9 l 1xfac0
169 329 m 256
 140 329 121 307 121 280 c 256
 121 251 141 232 169 232 c 256
 198 232 217 252 217 280 c 256xf5c0
 217 307 198 329 169 329 c 256
496 142 m 256
 468 142 445 121 445 90 c 256
 445 60 469 39 496 39 c 256
 526 39 547 63 547 90 c 256
 547 121 524 142 496 142 c 256
EndSplineSet
Validated: 1
EndChar

StartChar: uni0E0A
Encoding: 3594 3594 221
Width: 634
VWidth: 1507
Flags: W
HStem: -9 57<311.192 423.046> 309 48<115.449 195.891> 454 40<128.246 194.481> 550 57<157.019 269.621>
VStem: 32 75<364.047 446.26> 190 92<78.3281 255.344> 203 62<364.88 446.986> 309 93<372.711 439> 451 93<75.4866 422.594> 481 89<516.832 592.12>
LayerCount: 2
Fore
SplineSet
366 -9 m 256xf980
 272 -9 190 50 190 139 c 2
 190 167 l 2xfd80
 190 216 201 254 277 359 c 0
 298 383 309 409 309 437 c 0
 309 496 269 550 217 550 c 0
 174 550 142 522 128 491 c 1
 138 493 144 494 155 494 c 0
 219 494 265 458 265 405 c 256
 265 357 223 309 155 309 c 0
 74 309 32 375 32 437 c 0
 32 531 112 607 217 607 c 0
 315 607 379 538 398 470 c 1
 419 479 l 2
 456 492 481 550 481 594 c 0
 481 604 480 607 476 626 c 1
 530 626 570 598 570 571 c 0xfb40
 570 556 549 485 493 457 c 1
 531 428 544 379 544 327 c 2
 544 139 l 2
 544 50 462 -9 366 -9 c 256xf980
366 48 m 256
 411 48 451 79 451 139 c 2
 451 327 l 2
 451 446 423 427 402 439 c 1
 402 342 285 308 282 167 c 2
 282 139 l 2
 282 85 321 48 366 48 c 256
155 454 m 256
 126 454 107 434 107 405 c 256
 107 376 127 357 155 357 c 256
 184 357 203 377 203 405 c 256xfb
 203 434 184 454 155 454 c 256
EndSplineSet
Validated: 1
EndChar

StartChar: uni0E0B
Encoding: 3595 3595 222
Width: 634
VWidth: 1507
Flags: W
HStem: -9 57<311.192 423.046> 309 48<115.449 195.891> 454 40<125.34 194.481> 505 102<178.797 216.209 221.244 261.631>
VStem: 32 75<364.047 446.708> 190 92<78.3281 254.891> 203 62<364.88 446.986> 309 93<372.711 439> 451 93<75.4866 422.594> 481 89<516.57 592.12>
LayerCount: 2
Fore
SplineSet
366 -9 m 256xf980
 272 -9 190 50 190 139 c 2
 190 167 l 2xfd80
 190 216 201 254 277 359 c 0
 298 383 309 409 309 437 c 0
 309 478 295 527 280 546 c 1
 261 532 254 505 220 505 c 0
 197 505 192 513 158 547 c 1
 154 543 140 526 125 490 c 1
 135 493 145 494 155 494 c 0
 219 494 265 458 265 405 c 256
 265 357 223 309 155 309 c 0
 74 309 32 375 32 437 c 0
 32 484 60 607 172 607 c 0
 191 607 204 597 219 583 c 1
 235 602 250 607 267 607 c 0
 352 607 389 529 399 470 c 1
 414 479 458 483 476 559 c 0
 480 571 481 583 481 594 c 0
 481 604 480 607 476 626 c 1
 530 626 570 598 570 571 c 0xfb40
 570 556 549 485 493 457 c 1
 531 428 544 379 544 327 c 2
 544 139 l 2
 544 50 462 -9 366 -9 c 256xf980
366 48 m 256
 411 48 451 79 451 139 c 2
 451 327 l 2
 451 446 423 427 402 439 c 1
 402 437 l 2
 402 345 285 306 282 167 c 2
 282 139 l 2
 282 85 321 48 366 48 c 256
155 454 m 256
 126 454 107 434 107 405 c 256
 107 376 127 357 155 357 c 256
 184 357 203 377 203 405 c 256xfb
 203 434 184 454 155 454 c 256
EndSplineSet
Validated: 1
EndChar

StartChar: uni0E0C
Encoding: 3596 3596 223
Width: 939
VWidth: 1507
Flags: W
HStem: -9 48<186.035 266.891 419.083 500.154> 136 46<208.321 266.953 418.374 477.656> 550 57<230.615 396.339>
VStem: 59 92<371.25 473.028> 116 92<181 314> 116 62<45.9439 128.762> 274 62<46.88 129.026> 348 63<46.8365 127.927> 478 92<181 471.864> 754 93<66 565.251>
LayerCount: 2
Fore
SplineSet
478 405 m 2xf3c0
 478 480 403 550 315 550 c 256
 222 550 153 480 151 413 c 1xf3c0
 153 405 168 380 179 359 c 2
 203 314 l 1
 208 298 l 1
 208 181 l 1xebc0
 211 182 217 182 226 182 c 0
 288 182 336 142 336 87 c 256
 336 39 294 -9 226 -9 c 256
 162 -9 116 35 116 87 c 2xe7c0
 116 291 l 1xebc0
 115 293 112 299 106 310 c 2
 63 390 l 2
 60 396 59 401 59 405 c 0
 59 513 171 607 315 607 c 0
 429 607 570 539 570 405 c 2
 570 146 l 1
 754 66 l 1
 754 540 l 2
 754 579 797 606 847 606 c 1
 847 57 l 2
 847 17 809 -9 764 -9 c 1
 570 74 l 1
 564 33 526 -9 460 -9 c 0
 393 -9 348 38 348 87 c 256
 348 142 398 182 460 182 c 0
 468 182 474 182 478 181 c 1
 478 405 l 2xf3c0
226 136 m 256
 197 136 178 116 178 87 c 256xe7c0
 178 58 198 39 226 39 c 256
 255 39 274 59 274 87 c 256
 274 116 255 136 226 136 c 256
460 136 m 256
 432 136 411 118 411 87 c 256
 411 58 433 39 460 39 c 256
 489 39 508 59 508 87 c 256
 508 116 489 136 460 136 c 256
EndSplineSet
Validated: 1
EndChar

StartChar: uni0E0D
Encoding: 3597 3597 224
Width: 908
VWidth: 1507
Flags: W
HStem: -267 57<604.613 677.859> -81 43<529.053 601.656> -9 63<570.519 694.644> -9 48<186.035 266.891> 136 46<208.321 266.953> 550 57<222.411 377.668>
VStem: 116 92<181 314> 116 62<45.9439 128.762> 274 62<46.88 129.026> 449 92<83.2478 478.235> 463 59<-161.667 -87.1469> 609 60<-162.895 -87.2552> 713 90<-172.816 -71.9062> 724 93<82.9756 565.251>
LayerCount: 2
Fore
SplineSet
449 405 m 2xeed4
 449 489 379 550 300 550 c 0
 237 550 161 509 151 413 c 1
 153 405 168 380 179 359 c 2
 203 314 l 1
 208 298 l 1
 208 181 l 1xeed4
 211 182 217 182 226 182 c 0
 288 182 336 142 336 87 c 256
 336 39 294 -9 226 -9 c 256
 162 -9 116 35 116 87 c 2xdd90
 116 291 l 1
 115 293 112 299 106 310 c 2
 63 390 l 2
 60 396 59 401 59 405 c 0
 59 525 167 607 300 607 c 0
 431 607 541 526 541 405 c 2
 541 139 l 2
 541 88 582 54 633 54 c 256
 686 54 724 90 724 139 c 2
 724 540 l 2
 724 579 767 606 817 606 c 1
 817 139 l 2
 817 53 729 -9 633 -9 c 256
 536 -9 449 52 449 139 c 2
 449 405 l 2xeed4
565 -38 m 0
 623 -38 669 -77 669 -125 c 0
 669 -165 638 -192 604 -202 c 1
 617 -207 625 -210 630 -210 c 0
 690 -210 713 -142 713 -87 c 0
 713 -71 711 -55 707 -39 c 1
 765 -39 803 -61 803 -95 c 0
 803 -179 735 -267 630 -267 c 0
 538 -267 463 -202 463 -125 c 0xccb8
 463 -82 502 -38 565 -38 c 0
226 136 m 256
 197 136 178 116 178 87 c 256
 178 58 198 39 226 39 c 256xdd90
 255 39 274 59 274 87 c 256
 274 116 255 136 226 136 c 256
565 -81 m 256
 542 -81 522 -100 522 -125 c 256xccb0
 522 -150 542 -169 565 -169 c 256
 590 -169 609 -148 609 -125 c 256
 609 -100 588 -81 565 -81 c 256
EndSplineSet
Validated: 1
Substitution2: "Single Substitution lookup 22 subtable" uni0E0D.alt1
Substitution2: "Single Substitution lookup 22 subtable" uni0E0D.alt1
EndChar

StartChar: uni0E0E
Encoding: 3598 3598 225
AltUni2: 00f71b.ffffffff.0
Width: 688
VWidth: 1507
Flags: W
HStem: -268 49<227.912 308.406> -141 52<227.763 332.881> -9 48<114.035 194.746> 136 46<113.047 171.656> 550 57<257.472 423.626>
VStem: 44 62<45.8841 129.026> 84 94<382.434 474.63> 148 74<-211.601 -148.605> 172 92<181 288> 202 62<47.5008 128.762> 365 88<-111.828 -64.0135> 503 94<-142 474.6>
LayerCount: 2
Fore
SplineSet
154 136 m 256xfc70
 125 136 106 116 106 87 c 256
 106 58 126 39 154 39 c 256
 183 39 202 59 202 87 c 256
 202 116 183 136 154 136 c 256xfc70
274 -141 m 0
 260 -141 222 -147 222 -181 c 0xf930
 222 -208 256 -219 264 -219 c 0
 278 -219 306 -210 335 -164 c 1
 319 -153 299 -141 274 -141 c 0
453 -99 m 0
 453 -110 427 -151 425 -155 c 1
 436 -166 l 2
 444 -174 450 -182 454 -190 c 1
 503 -142 l 1
 503 405 l 2
 503 481 430 550 341 550 c 0
 248 550 180 480 178 413 c 1
 205 368 264 312 264 297 c 2
 264 87 l 2xfa70
 264 34 215 -9 154 -9 c 256
 90 -9 44 35 44 87 c 256
 44 142 92 182 154 182 c 0
 162 182 168 182 172 181 c 1
 172 288 l 1xfcb0
 127 347 l 1
 86 396 l 2
 85 397 84 400 84 405 c 0xfa30
 84 517 201 607 341 607 c 0
 466 607 597 529 597 405 c 2
 597 -109 l 2
 597 -125 585 -143 579 -149 c 2
 466 -261 l 2
 463 -264 456 -269 441 -269 c 0
 431 -269 407 -266 401 -250 c 0
 396 -236 390 -224 383 -214 c 1
 349 -250 309 -268 263 -268 c 0
 200 -268 148 -240 148 -181 c 0
 148 -119 211 -89 270 -89 c 0
 302 -89 333 -96 365 -112 c 1
 374 -95 383 -71 392 -42 c 1
 424 -53 453 -76 453 -99 c 0
EndSplineSet
Validated: 513
Substitution2: "Single Substitution lookup 22 subtable" uni0E0E.alt1
Substitution2: "Single Substitution lookup 22 subtable" uni0E0E.alt1
EndChar

StartChar: uni0E0F
Encoding: 3599 3599 226
AltUni2: 00f71c.ffffffff.0
Width: 687
VWidth: 1507
Flags: W
HStem: -268 49<129.772 213.102> -141 52<130.029 235.941> -9 48<111.759 192.489> 136 46<112.047 171.773> 550 57<257.472 423.626>
VStem: 44 60<45.8841 129.026> 51 73<-211.601 -148.951> 84 94<384.188 474.63> 172 92<181 288> 200 64<47.5008 128.762> 503 94<-184 474.6>
LayerCount: 2
Fore
SplineSet
152 136 m 256xfc60
 123 136 104 116 104 87 c 256
 104 58 124 39 152 39 c 256
 181 39 200 59 200 87 c 256
 200 116 181 136 152 136 c 256xfc60
44 87 m 256
 44 142 92 182 154 182 c 0
 162 182 168 182 172 181 c 1
 172 288 l 1xfca0
 86 396 l 2
 85 397 84 400 84 405 c 0xf920
 84 517 201 607 341 607 c 0
 466 607 597 529 597 405 c 2
 597 -158 l 2
 597 -170 582 -188 577 -193 c 2
 508 -261 l 2
 500 -269 490 -273 480 -273 c 0
 449 -273 437 -241 411 -220 c 1
 369 -261 l 2
 364 -266 356 -269 344 -269 c 0
 319 -269 306 -259 301 -249 c 1
 296 -234 290 -228 285 -214 c 1
 252 -250 212 -268 165 -268 c 0
 101 -268 51 -240 51 -181 c 0xfa20
 51 -119 112 -89 173 -89 c 0
 205 -89 236 -96 265 -112 c 1
 278 -91 286 -71 295 -44 c 1
 330 -54 354 -78 354 -100 c 0
 354 -113 338 -136 327 -157 c 1
 340 -167 351 -178 360 -193 c 1
 389 -164 l 2
 397 -156 406 -152 417 -152 c 0
 428 -152 437 -156 445 -164 c 2
 482 -202 l 1
 503 -184 l 1
 503 405 l 2
 503 481 430 550 341 550 c 0
 248 550 180 480 178 413 c 1xf920
 180 410 185 403 193 392 c 2
 219 360 l 2
 255 317 264 302 264 297 c 2
 264 87 l 2
 264 34 215 -9 154 -9 c 256
 90 -9 44 35 44 87 c 256
124 -181 m 0xfa20
 124 -208 158 -219 166 -219 c 0
 181 -219 213 -211 238 -164 c 1
 217 -149 199 -141 178 -141 c 0xf920
 165 -141 124 -146 124 -181 c 0xfa20
EndSplineSet
Validated: 513
Substitution2: "Single Substitution lookup 22 subtable" uni0E0F.alt1
Substitution2: "Single Substitution lookup 22 subtable" uni0E0F.alt1
EndChar

StartChar: uni0E10
Encoding: 3600 3600 227
Width: 610
VWidth: 1507
Flags: W
HStem: -298 85<365.953 404.016> -298 42<127.976 193.808> -191 43<127.391 212.426 368.754 418.504> -72 43<368.59 436.04> -9 21G<403.82 439> 102 49<223.378 305.046> 247 47<223.46 304.687> 550 57<218.99 357.173>
VStem: 65 60<-253.145 -193.678> 154 62<157.788 239.066> 256 50<-162.641 -134.239> 304 61<-144.977 -75.4125> 413 92<-233.997 -193 146 327.148> 440 59<-144.956 -76.1219>
LayerCount: 2
Fore
SplineSet
306 -163 m 0x7fe4
 306 -180 292 -201 289 -205 c 1
 321 -238 l 1
 338 -220 l 2
 343 -215 352 -213 365 -213 c 0
 375 -213 384 -214 390 -220 c 2
 413 -244 l 1
 419 -237 l 1
 419 -193 l 1
 402 -193 l 2
 349 -193 304 -157 304 -110 c 0xbfd8
 304 -64 350 -29 402 -29 c 0
 455 -29 499 -64 499 -110 c 2
 499 -203 l 2
 499 -214 494 -224 484 -234 c 0
 430 -288 437 -298 405 -298 c 256
 393 -298 385 -296 380 -291 c 2
 351 -261 l 1
 323 -291 l 2
 318 -296 308 -298 295 -298 c 0
 280 -298 269 -281 253 -261 c 1
 232 -282 194 -298 154 -298 c 0
 102 -298 65 -267 65 -225 c 0
 65 -177 106 -148 158 -148 c 0
 192 -148 215 -151 238 -163 c 1
 246 -140 l 2
 248 -130 252 -117 256 -101 c 1
 279 -111 306 -126 306 -163 c 0x7fe4
125 -225 m 0
 125 -244 146 -256 155 -256 c 0x7fc0
 167 -256 192 -246 213 -210 c 1
 195 -197 180 -191 158 -191 c 0
 153 -191 125 -193 125 -225 c 0
59 432 m 0
 59 483 118 607 285 607 c 0
 387 607 446 551 455 543 c 1
 490 607 l 1
 525 591 547 568 547 541 c 0
 547 535 546 529 543 523 c 2
 505 449 l 2
 495 429 482 419 466 419 c 0
 454 419 435 425 425 449 c 0
 404 500 350 550 285 550 c 0
 207 550 165 474 155 448 c 1
 446 377 l 2
 473 368 505 344 505 312 c 2
 505 57 l 2
 505 17 462 -9 416 -9 c 1
 335 124 l 1
 314 109 291 102 264 102 c 0
 203 102 154 147 154 199 c 0
 154 252 204 294 264 294 c 0
 311 294 347 273 363 244 c 2
 413 146 l 1
 413 323 l 1x3fc8
 285 353 221 372 93 402 c 0
 77 405 59 416 59 432 c 0
264 247 m 256
 235 247 216 227 216 199 c 256
 216 170 236 151 264 151 c 256
 293 151 312 171 312 199 c 256
 312 228 292 247 264 247 c 256
402 -72 m 256
 380 -72 365 -87 365 -110 c 256
 365 -133 380 -148 402 -148 c 256
 425 -148 440 -133 440 -110 c 256x3fd4
 440 -87 425 -72 402 -72 c 256
EndSplineSet
Validated: 1
Substitution2: "Single Substitution lookup 22 subtable" uni0E10.alt1
Substitution2: "Single Substitution lookup 22 subtable" uni0E10.alt1
EndChar

StartChar: uni0E11
Encoding: 3601 3601 228
Width: 764
VWidth: 1507
Flags: W
HStem: -9 21G<271 304.387 580 606> 309 48<114.624 195.012> 454 40<125.34 194.003> 505 102<178.797 216.209 220.866 261.344>
VStem: 32 75<364.879 446.626> 203 64<364.846 446.448> 205 92<172 272.217> 309 93<372.676 530.415> 580 92<31.3366 533.384>
LayerCount: 2
Fore
SplineSet
294 -9 m 1xfb80
 248 -9 205 17 205 57 c 2
 205 167 l 2xfb80
 205 323 309 350 309 437 c 0
 309 478 295 527 280 546 c 1
 250 515 244 505 220 505 c 0
 197 505 192 513 158 547 c 1
 154 543 140 526 125 490 c 1
 135 493 145 494 155 494 c 0
 216 494 267 460 267 405 c 256xfd80
 267 352 218 309 155 309 c 0
 78 309 32 373 32 437 c 0
 32 483 60 607 172 607 c 0
 191 607 204 597 219 583 c 1
 239 606 256 607 268 607 c 0
 355 607 402 518 402 437 c 0
 402 367 328 322 308 254 c 0
 300 232 297 204 297 172 c 1
 514 591 l 1
 523 603 544 607 556 607 c 0
 626 607 672 570 672 505 c 2
 672 57 l 2
 672 17 632 -9 580 -9 c 1
 580 505 l 2
 580 525 578 529 576 534 c 1
 294 -9 l 1xfb80
155 454 m 256
 126 454 107 434 107 405 c 256
 107 376 127 357 155 357 c 256
 184 357 203 377 203 405 c 256xfd80
 203 434 184 454 155 454 c 256
EndSplineSet
Validated: 1
EndChar

StartChar: uni0E12
Encoding: 3602 3602 229
Width: 967
VWidth: 1507
Flags: W
HStem: -9 48<446.141 528.817> 142 46<445.208 507.84> 390 49<303.606 384.074> 475 81<316.754 368.997> 587 20G<219.5 272 419.5 473.5 851.5 876>
VStem: 89 92<109 509.689> 234 61<301.626 382.26> 372 64<48.0785 133.141> 392 63<300.971 383.212> 508 92<187 511.07> 782 94<66 565.251>
LayerCount: 2
Fore
SplineSet
241 546 m 1xff60
 230 542 181 513 181 434 c 2
 181 109 l 1
 307 253 l 1
 257 267 234 306 234 342 c 0
 234 391 279 439 344 439 c 0
 402 439 455 394 455 342 c 0xfee0
 455 322 446 302 428 282 c 2
 175 -9 l 1
 130 -9 89 18 89 57 c 2
 89 434 l 2
 89 540 181 607 258 607 c 0
 286 607 344 556 344 556 c 1
 399 603 414 607 425 607 c 0
 522 607 600 529 600 434 c 2
 600 151 l 1
 782 66 l 1
 782 540 l 2
 782 579 827 606 876 606 c 1
 876 57 l 2
 876 17 838 -9 793 -9 c 1
 598 78 l 1
 593 27 546 -9 487 -9 c 0
 423 -9 372 33 372 90 c 0
 372 141 419 188 487 188 c 0
 496 188 503 188 508 187 c 1
 508 434 l 2
 508 513 459 542 448 546 c 1
 362 475 356 475 344 475 c 0
 321 475 296 503 259 532 c 2
 241 546 l 1xff60
344 390 m 256
 317 390 295 371 295 342 c 256
 295 313 317 294 344 294 c 256
 373 294 392 314 392 342 c 256
 392 371 372 390 344 390 c 256
487 142 m 256
 459 142 436 121 436 90 c 256xff60
 436 60 460 39 487 39 c 256
 517 39 538 63 538 90 c 256
 538 121 515 142 487 142 c 256
EndSplineSet
Validated: 1
EndChar

StartChar: uni0E13
Encoding: 3603 3603 230
Width: 934
VWidth: 1507
Flags: W
HStem: -9 48<186.035 266.012 731.035 815.059> 136 46<208.321 267.092> 550 57<222.85 379.197>
VStem: 116 92<181 314> 116 62<45.9439 128.762> 274 64<46.8464 129.026> 451 92<74 481.543> 727 93<182.563 565.251> 824 64<48.6182 132.455>
LayerCount: 2
Fore
SplineSet
534 -9 m 1xf780
 489 -9 451 17 451 57 c 2
 451 405 l 2
 451 509 358 550 301 550 c 256
 245 550 156 513 151 415 c 1
 152 412 155 404 161 394 c 2
 203 314 l 1
 208 298 l 1
 208 181 l 1xf780
 211 182 217 182 226 182 c 0
 288 182 338 142 338 87 c 256
 338 34 289 -9 226 -9 c 256
 162 -9 116 35 116 87 c 2xef80
 116 291 l 1
 115 293 112 299 106 310 c 2
 63 390 l 2
 60 396 59 401 59 405 c 0
 59 526 170 607 301 607 c 0
 435 607 543 523 543 405 c 2
 543 74 l 1
 696 163 l 2
 725 184 727 212 727 222 c 2
 727 540 l 2
 727 579 770 606 820 606 c 1
 820 222 l 2
 820 207 817 194 812 182 c 1
 850 168 888 135 888 90 c 0
 888 30 830 -9 773 -9 c 0
 716 -9 674 23 663 66 c 1
 534 -9 l 1xf780
226 136 m 256
 197 136 178 116 178 87 c 256xef80
 178 58 198 39 226 39 c 256
 255 39 274 59 274 87 c 256
 274 116 255 136 226 136 c 256
773 142 m 256
 745 142 722 121 722 90 c 256
 722 60 746 39 773 39 c 256
 803 39 824 63 824 90 c 256
 824 121 801 142 773 142 c 256
EndSplineSet
Validated: 1
EndChar

StartChar: uni0E14
Encoding: 3604 3604 231
Width: 690
VWidth: 1507
Flags: W
HStem: -9 21G<152 191.667 506 531.5> 405 49<302.531 384.898> 550 57<262.76 426.565>
VStem: 87 94<113 472.844> 234 61<316.497 396.851> 392 63<316.129 398.212> 506 94<31.3366 473.193>
LayerCount: 2
Fore
SplineSet
344 550 m 256
 260 550 181 485 181 405 c 2
 181 113 l 1
 307 267 l 1
 268 279 234 311 234 357 c 0
 234 409 280 454 344 454 c 256
 406 454 455 409 455 357 c 0
 455 339 447 319 430 297 c 2
 175 -9 l 1
 129 -9 87 17 87 57 c 2
 87 405 l 2
 87 491 173 607 344 607 c 0
 503 607 600 498 600 405 c 2
 600 57 l 2
 600 17 557 -9 506 -9 c 1
 506 405 l 2
 506 483 430 550 344 550 c 256
344 405 m 256
 317 405 295 386 295 357 c 256
 295 328 317 309 344 309 c 256
 373 309 392 329 392 357 c 256
 392 386 372 405 344 405 c 256
EndSplineSet
Validated: 1
EndChar

StartChar: uni0E15
Encoding: 3605 3605 232
Width: 690
VWidth: 1507
Flags: W
HStem: -9 21G<152 192.388 506 531.5> 390 49<302.531 384.074> 475 81<316.384 369.071> 587 20G<220 270.5 420 472.5>
VStem: 87 94<109 509.689> 234 61<301.737 381.851> 392 63<300.971 383.212> 506 94<31.3366 511.393>
LayerCount: 2
Fore
SplineSet
241 546 m 1
 230 542 181 513 181 434 c 2
 181 109 l 1
 306 253 l 1
 268 264 234 297 234 342 c 0
 234 394 280 439 344 439 c 0
 402 439 455 394 455 342 c 0
 455 322 446 302 428 282 c 2
 175 -9 l 1
 129 -9 87 17 87 57 c 2
 87 434 l 2
 87 540 182 607 258 607 c 0
 283 607 344 556 344 556 c 1
 399 603 415 607 425 607 c 0
 520 607 600 529 600 434 c 2
 600 57 l 2
 600 17 557 -9 506 -9 c 1
 506 434 l 2
 506 513 456 543 448 546 c 1
 361 476 362 475 344 475 c 0
 331 475 314 481 241 546 c 1
344 390 m 256
 317 390 295 371 295 342 c 256
 295 313 317 294 344 294 c 256
 373 294 392 314 392 342 c 256
 392 371 372 390 344 390 c 256
EndSplineSet
Validated: 1
EndChar

StartChar: uni0E16
Encoding: 3606 3606 233
Width: 660
VWidth: 1507
Flags: W
HStem: -9 48<185.973 266.54> 136 46<208.321 266.746> 550 57<230.579 395.872>
VStem: 59 92<413 474.229> 115 93<181 291> 115 63<45.9439 128.762> 274 62<46.8464 128.808> 476 94<31.3366 473.772>
LayerCount: 2
Fore
SplineSet
476 405 m 2xf3
 476 485 398 550 314 550 c 0
 221 550 153 480 151 413 c 1xf3
 203 314 l 2
 206 309 208 303 208 298 c 2
 208 181 l 1xeb
 211 182 217 182 226 182 c 0
 287 182 336 141 336 87 c 256
 336 34 286 -9 226 -9 c 0
 162 -9 115 35 115 87 c 2xe7
 115 291 l 1xeb
 63 390 l 2
 60 396 59 401 59 405 c 0
 59 516 174 607 314 607 c 0
 427 607 570 540 570 405 c 2
 570 57 l 2
 570 17 526 -9 476 -9 c 1
 476 405 l 2xf3
226 136 m 256
 197 136 178 116 178 87 c 256xe7
 178 58 198 39 226 39 c 256
 255 39 274 59 274 87 c 256
 274 116 255 136 226 136 c 256
EndSplineSet
Validated: 1
EndChar

StartChar: uni0E17
Encoding: 3607 3607 234
Width: 731
VWidth: 1507
Flags: W
HStem: -9 21G<239 271.818 547 572> 416 47<113.192 171.501> 559 48<113.109 194.898>
VStem: 44 62<470.051 551.12> 172 93<190 416> 202 63<470.192 550.499> 547 94<31.3366 512.113>
LayerCount: 2
Fore
SplineSet
264 -9 m 1xfa
 214 -9 172 17 172 57 c 2
 172 416 l 1xfa
 154 416 l 2
 85 416 44 464 44 511 c 256
 44 559 86 607 154 607 c 256
 216 607 265 564 265 511 c 2xf6
 265 190 l 1
 277 225 291 266 308 310 c 2
 392 542 l 2
 412 598 409 596 424 602 c 0
 432 605 441 607 452 607 c 0
 513 607 558 592 589 561 c 0
 624 528 641 485 641 434 c 2
 641 57 l 2
 641 17 597 -9 547 -9 c 1
 547 434 l 2
 547 495 524 530 479 541 c 1
 264 -9 l 1xfa
154 559 m 256
 125 559 106 539 106 511 c 256
 106 482 126 463 154 463 c 256
 183 463 202 483 202 511 c 256xf6
 202 540 182 559 154 559 c 256
EndSplineSet
Validated: 1
EndChar

StartChar: uni0E18
Encoding: 3608 3608 235
Width: 610
VWidth: 1507
Flags: W
HStem: -9 57<232.708 373.712> 550 57<218.99 357.173>
VStem: 87 94<104.094 311.802> 428 92<104.293 318>
LayerCount: 2
Fore
SplineSet
490 607 m 1
 525 591 547 568 547 541 c 0
 547 535 546 529 543 523 c 2
 505 449 l 2
 495 429 482 419 466 419 c 0
 454 419 435 425 425 449 c 0
 404 500 350 550 285 550 c 0
 207 550 165 474 155 448 c 1
 461 372 l 2
 489 364 520 339 520 307 c 2
 520 191 l 2
 520 109 473 -9 303 -9 c 256
 134 -9 87 109 87 191 c 2
 87 286 l 2
 87 326 132 353 181 353 c 1
 181 191 l 2
 181 108 226 48 303 48 c 0
 379 48 428 103 428 191 c 2
 428 318 l 1
 93 402 l 2
 77 405 59 416 59 432 c 0
 59 483 118 607 285 607 c 0
 387 607 446 551 455 543 c 1
 490 607 l 1
EndSplineSet
Validated: 1
EndChar

StartChar: uni0E19
Encoding: 3609 3609 236
Width: 740
VWidth: 1507
Flags: W
HStem: -9 48<538.032 622.729> 416 47<113.975 171.501> 559 48<113.46 194.898>
VStem: 44 62<470.809 551.154> 172 93<66 416> 202 63<470.192 550.499> 534 93<184.749 565.251> 632 61<49.1441 132.284>
LayerCount: 2
Fore
SplineSet
255 -9 m 1xfb
 210 -9 172 17 172 57 c 2
 172 416 l 1xfb
 154 416 l 2
 94 416 44 458 44 511 c 256
 44 564 94 607 154 607 c 0
 216 607 265 564 265 511 c 2xf7
 265 66 l 1
 382 115 l 1
 499 166 l 2
 523 179 534 208 534 226 c 2
 534 540 l 2
 534 579 577 606 627 606 c 1
 627 226 l 2
 627 214 623 200 615 184 c 1
 656 171 693 138 693 90 c 0
 693 41 652 -9 580 -9 c 0
 520 -9 474 30 469 81 c 1
 255 -9 l 1xfb
154 559 m 256
 125 559 106 539 106 511 c 256
 106 482 126 463 154 463 c 256
 183 463 202 483 202 511 c 256xf7
 202 540 182 559 154 559 c 256
580 142 m 256
 552 142 529 121 529 90 c 256
 529 60 553 39 580 39 c 256
 610 39 632 63 632 90 c 256
 632 121 608 142 580 142 c 256
EndSplineSet
Validated: 1
EndChar

StartChar: uni0E1A
Encoding: 3610 3610 237
Width: 715
VWidth: 1507
Flags: W
HStem: -9 57<324.044 467.99> 416 47<113.192 171.501> 559 48<113.109 194.898>
VStem: 44 62<470.051 551.12> 172 93<110.391 416> 202 63<470.192 550.499> 532 94<111.343 564.839>
LayerCount: 2
Fore
SplineSet
398 -9 m 256xfa
 271 -9 172 72 172 193 c 2
 172 416 l 1xfa
 154 416 l 2
 85 416 44 464 44 511 c 256
 44 559 86 607 154 607 c 256
 216 607 265 564 265 511 c 2xf6
 265 193 l 2
 265 109 318 48 398 48 c 0
 471 48 532 105 532 193 c 2
 532 540 l 2
 532 578 575 606 626 606 c 1
 626 193 l 2
 626 72 525 -9 398 -9 c 256xfa
154 559 m 256
 125 559 106 539 106 511 c 256
 106 482 126 463 154 463 c 256
 183 463 202 483 202 511 c 256xf6
 202 540 182 559 154 559 c 256
EndSplineSet
Validated: 1
EndChar

StartChar: uni0E1B
Encoding: 3611 3611 238
Width: 731
VWidth: 1507
Flags: W
HStem: -9 57<329.542 484.869> 416 47<113.192 171.501> 559 48<113.109 194.898>
VStem: 44 62<470.051 551.12> 172 93<113.344 416> 202 63<470.192 550.499> 547 94<110.391 809.112>
LayerCount: 2
Fore
SplineSet
405 -9 m 0xfa
 277 -9 172 79 172 193 c 2
 172 416 l 1xfa
 154 416 l 2
 85 416 44 464 44 511 c 256
 44 559 86 607 154 607 c 256
 216 607 265 564 265 511 c 2xf6
 265 193 l 2
 265 110 319 48 405 48 c 256
 492 48 547 109 547 193 c 2
 547 784 l 2
 547 823 591 849 641 849 c 1
 641 193 l 2
 641 72 531 -9 405 -9 c 0xfa
154 559 m 256
 125 559 106 539 106 511 c 256
 106 482 126 463 154 463 c 256
 183 463 202 483 202 511 c 256xf6
 202 540 182 559 154 559 c 256
EndSplineSet
Validated: 1
EndChar

StartChar: uni0E1C
Encoding: 3612 3612 239
Width: 663
VWidth: 1507
Flags: W
HStem: -9 21G<152.5 187.493 472.507 508> 416 47<181.899 240.056> 559 48<158.988 238.965>
VStem: 87 94<140 416> 87 64<469.944 550.499> 247 62<470.934 552.116> 479 94<140 565.251>
LayerCount: 2
Fore
SplineSet
309 511 m 256xee
 309 458 262 416 199 416 c 2
 181 416 l 1
 181 140 l 1xf6
 291 332 l 2
 297 343 319 347 330 347 c 0
 350 347 363 342 369 332 c 2
 479 140 l 1
 479 540 l 2
 479 579 524 606 573 606 c 1
 573 57 l 2
 573 17 532 -9 484 -9 c 1
 330 259 l 1
 176 -9 l 1
 129 -9 87 17 87 57 c 2
 87 511 l 2
 87 564 136 607 199 607 c 256
 263 607 309 563 309 511 c 256xee
199 559 m 256
 170 559 151 539 151 511 c 256xee
 151 482 171 463 199 463 c 256
 228 463 247 483 247 511 c 256
 247 540 227 559 199 559 c 256
EndSplineSet
Validated: 1
EndChar

StartChar: uni0E1D
Encoding: 3613 3613 240
Width: 663
VWidth: 1507
Flags: W
HStem: -9 21G<152.5 187.493 472.507 508> 416 47<181.899 240.056> 559 48<158.988 238.965>
VStem: 87 94<140 416> 87 64<469.944 550.499> 247 62<470.934 552.116> 479 94<140 809.112>
LayerCount: 2
Fore
SplineSet
309 511 m 256xee
 309 458 262 416 199 416 c 2
 181 416 l 1
 181 140 l 1xf6
 291 332 l 2
 297 343 319 347 330 347 c 0
 350 347 363 342 369 332 c 2
 479 140 l 1
 479 784 l 2
 479 823 524 849 573 849 c 1
 573 57 l 2
 573 17 532 -9 484 -9 c 1
 330 259 l 1
 176 -9 l 1
 129 -9 87 17 87 57 c 2
 87 511 l 2
 87 564 136 607 199 607 c 256
 263 607 309 563 309 511 c 256xee
199 559 m 256
 170 559 151 539 151 511 c 256xee
 151 482 171 463 199 463 c 256
 228 463 247 483 247 511 c 256
 247 540 227 559 199 559 c 256
EndSplineSet
Validated: 1
EndChar

StartChar: uni0E1E
Encoding: 3614 3614 241
Width: 744
VWidth: 1507
Flags: W
HStem: -9 21G<239 271.376 554.624 587> 416 47<113.192 171.501> 559 48<113.109 194.898>
VStem: 44 62<470.051 551.12> 172 93<203 416> 202 63<470.192 550.499> 561 92<203 565.251>
LayerCount: 2
Fore
SplineSet
264 -9 m 1xfa
 214 -9 172 17 172 57 c 2
 172 416 l 1xfa
 154 416 l 2
 85 416 44 464 44 511 c 256
 44 559 86 607 154 607 c 256
 216 607 265 564 265 511 c 2xf6
 265 203 l 1
 369 487 l 2
 375 500 390 506 413 506 c 0
 435 506 450 500 457 487 c 1
 561 203 l 1
 561 540 l 2
 561 579 605 606 653 606 c 1
 653 57 l 2
 653 17 612 -9 562 -9 c 1
 413 395 l 1
 264 -9 l 1xfa
154 559 m 256
 125 559 106 539 106 511 c 256
 106 482 126 463 154 463 c 256
 183 463 202 483 202 511 c 256xf6
 202 540 182 559 154 559 c 256
EndSplineSet
Validated: 1
EndChar

StartChar: uni0E1F
Encoding: 3615 3615 242
Width: 744
VWidth: 1507
Flags: W
HStem: -9 21G<239 271.376 554.624 587> 416 47<113.192 171.501> 559 48<113.109 194.898>
VStem: 44 62<470.051 551.12> 172 93<203 416> 202 63<470.192 550.499> 561 92<203 809.112>
LayerCount: 2
Fore
SplineSet
264 -9 m 1xfa
 214 -9 172 17 172 57 c 2
 172 416 l 1xfa
 154 416 l 2
 85 416 44 464 44 511 c 256
 44 559 86 607 154 607 c 256
 216 607 265 564 265 511 c 2xf6
 265 203 l 1
 369 487 l 2
 375 500 390 506 413 506 c 0
 435 506 450 500 457 487 c 1
 561 203 l 1
 561 784 l 2
 561 823 605 849 653 849 c 1
 653 57 l 2
 653 17 612 -9 562 -9 c 1
 413 395 l 1
 264 -9 l 1xfa
154 559 m 256
 125 559 106 539 106 511 c 256
 106 482 126 463 154 463 c 256
 183 463 202 483 202 511 c 256xf6
 202 540 182 559 154 559 c 256
EndSplineSet
Validated: 1
EndChar

StartChar: uni0E20
Encoding: 3616 3616 243
Width: 687
VWidth: 1507
Flags: W
HStem: -9 48<114.035 194.746> 136 46<113.047 171.656> 550 57<257.472 423.626>
VStem: 44 62<45.8841 129.026> 84 94<413 474.63> 172 92<181 288> 202 62<47.5008 128.762> 503 94<31.3366 474.6>
LayerCount: 2
Fore
SplineSet
44 87 m 256xf3
 44 142 92 182 154 182 c 0
 162 182 168 182 172 181 c 1
 172 288 l 1xf5
 86 396 l 2
 85 397 84 400 84 405 c 0
 84 517 201 607 341 607 c 0
 466 607 597 529 597 405 c 2
 597 57 l 2
 597 17 554 -9 503 -9 c 1
 503 405 l 2
 503 481 430 550 341 550 c 0
 248 550 180 480 178 413 c 1xe9
 253 317 l 2
 260 308 264 301 264 297 c 2
 264 87 l 2
 264 34 215 -9 154 -9 c 256
 90 -9 44 35 44 87 c 256xf3
154 136 m 256
 125 136 106 116 106 87 c 256
 106 58 126 39 154 39 c 256
 183 39 202 59 202 87 c 256xf3
 202 116 183 136 154 136 c 256
EndSplineSet
Validated: 1
EndChar

StartChar: uni0E21
Encoding: 3617 3617 244
Width: 709
VWidth: 1507
Flags: W
HStem: -9 48<114.964 197.829> 142 46<115.931 177.84> 416 47<119.192 177.501> 559 48<119.109 200.828>
VStem: 44 62<48.0785 132.738 474.06 547.024> 178 92<187 416> 208 62<470.192 550.499> 526 94<62 564.839>
LayerCount: 2
Fore
SplineSet
44 90 m 0xfb
 44 144 92 188 157 188 c 0
 166 188 173 188 178 187 c 1
 178 416 l 1xfd
 160 416 l 2
 91 416 50 464 50 511 c 256
 50 559 92 607 160 607 c 256
 222 607 270 564 270 511 c 2
 270 157 l 1
 526 62 l 1
 526 540 l 2
 526 578 569 606 620 606 c 1
 620 57 l 2
 620 18 584 -9 538 -9 c 1
 270 87 l 1
 267 34 222 -9 157 -9 c 256
 93 -9 44 33 44 90 c 0xfb
160 559 m 256
 131 559 112 539 112 511 c 256
 112 482 132 463 160 463 c 256
 189 463 208 483 208 511 c 256xfb
 208 540 188 559 160 559 c 256
157 142 m 256
 129 142 106 121 106 90 c 256
 106 60 130 39 157 39 c 256
 187 39 208 63 208 90 c 256
 208 121 185 142 157 142 c 256
EndSplineSet
Validated: 1
EndChar

StartChar: uni0E22
Encoding: 3618 3618 245
Width: 646
VWidth: 1507
Flags: W
HStem: -9 57<221.841 393.538> 292 64<202.509 336.097> 418 45<159.22 241.169> 559 48<158.911 241.375>
VStem: 60 92<113.558 246.853 422.377 533.929> 249 62<470.769 551.278> 463 93<113.871 565.251>
LayerCount: 2
Fore
SplineSet
307 -9 m 0
 172 -9 60 68 60 184 c 0
 60 221 70 275 142 318 c 1
 68 363 59 430 59 460 c 0
 59 521 115 607 200 607 c 0
 262 607 311 564 311 511 c 256
 311 457 261 418 200 418 c 0
 186 418 170 419 154 427 c 1
 165 380 195 356 246 356 c 2
 292 356 l 2
 330 356 339 337 339 324 c 0
 339 318 333 292 292 292 c 0
 239 292 152 270 152 184 c 0
 152 102 223 48 307 48 c 0
 396 48 463 103 463 184 c 2
 463 540 l 2
 463 579 506 606 556 606 c 1
 556 184 l 2
 556 68 442 -9 307 -9 c 0
200 559 m 256
 171 559 152 539 152 511 c 256
 152 482 172 463 200 463 c 256
 229 463 249 482 249 511 c 256
 249 540 229 559 200 559 c 256
EndSplineSet
Validated: 1
EndChar

StartChar: uni0E23
Encoding: 3619 3619 246
Width: 610
VWidth: 1507
Flags: W
HStem: -9 48<354.311 435.54> 136 46<353.908 412.656> 550 57<218.99 357.173>
VStem: 283 64<46.5379 129.026> 413 92<181 327.148> 443 62<47.5008 128.762>
LayerCount: 2
Fore
SplineSet
283 87 m 256xf4
 283 142 333 182 395 182 c 0
 403 182 409 182 413 181 c 1
 413 323 l 1xf8
 285 353 221 372 93 402 c 0
 77 405 59 416 59 432 c 0
 59 483 118 607 285 607 c 0
 387 607 446 551 455 543 c 1
 490 607 l 1
 525 591 547 568 547 541 c 0
 547 535 546 529 543 523 c 2
 505 449 l 2xf4
 495 429 482 419 466 419 c 0
 454 419 435 425 425 449 c 0
 404 500 350 550 285 550 c 0
 207 550 165 474 155 448 c 1
 446 377 l 2
 473 368 505 344 505 312 c 2xf8
 505 87 l 2
 505 34 455 -9 395 -9 c 0
 328 -9 283 38 283 87 c 256xf4
395 136 m 256
 366 136 347 116 347 87 c 256
 347 58 367 39 395 39 c 256
 424 39 443 59 443 87 c 256xf4
 443 116 424 136 395 136 c 256
EndSplineSet
Validated: 1
EndChar

StartChar: uni0E24
Encoding: 3620 3620 247
Width: 660
VWidth: 1507
Flags: W
HStem: -9 48<185.973 266.54> 136 46<208.321 266.746> 550 57<230.579 395.872>
VStem: 59 92<413 474.229> 115 93<181 291> 115 63<45.9439 128.762> 274 62<46.8464 128.808> 476 94<-200.663 473.772>
LayerCount: 2
Fore
SplineSet
476 405 m 2xf3
 476 485 398 550 314 550 c 0
 221 550 153 480 151 413 c 1xf3
 203 314 l 2
 206 309 208 303 208 298 c 2
 208 181 l 1xeb
 211 182 217 182 226 182 c 0
 287 182 336 141 336 87 c 256
 336 34 286 -9 226 -9 c 0
 162 -9 115 35 115 87 c 2xe7
 115 291 l 1xeb
 63 390 l 2
 60 396 59 401 59 405 c 0
 59 516 174 607 314 607 c 0
 427 607 570 540 570 405 c 2
 570 -175 l 2
 570 -215 526 -241 476 -241 c 1
 476 405 l 2xf3
226 136 m 256
 197 136 178 116 178 87 c 256xe7
 178 58 198 39 226 39 c 256
 255 39 274 59 274 87 c 256
 274 116 255 136 226 136 c 256
EndSplineSet
Validated: 1
EndChar

StartChar: uni0E25
Encoding: 3621 3621 248
Width: 657
VWidth: 1507
Flags: W
HStem: -9 48<155.311 236.891> 136 46<178.321 236.953> 335 57<238.867 395.962> 550 57<231.986 393.523>
VStem: 59 90<408.237 471.864> 84 94<181 268.819> 84 64<47.132 128.762> 244 62<46.88 129.026> 473 94<31.3366 261.553 344 474.144>
LayerCount: 2
Fore
SplineSet
312 392 m 0xf580
 375 392 433 371 473 344 c 1
 473 405 l 2
 473 481 400 550 312 550 c 256
 224 550 149 480 149 405 c 2
 149 389 l 2
 149 385 150 380 151 374 c 1
 108 374 59 394 59 429 c 0xf980
 59 503 160 607 312 607 c 0
 420 607 567 541 567 405 c 2
 567 57 l 2
 567 17 523 -9 473 -9 c 1
 473 191 l 2
 473 268 402 335 312 335 c 0
 232 335 182 277 178 191 c 2
 178 181 l 1xf580
 181 182 187 182 196 182 c 0
 258 182 306 142 306 87 c 256
 306 39 264 -9 196 -9 c 256
 129 -9 84 38 84 87 c 2xf380
 84 191 l 2
 84 312 188 392 312 392 c 0xf580
196 136 m 256
 167 136 148 116 148 87 c 256xf380
 148 58 168 39 196 39 c 256
 225 39 244 59 244 87 c 256
 244 116 225 136 196 136 c 256
EndSplineSet
Validated: 1
EndChar

StartChar: uni0E26
Encoding: 3622 3622 249
Width: 687
VWidth: 1507
Flags: W
HStem: -9 48<114.035 194.746> 136 46<113.047 171.656> 550 57<257.472 423.626>
VStem: 44 62<45.8841 129.026> 84 94<413 474.63> 172 92<181 288> 202 62<47.5008 128.762> 503 94<-200.663 474.6>
LayerCount: 2
Fore
SplineSet
44 87 m 256xf3
 44 142 92 182 154 182 c 0
 162 182 168 182 172 181 c 1
 172 288 l 1xf5
 86 396 l 2
 85 397 84 400 84 405 c 0
 84 517 201 607 341 607 c 0
 466 607 597 529 597 405 c 2
 597 -175 l 2
 597 -215 554 -241 503 -241 c 1
 503 405 l 2
 503 481 430 550 341 550 c 0
 248 550 180 480 178 413 c 1xe9
 253 317 l 2
 260 308 264 301 264 297 c 2
 264 87 l 2
 264 34 215 -9 154 -9 c 256
 90 -9 44 35 44 87 c 256xf3
154 136 m 256
 125 136 106 116 106 87 c 256
 106 58 126 39 154 39 c 256
 183 39 202 59 202 87 c 256xf3
 202 116 183 136 154 136 c 256
EndSplineSet
Validated: 1
EndChar

StartChar: uni0E27
Encoding: 3623 3623 250
Width: 575
VWidth: 1507
Flags: W
HStem: -9 48<334.102 415.851> 136 46<333.978 392.517> 550 57<187.769 328.857>
VStem: 35 89<408.237 483.013> 264 63<46.7223 128.808> 393 92<181 482.958> 424 61<47.5008 128.143>
LayerCount: 2
Fore
SplineSet
264 87 m 256xfa
 264 141 313 182 375 182 c 0
 383 182 389 182 393 181 c 1
 393 405 l 2
 393 481 339 550 258 550 c 0
 186 550 124 491 124 405 c 2
 124 388 l 2
 124 384 125 379 127 374 c 1
 84 374 35 394 35 429 c 0
 35 500 112 607 258 607 c 0
 387 607 485 526 485 405 c 2xfc
 485 87 l 2
 485 34 436 -9 375 -9 c 0
 313 -9 264 34 264 87 c 256xfa
375 136 m 256
 346 136 327 116 327 87 c 256
 327 58 347 39 375 39 c 256
 402 39 424 58 424 87 c 256xfa
 424 116 403 136 375 136 c 256
EndSplineSet
Validated: 1
EndChar

StartChar: uni0E28
Encoding: 3624 3624 251
Width: 690
VWidth: 1507
Flags: W
HStem: -9 21G<156 188.421 508 532.5> 261 46<304.736 385.175> 404 48<304.056 386.004> 550 57<264.537 427.054>
VStem: 90 92<216 471.864> 393 64<314.658 394.405> 508 93<31.3366 418.812> 538 89<547.237 590.984>
LayerCount: 2
Fore
SplineSet
345 404 m 256xfc
 316 404 297 384 297 356 c 256
 297 329 316 307 345 307 c 256
 374 307 393 329 393 356 c 256
 393 385 373 404 345 404 c 256xfc
90 405 m 2
 90 515 207 607 345 607 c 0
 400 607 472 591 528 546 c 1
 537 573 538 582 538 590 c 0
 538 604 538 604 534 626 c 1
 591 626 627 597 627 572 c 0xfd
 627 553 615 518 582 479 c 1
 591 460 601 432 601 405 c 2
 601 57 l 2
 601 17 557 -9 508 -9 c 1
 508 405 l 2xfe
 508 410 507 415 506 419 c 1
 487 409 468 400 448 392 c 1
 450 387 457 367 457 356 c 0
 457 303 404 261 345 261 c 0
 321 261 301 265 286 274 c 1
 181 -9 l 1
 131 -9 90 17 90 57 c 2
 90 405 l 2
345 550 m 0
 257 550 182 480 182 405 c 2
 182 216 l 1
 244 393 l 1
 258 427 295 452 345 452 c 256
 369 452 389 447 405 436 c 1
 422 442 449 454 482 484 c 1
 454 519 403 550 345 550 c 0
EndSplineSet
Validated: 1
EndChar

StartChar: uni0E29
Encoding: 3625 3625 252
Width: 731
VWidth: 1507
Flags: W
HStem: -9 57<330.192 478.563> 185 58<397.543 470.08> 369 46<319.197 394.292> 416 47<113.192 171.501> 559 48<113.109 194.898>
VStem: 44 62<470.051 551.12> 172 142<287.371 363.659> 172 93<113.851 276 365 416> 202 63<470.192 550.499> 401 59<288.038 362.851> 505 136<280.974 404.75> 547 94<117.514 238 405 569.379>
LayerCount: 2
Fore
SplineSet
357 415 m 0xfd40
 416 415 460 375 460 326 c 0
 460 280 424 259 396 250 c 1
 409 245 417 243 422 243 c 0
 472 243 505 298 505 365 c 0xfd60
 505 381 503 397 499 413 c 1
 516 413 532 410 547 405 c 1
 547 546 l 2
 547 586 594 606 641 606 c 1
 641 193 l 2
 641 78 540 -9 405 -9 c 0
 274 -9 172 79 172 193 c 2
 172 416 l 1xfd50
 154 416 l 2
 85 416 44 464 44 511 c 256
 44 559 86 607 154 607 c 256
 216 607 265 564 265 511 c 2xfcc0
 265 365 l 1
 280 392 313 415 357 415 c 0xfd40
265 193 m 2
 265 104 331 48 405 48 c 0
 481 48 546 106 547 193 c 2
 547 238 l 1xfd50
 520 208 477 185 422 185 c 0
 349 185 287 226 265 276 c 1
 265 193 l 2
154 559 m 256
 125 559 106 539 106 511 c 256
 106 482 126 463 154 463 c 256
 183 463 202 483 202 511 c 256xfcc0
 202 540 182 559 154 559 c 256
357 369 m 256
 331 369 314 349 314 326 c 256xfe40
 314 302 331 282 357 282 c 256
 381 282 401 299 401 326 c 256
 401 349 382 369 357 369 c 256
EndSplineSet
Validated: 1
EndChar

StartChar: uni0E2A
Encoding: 3626 3626 253
Width: 657
VWidth: 1507
Flags: W
HStem: -9 48<156.102 238.243> 136 46<179.321 238.429> 335 57<239.379 343.87> 550 57<231.912 395.477>
VStem: 60 91<408.237 473.193> 86 93<181 271.478> 86 63<47.5008 128.762> 246 61<46.7559 127.973> 475 93<31.3366 262.442 341 410.952> 505 89<546.436 592.513>
LayerCount: 2
Fore
SplineSet
197 136 m 256xf3
 168 136 149 116 149 87 c 256
 149 58 169 39 197 39 c 256
 226 39 246 58 246 87 c 256
 246 116 227 136 197 136 c 256xf3
197 -9 m 256
 135 -9 86 34 86 87 c 2xf3
 86 191 l 2xf5
 86 299 171 386 301 392 c 1
 333 406 398 439 451 484 c 1
 419 521 369 550 314 550 c 0
 227 550 151 483 151 405 c 2
 151 389 l 2
 151 385 151 380 152 374 c 1
 110 374 60 394 60 429 c 0
 60 500 159 607 314 607 c 0
 368 607 441 592 494 546 c 1
 501 560 505 576 505 594 c 0
 505 604 504 607 500 626 c 1
 559 626 594 596 594 572 c 0xf940
 594 553 583 519 549 481 c 1
 557 461 568 432 568 405 c 2
 568 57 l 2
 568 17 524 -9 475 -9 c 1
 475 191 l 2
 475 270 400 335 314 335 c 0
 233 335 183 277 179 191 c 2
 179 181 l 1xf580
 182 182 188 182 197 182 c 0
 259 182 307 142 307 87 c 256
 307 39 265 -9 197 -9 c 256
404 377 m 1
 429 369 453 357 475 341 c 1
 475 405 l 2xf180
 475 408 475 410 476 411 c 1
 476 411 475 414 473 418 c 1
 452 403 429 390 404 377 c 1
EndSplineSet
Validated: 1
EndChar

StartChar: uni0E2B
Encoding: 3627 3627 254
Width: 732
VWidth: 1507
Flags: W
HStem: -9 21G<237 272.227 549 573.5> 416 47<113.192 171.501 504.735 546.311> 559 48<113.109 194.898 505.005 586.828>
VStem: 44 62<470.051 551.12> 172 93<158 416> 202 63<470.192 550.499> 436 61<470.749 550.946> 549 93<31.3366 417.046> 594 62<470.328 551.278>
LayerCount: 2
Fore
SplineSet
261 -9 m 1xf3
 213 -9 172 17 172 57 c 2
 172 416 l 1xfb
 154 416 l 2
 85 416 44 464 44 511 c 256
 44 559 86 607 154 607 c 256
 216 607 265 564 265 511 c 2xf6
 265 158 l 1
 405 407 l 2
 417 430 432 445 455 460 c 1
 439 488 436 501 436 511 c 0
 436 559 478 607 546 607 c 256
 608 607 656 564 656 511 c 0xfa80
 656 479 634 450 612 436 c 1
 632 413 642 392 642 372 c 2
 642 57 l 2
 642 17 598 -9 549 -9 c 1
 549 372 l 2
 549 390 544 418 523 418 c 0
 509 418 493 403 476 374 c 2
 261 -9 l 1xf3
154 559 m 256
 125 559 106 539 106 511 c 256
 106 482 126 463 154 463 c 256
 183 463 202 483 202 511 c 256xf6
 202 540 182 559 154 559 c 256
546 559 m 256
 519 559 497 540 497 511 c 256
 497 482 519 463 546 463 c 256
 575 463 594 483 594 511 c 256xf280
 594 540 574 559 546 559 c 256
EndSplineSet
Validated: 1
EndChar

StartChar: uni0E2C
Encoding: 3628 3628 255
AltUni2: 00f71d.ffffffff.0
Width: 747
VWidth: 1507
Flags: W
HStem: -9 21G<239 273.46 555.349 590> 416 47<113.975 171.501 505.151 563.501> 559 48<113.46 194.898 505.149 586.287>
VStem: 44 62<470.809 551.154> 172 93<164 416> 202 63<470.192 550.499> 436 61<471.108 550.979> 564 93<161 416> 594 143<494.036 565.729> 649 88<542.688 574.488>
LayerCount: 2
Fore
SplineSet
154 607 m 0xfb
 216 607 265 564 265 511 c 2xf6
 265 164 l 1
 371 386 l 2
 374 392 388 404 413 404 c 256
 430 404 450 397 455 386 c 2
 564 161 l 1
 564 416 l 1xfb
 546 416 l 2
 484 416 436 458 436 511 c 256
 436 564 485 607 546 607 c 0
 594 607 632 584 647 552 c 1
 648 560 649 568 649 578 c 0xf240
 649 586 648 596 647 606 c 1
 693 606 737 580 737 551 c 0xf280
 737 533 716 472 657 437 c 1
 657 57 l 2
 657 17 615 -9 565 -9 c 1
 413 306 l 1
 264 -9 l 1
 214 -9 172 17 172 57 c 2
 172 416 l 1
 154 416 l 2
 94 416 44 458 44 511 c 256
 44 564 94 607 154 607 c 0xfb
154 559 m 256
 125 559 106 539 106 511 c 256
 106 482 126 463 154 463 c 256
 183 463 202 483 202 511 c 256
 202 540 182 559 154 559 c 256
546 559 m 256
 519 559 497 540 497 511 c 256
 497 482 519 463 546 463 c 256
 575 463 594 483 594 511 c 256xf280
 594 540 574 559 546 559 c 256
EndSplineSet
Validated: 513
Substitution2: "Single Substitution lookup 22 subtable" uni0E2C.alt1
Substitution2: "Single Substitution lookup 22 subtable" uni0E2C.alt1
EndChar

StartChar: uni0E2D
Encoding: 3629 3629 256
Width: 661
VWidth: 1507
Flags: W
HStem: -9 57<250.471 406.842> 211 44<210.45 292.54> 351 48<211.509 292.416> 550 57<234.192 396.452>
VStem: 62 90<408.237 471.864> 87 94<119.765 232.722> 300 62<262.176 343.278> 478 93<118.964 471.83>
LayerCount: 2
Fore
SplineSet
362 303 m 256xf7
 362 250 312 211 252 211 c 0
 223 211 199 219 181 234 c 1
 181 193 l 2xf7
 181 106 251 48 329 48 c 0
 400 48 478 101 478 193 c 2
 478 405 l 2
 478 480 403 550 315 550 c 256
 227 550 152 480 152 405 c 2
 152 389 l 2
 152 385 153 380 154 374 c 1
 111 374 62 394 62 429 c 0xfb
 62 476 141 607 315 607 c 0
 474 607 571 499 571 405 c 2
 571 193 l 2
 571 70 448 -9 329 -9 c 0
 206 -9 87 72 87 193 c 2
 87 222 l 2
 87 275 153 399 252 399 c 0
 312 399 362 356 362 303 c 256xf7
252 351 m 256
 225 351 203 332 203 303 c 256
 203 274 225 255 252 255 c 256
 281 255 300 275 300 303 c 256
 300 332 280 351 252 351 c 256
EndSplineSet
Validated: 1
EndChar

StartChar: uni0E2E
Encoding: 3630 3630 257
Width: 675
VWidth: 1507
Flags: W
HStem: -9 56<256.117 416.938> 166 45<210.45 292.54> 307 47<210.604 292.416> 383 54<171.927 365.117> 552 57<221.925 403.57>
VStem: 74 91<445.006 509.632> 87 94<118.204 188> 300 62<218.079 299.191> 491 94<118.339 441.345> 520 90<549.876 597.935>
LayerCount: 2
Fore
SplineSet
252 307 m 256xf9
 225 307 203 288 203 259 c 256
 203 230 225 211 252 211 c 256
 281 211 300 231 300 259 c 256
 300 288 280 307 252 307 c 256xf9
500 549 m 1
 510 564 520 584 520 608 c 0
 520 613 520 618 519 624 c 1
 591 624 610 583 610 568 c 0xfd40
 610 551 594 517 559 485 c 1
 576 462 585 436 585 405 c 2
 585 193 l 2
 585 80 473 -9 336 -9 c 0
 199 -9 87 79 87 191 c 0
 87 271 160 354 252 354 c 0
 312 354 362 312 362 259 c 256
 362 206 312 166 252 166 c 0
 223 166 199 173 181 188 c 1xfb80
 181 111 251 47 336 47 c 0
 433 47 491 121 491 193 c 2
 491 405 l 2
 491 416 490 428 485 442 c 1
 442 421 331 383 228 383 c 0
 96 383 74 437 74 472 c 0xfd80
 74 546 196 609 320 609 c 0
 392 609 458 582 500 549 c 1
165 477 m 0
 165 461 175 437 231 437 c 0
 275 437 377 450 451 496 c 1
 404 543 350 552 320 552 c 0
 245 552 165 513 165 477 c 0
EndSplineSet
Validated: 1
EndChar

StartChar: uni0E2F
Encoding: 3631 3631 258
Width: 604
VWidth: 1507
Flags: W
HStem: -9 21G<422 446.5> 360 58<204.406 344.626> 559 48<113.666 194.583>
VStem: 44 62<470.056 551.992> 202 59<470.159 552.055> 422 92<31.3366 404 498.456 564.812>
LayerCount: 2
Fore
SplineSet
422 607 m 1
 479 607 514 573 514 541 c 2
 514 57 l 2
 514 17 471 -9 422 -9 c 1
 422 404 l 1
 384 380 331 360 271 360 c 0
 198 360 44 406 44 511 c 0
 44 563 95 607 154 607 c 0
 222 607 261 558 261 511 c 0
 261 487 248 452 203 433 c 1
 226 423 249 418 271 418 c 0
 310 418 345 434 376 464 c 0
 407 496 422 543 422 607 c 1
154 559 m 256
 125 559 106 539 106 511 c 256
 106 482 126 463 154 463 c 256
 183 463 202 483 202 511 c 256
 202 540 182 559 154 559 c 256
EndSplineSet
Validated: 1
EndChar

StartChar: uni0E30
Encoding: 3632 3632 259
Width: 536
VWidth: 1507
Flags: W
HStem: 24 57<223.913 328.759> 213 48<128.486 209.239> 338 57<224.058 328.986> 526 48<128.988 209.414>
VStem: 57 64<123.362 204.663 437.195 518.154> 217 59<122.964 205.317 437.469 519.116> 385 91<140.461 225.244 456.118 539.616>
LayerCount: 2
Fore
SplineSet
169 574 m 0
 230 574 276 530 276 478 c 0
 276 446 254 415 222 399 c 1
 230 397 238 395 262 395 c 0
 330 395 385 448 385 545 c 0
 385 554 385 564 384 574 c 1
 431 574 476 544 476 512 c 0
 473 408 372 338 262 338 c 0
 181 338 57 384 57 478 c 0
 57 531 106 574 169 574 c 0
169 261 m 0
 230 261 276 216 276 164 c 0
 276 127 249 100 222 86 c 1
 237 81 258 81 262 81 c 0
 329 81 385 132 385 231 c 0
 385 241 385 251 384 261 c 1
 429 261 476 230 476 199 c 0
 473 86 360 24 262 24 c 0
 179 24 57 71 57 164 c 0
 57 213 102 261 169 261 c 0
169 526 m 256
 140 526 121 506 121 478 c 256
 121 449 141 430 169 430 c 256
 198 430 217 450 217 478 c 256
 217 507 197 526 169 526 c 256
169 213 m 256
 140 213 121 191 121 164 c 256
 121 135 141 116 169 116 c 256
 198 116 217 136 217 164 c 256
 217 191 198 213 169 213 c 256
EndSplineSet
Validated: 5
EndChar

StartChar: uni0E31
Encoding: 3633 3633 260
Width: 0
VWidth: 1507
Flags: W
HStem: 686 57<-231.499 -90.1719> 886 47<-323.439 -242.556>
VStem: -393 61<799.432 877.892> -235 60<797.152 879.169> -15 91<825.338 895.875>
LayerCount: 2
Fore
SplineSet
76 875 m 0
 76 797 -8 686 -166 686 c 0
 -246 686 -393 733 -393 838 c 0
 -393 891 -342 933 -283 933 c 0
 -216 933 -175 886 -175 838 c 0
 -175 813 -190 777 -234 758 c 1
 -201 747 -180 743 -166 743 c 0
 -107 743 -15 780 -15 933 c 1
 38 933 76 903 76 875 c 0
-283 886 m 256
 -310 886 -332 867 -332 838 c 256
 -332 809 -310 790 -283 790 c 256
 -254 790 -235 810 -235 838 c 256
 -235 867 -255 886 -283 886 c 256
EndSplineSet
Validated: 1
Substitution2: "Single Substitution lookup 22 subtable" uni0E31.alt1
Substitution2: "Single Substitution lookup 22 subtable" uni0E31.alt1
EndChar

StartChar: uni0E32
Encoding: 3634 3634 261
Width: 575
VWidth: 1507
Flags: W
HStem: -9 21G<393 417.5> 550 57<187.769 328.857>
VStem: 35 89<408.237 483.013> 393 92<31.3366 482.958>
LayerCount: 2
Fore
SplineSet
258 607 m 0
 387 607 485 526 485 405 c 2
 485 57 l 2
 485 17 442 -9 393 -9 c 1
 393 405 l 2
 393 481 339 550 258 550 c 0
 186 550 124 491 124 405 c 2
 124 388 l 2
 124 384 125 379 127 374 c 1
 84 374 35 394 35 429 c 0
 35 500 112 607 258 607 c 0
EndSplineSet
Validated: 1
EndChar

StartChar: uni0E34
Encoding: 3636 3636 263
Width: 0
VWidth: 1507
Flags: W
HStem: 701 48<-514.027 -208.211> 831 45<-413.127 -258.757>
LayerCount: 2
Fore
SplineSet
-542 694 m 0
 -563 694 -580 705 -580 720 c 0
 -580 800 -458 876 -332 876 c 256
 -197 876 -86 780 -86 692 c 0
 -86 678 -106 663 -127 663 c 0
 -148 663 -250 701 -422 701 c 0
 -494 701 -530 694 -542 694 c 0
-488 743 m 1
 -459 747 -421 749 -387 749 c 0
 -313 749 -243 739 -176 719 c 1
 -191 769 -261 831 -332 831 c 0
 -372 831 -457 805 -488 743 c 1
EndSplineSet
Validated: 1
Substitution2: "Single Substitution lookup 22 subtable" uni0E34.alt1
Substitution2: "Single Substitution lookup 22 subtable" uni0E34.alt1
EndChar

StartChar: uni0E35
Encoding: 3637 3637 264
Width: 0
VWidth: 1507
Flags: W
HStem: 701 48<-514.027 -208.211> 831 45<-413.127 -257.797>
VStem: -181 91<834 899.412>
LayerCount: 2
Fore
SplineSet
-542 694 m 0
 -563 694 -580 705 -580 720 c 0
 -580 800 -458 876 -332 876 c 0
 -273 876 -223 862 -181 834 c 1
 -181 876 l 2
 -181 899 -163 933 -90 933 c 1
 -90 725 l 1
 -87 713 -86 702 -86 692 c 0
 -86 678 -106 663 -127 663 c 0
 -148 663 -250 701 -422 701 c 0
 -494 701 -530 694 -542 694 c 0
-488 743 m 1
 -459 747 -421 749 -387 749 c 0
 -313 749 -243 739 -176 719 c 1
 -191 769 -261 831 -332 831 c 0
 -372 831 -457 805 -488 743 c 1
EndSplineSet
Validated: 1
Substitution2: "Single Substitution lookup 22 subtable" uni0E35.alt1
Substitution2: "Single Substitution lookup 22 subtable" uni0E35.alt1
EndChar

StartChar: uni0E36
Encoding: 3638 3638 265
Width: 0
VWidth: 1507
Flags: W
HStem: 663 151<-174.659 -121.08> 701 48<-513.982 -208.211> 831 45<-415.178 -257.699> 891 42<-189.329 -121.971>
VStem: -118 59<817.222 887.136>
LayerCount: 2
Fore
SplineSet
-542 694 m 0x78
 -563 694 -580 705 -580 720 c 0
 -580 800 -458 876 -332 876 c 0
 -305 876 -279 872 -252 864 c 1
 -242 900 -208 933 -155 933 c 0
 -102 933 -59 897 -59 850 c 0
 -59 811 -86 787 -116 775 c 1
 -96 749 -86 721 -86 692 c 0
 -86 678 -106 663 -127 663 c 0xb8
 -148 663 -250 701 -422 701 c 0
 -494 701 -530 694 -542 694 c 0x78
-488 743 m 1
 -457 747 -422 749 -387 749 c 0x78
 -313 749 -243 739 -176 719 c 1
 -191 769 -261 831 -332 831 c 0
 -389 831 -458 798 -488 743 c 1
-155 891 m 256
 -178 891 -194 873 -194 852 c 256
 -194 829 -178 814 -155 814 c 256xb8
 -133 814 -118 829 -118 852 c 256
 -118 875 -134 891 -155 891 c 256
EndSplineSet
Validated: 1
Substitution2: "Single Substitution lookup 22 subtable" uni0E36.alt1
Substitution2: "Single Substitution lookup 22 subtable" uni0E36.alt1
EndChar

StartChar: uni0E37
Encoding: 3639 3639 266
Width: 0
VWidth: 1507
Flags: W
HStem: 701 48<-514.027 -208.211> 831 45<-412.628 -306.339>
VStem: -307 81<873 902.706> -181 91<811 899.412>
LayerCount: 2
Fore
SplineSet
-542 694 m 0
 -563 694 -580 705 -580 720 c 0
 -580 802 -462 876 -338 876 c 0
 -326 876 -310 874 -307 873 c 1
 -307 880 l 2
 -307 901 -291 933 -226 933 c 1
 -226 844 l 1
 -210 836 -195 825 -181 811 c 1
 -181 876 l 2
 -181 899 -163 933 -90 933 c 1
 -90 725 l 1
 -87 713 -86 702 -86 692 c 0
 -86 678 -106 663 -127 663 c 0
 -148 663 -250 701 -422 701 c 0
 -494 701 -530 694 -542 694 c 0
-488 743 m 1
 -459 747 -421 749 -387 749 c 0
 -313 749 -243 739 -176 719 c 1
 -191 769 -261 831 -332 831 c 0
 -372 831 -457 805 -488 743 c 1
EndSplineSet
Validated: 1
Substitution2: "Single Substitution lookup 22 subtable" uni0E37.alt1
Substitution2: "Single Substitution lookup 22 subtable" uni0E37.alt1
EndChar

StartChar: uni0E38
Encoding: 3640 3640 267
Width: 0
VWidth: 1507
Flags: W
HStem: -231 46<-232.222 -176.251> -98 44<-232.061 -157.438>
VStem: -297 59<-178.93 -103.888> -181 91<-288.871 -232> -151 61<-179.659 -104.546>
LayerCount: 2
Fore
SplineSet
-194 -54 m 0xf0
 -136 -54 -90 -95 -90 -142 c 2xe8
 -90 -265 l 2
 -90 -302 -133 -327 -181 -327 c 1
 -181 -232 l 1
 -176 -229 l 1
 -180 -230 -186 -231 -194 -231 c 0
 -251 -231 -297 -191 -297 -142 c 0
 -297 -99 -257 -54 -194 -54 c 0xf0
-194 -98 m 256
 -221 -98 -238 -118 -238 -142 c 256
 -238 -168 -218 -185 -194 -185 c 256
 -168 -185 -151 -165 -151 -142 c 256
 -151 -117 -171 -98 -194 -98 c 256
EndSplineSet
Validated: 1
Substitution2: "Single Substitution lookup 21 subtable" a
Substitution2: "Single Substitution lookup 22 subtable" uni0E38.alt1
Substitution2: "Single Substitution lookup 21 subtable" a
Substitution2: "Single Substitution lookup 22 subtable" uni0E38.alt1
EndChar

StartChar: uni0E39
Encoding: 3641 3641 268
Width: 0
VWidth: 1507
Flags: W
HStem: -327 53<-217.725 -183.088> -231 46<-359.699 -304.145> -98 44<-359.44 -285.59>
VStem: -425 59<-179.176 -104.112> -309 89<-272.865 -232> -279 59<-179.299 -103.422> -181 91<-273.467 -94.1293>
LayerCount: 2
Fore
SplineSet
-323 -54 m 256xfa
 -257 -54 -220 -101 -220 -142 c 2xf6
 -220 -238 l 2
 -220 -252 -216 -274 -200 -274 c 256
 -186 -274 -181 -254 -181 -238 c 2
 -181 -118 l 2
 -181 -81 -138 -56 -90 -56 c 1
 -90 -238 l 2
 -90 -280 -128 -327 -200 -327 c 0
 -243 -327 -305 -304 -309 -246 c 2
 -309 -232 l 1
 -304 -229 l 1
 -309 -230 -315 -231 -323 -231 c 0
 -381 -231 -425 -191 -425 -142 c 0
 -425 -95 -381 -54 -323 -54 c 256xfa
-323 -98 m 256
 -346 -98 -366 -117 -366 -142 c 256
 -366 -168 -346 -185 -323 -185 c 256
 -299 -185 -279 -168 -279 -142 c 256
 -279 -118 -296 -98 -323 -98 c 256
EndSplineSet
Validated: 1
Substitution2: "Single Substitution lookup 21 subtable" b
Substitution2: "Single Substitution lookup 22 subtable" uni0E39.alt1
Substitution2: "Single Substitution lookup 21 subtable" b
Substitution2: "Single Substitution lookup 22 subtable" uni0E39.alt1
EndChar

StartChar: uni0E3A
Encoding: 3642 3642 269
Width: 0
VWidth: 1507
Flags: W
HStem: -157 107<-192.554 -82.3785>
VStem: -206 137<-142.765 -63.8939>
LayerCount: 2
Fore
SplineSet
-137 -157 m 256
 -176 -157 -206 -135 -206 -102 c 0
 -206 -71 -175 -50 -137 -50 c 256
 -99 -50 -69 -72 -69 -102 c 0
 -69 -135 -99 -157 -137 -157 c 256
EndSplineSet
Validated: 1
Substitution2: "Single Substitution lookup 21 subtable" c
Substitution2: "Single Substitution lookup 22 subtable" uni0E3A.alt1
Substitution2: "Single Substitution lookup 21 subtable" c
Substitution2: "Single Substitution lookup 22 subtable" uni0E3A.alt1
EndChar

StartChar: uni0E3F
Encoding: 3647 3647 270
Width: 731
VWidth: 1507
Flags: W
HStem: 0 60<184 294 380 542.77> 329 60<184 294 380 479.704> 657 59<184 294 380 477.699>
VStem: 89 95<60 329 389 657> 294 86<-56.1035 0 60 329 389 657 716 772.104> 529 97<447.195 599.065> 589 95<106.141 284.518>
LayerCount: 2
Fore
SplineSet
428 716 m 2xfa
 538 716 626 623 626 523 c 0xfc
 626 473 597 410 540 377 c 1
 649 345 684 264 684 196 c 0
 684 78 601 -0 487 0 c 2
 380 0 l 1
 380 -30 l 2
 380 -66 351 -84 294 -84 c 1
 294 0 l 1
 136 0 l 2
 111 0 89 13 89 33 c 2
 89 683 l 2
 89 703 108 716 136 716 c 2
 294 716 l 1
 294 746 l 2
 294 782 323 800 380 800 c 1
 380 716 l 1
 428 716 l 2xfa
589 196 m 0xfa
 589 285 543 329 487 329 c 2
 380 329 l 1
 380 60 l 1
 487 60 l 2
 528 60 589 88 589 196 c 0xfa
529 523 m 0xfc
 529 580 486 657 428 657 c 2
 380 657 l 1
 380 389 l 1
 428 389 l 2
 487 389 529 468 529 523 c 0xfc
184 60 m 1
 294 60 l 1
 294 329 l 1
 184 329 l 1
 184 60 l 1
184 389 m 1
 294 389 l 1
 294 657 l 1
 184 657 l 1
 184 389 l 1
EndSplineSet
Validated: 1
EndChar

StartChar: uni0E40
Encoding: 3648 3648 271
Width: 352
VWidth: 1507
Flags: W
HStem: -9 48<158.311 239.54> 136 46<181.321 239.746> 587 20G<156.5 181>
VStem: 87 94<181 566.251> 87 64<47.132 128.762> 247 62<46.8464 128.808>
LayerCount: 2
Fore
SplineSet
199 -9 m 0xf4
 132 -9 87 38 87 87 c 2xec
 87 541 l 2
 87 580 132 607 181 607 c 1
 181 181 l 1
 184 182 190 182 199 182 c 0
 260 182 309 141 309 87 c 256
 309 34 259 -9 199 -9 c 0xf4
199 136 m 256
 170 136 151 116 151 87 c 256
 151 58 171 39 199 39 c 256
 228 39 247 59 247 87 c 256
 247 116 228 136 199 136 c 256
EndSplineSet
Validated: 1
EndChar

StartChar: uni0E42
Encoding: 3650 3650 273
Width: 456
VWidth: 1507
Flags: W
HStem: -9 48<260.172 342.243> 136 46<283.321 342.429> 935 57<119.907 248.581>
VStem: 191 92<181 755> 191 62<47.5008 128.762> 350 61<46.7559 127.973>
LayerCount: 2
Fore
SplineSet
-15 826 m 0xf4
 -15 911 72 992 184 992 c 0
 243 992 292 973 326 942 c 1
 351 992 l 1
 385 975 406 952 406 925 c 0
 406 912 401 906 390 880 c 2
 378 853 l 2
 367 834 354 825 338 825 c 0
 330 825 307 829 295 853 c 0
 276 894 242 935 184 935 c 0
 119 935 87 886 78 840 c 1
 151 824 165 817 223 805 c 0
 247 800 283 778 283 737 c 2
 283 181 l 1xf4
 286 182 292 182 301 182 c 0
 363 182 411 142 411 87 c 256
 411 39 369 -9 301 -9 c 256
 239 -9 191 34 191 87 c 2xec
 191 755 l 1
 110 773 l 2
 22 795 -15 794 -15 826 c 0xf4
301 136 m 256
 272 136 253 116 253 87 c 256xec
 253 58 273 39 301 39 c 256
 330 39 350 58 350 87 c 256
 350 116 331 136 301 136 c 256
EndSplineSet
Validated: 1
EndChar

StartChar: uni0E43
Encoding: 3651 3651 274
Width: 456
VWidth: 1507
Flags: W
HStem: -9 48<260.172 342.243> 136 46<283.321 342.429> 693 49<115.975 198.159> 838 41<130.314 196.904> 935 57<161.265 270.227>
VStem: 32 77<749.597 830.372> 191 92<181 618.2> 191 62<47.5008 128.762> 205 62<749.13 830.659> 311 90<750.904 891.673> 350 61<46.7559 127.973>
LayerCount: 2
Fore
SplineSet
217 992 m 0xfcc0
 326 992 401 908 401 821 c 0
 401 719 283 689 283 509 c 2
 283 181 l 1xfe40
 286 182 292 182 301 182 c 0
 363 182 411 142 411 87 c 256
 411 39 369 -9 301 -9 c 256
 239 -9 191 34 191 87 c 2xfd20
 191 509 l 2xfe
 191 671 311 726 311 821 c 0
 311 879 271 935 217 935 c 0
 165 935 138 892 130 876 c 1
 143 878 146 879 157 879 c 0
 216 879 267 843 267 790 c 256
 267 739 220 693 157 693 c 0
 77 693 32 758 32 821 c 0
 32 917 117 992 217 992 c 0xfcc0
301 136 m 256
 272 136 253 116 253 87 c 256
 253 58 273 39 301 39 c 256
 330 39 350 58 350 87 c 256xfd20
 350 116 331 136 301 136 c 256
157 838 m 256
 128 838 109 818 109 790 c 256
 109 761 129 742 157 742 c 256
 186 742 205 762 205 790 c 256xfc80
 205 819 185 838 157 838 c 256
EndSplineSet
Validated: 1
EndChar

StartChar: uni0E44
Encoding: 3652 3652 275
Width: 455
VWidth: 1507
Flags: W
HStem: -9 48<260.172 342.243> 136 46<283.321 342.429>
VStem: 191 92<181 651.194> 191 62<47.5008 128.762> 288 81<780.933 895.417> 350 61<46.7559 127.973>
LayerCount: 2
Fore
SplineSet
191 509 m 2xe0
 191 701 288 770 288 858 c 1
 285 897 l 1
 200 760 l 2
 194 750 181 745 161 745 c 0
 142 745 129 750 122 760 c 2
 24 913 l 2
 21 919 20 925 20 933 c 0
 20 956 34 986 62 1004 c 1
 166 837 l 1
 254 974 256 993 291 993 c 0
 300 993 308 990 315 983 c 0
 369 929 369 877 369 858 c 0
 369 767 283 740 283 509 c 2
 283 181 l 1xe8
 286 182 292 182 301 182 c 0
 363 182 411 142 411 87 c 256
 411 39 369 -9 301 -9 c 256
 239 -9 191 34 191 87 c 2xd4
 191 509 l 2xe0
301 136 m 256
 272 136 253 116 253 87 c 256
 253 58 273 39 301 39 c 256
 330 39 350 58 350 87 c 256xd4
 350 116 331 136 301 136 c 256
EndSplineSet
Validated: 1
EndChar

StartChar: uni0E45
Encoding: 3653 3653 276
Width: 575
VWidth: 1507
Flags: W
HStem: 550 57<187.769 328.857>
VStem: 35 89<408.237 483.013> 393 92<-200.663 482.958>
LayerCount: 2
Fore
SplineSet
258 607 m 0
 387 607 485 526 485 405 c 2
 485 -175 l 2
 485 -215 442 -241 393 -241 c 1
 393 405 l 2
 393 481 339 550 258 550 c 0
 186 550 124 491 124 405 c 2
 124 388 l 2
 124 384 125 379 127 374 c 1
 84 374 35 394 35 429 c 0
 35 500 112 607 258 607 c 0
EndSplineSet
Validated: 1
EndChar

StartChar: uni0E46
Encoding: 3654 3654 277
Width: 593
VWidth: 1507
Flags: W
HStem: 276 47<128.79 210.159> 419 44<149.228 209.622> 587 20G<169.5 227 333 390>
VStem: 59 62<331.675 411.808> 217 62<330.934 412.166> 411 92<-200.251 519.25>
LayerCount: 2
Fore
SplineSet
210 607 m 0
 244 607 239 596 280 558 c 1
 312 579 313 607 353 607 c 0
 427 607 503 528 503 434 c 2
 503 -175 l 2
 503 -214 459 -241 411 -241 c 1
 411 434 l 2
 411 518 373 540 368 546 c 1
 307 485 301 481 280 481 c 0
 256 481 251 491 196 546 c 1
 182 537 160 506 149 461 c 1
 153 462 160 463 169 463 c 0
 230 463 279 425 279 371 c 256
 279 318 232 276 169 276 c 0
 110 276 59 318 59 371 c 2
 59 434 l 2
 59 530 129 607 210 607 c 0
169 419 m 256
 140 419 121 399 121 371 c 256
 121 342 141 323 169 323 c 256
 198 323 217 343 217 371 c 256
 217 400 197 419 169 419 c 256
EndSplineSet
Validated: 1
EndChar

StartChar: uni0E47
Encoding: 3655 3655 278
Width: 0
VWidth: 1507
Flags: W
HStem: 687 71<-258.99 -150> 687 43<-287.854 -228> 834 43<-218.221 -150.052> 916 49<-381.219 -155.688>
VStem: -494 78<755.447 883.213> -276 54<761.726 830.675> -146 56<762.456 829.987>
LayerCount: 2
Fore
SplineSet
-494 829 m 256x7e
 -494 915 -404 965 -317 965 c 2
 -214 965 l 2
 -171 965 -136 992 -109 1045 c 1
 -78 1022 -73 1000 -73 985 c 0
 -73 944 -128 916 -214 916 c 2
 -317 916 l 2
 -379 916 -416 870 -416 829 c 0
 -416 791 -411 770 -390 751 c 1
 -388 780 -361 812 -326 812 c 0
 -289 812 -316 775 -281 744 c 0
 -266 731 -246 730 -228 730 c 1x7e
 -267 746 -276 780 -276 797 c 0
 -276 843 -236 877 -184 877 c 256
 -134 877 -90 845 -90 796 c 0
 -90 728 -159 687 -214 687 c 0xbe
 -275 687 -319 710 -339 754 c 1
 -339 751 -340 748 -340 746 c 0
 -340 721 -325 713 -325 705 c 0
 -325 698 -333 687 -356 687 c 0
 -425 687 -494 744 -494 829 c 256x7e
-146 796 m 0
 -146 817 -161 834 -184 834 c 256
 -207 834 -222 817 -222 796 c 0
 -222 776 -206 758 -184 758 c 256xbe
 -161 758 -146 776 -146 796 c 0
EndSplineSet
Validated: 1
Substitution2: "Single Substitution lookup 22 subtable" uni0E47.alt1
Substitution2: "Single Substitution lookup 22 subtable" uni0E47.alt1
EndChar

StartChar: uni0E4D
Encoding: 3661 3661 284
Width: 0
VWidth: 1507
Flags: W
HStem: 686 38<-178.183 -95.8863> 841 38<-177.977 -95.8863>
VStem: -249 56<735.816 828.841> -81 55<735.816 828.841>
LayerCount: 2
Fore
SplineSet
-137 686 m 256
 -198 686 -249 728 -249 782 c 256
 -249 837 -197 879 -137 879 c 256
 -76 879 -26 837 -26 782 c 256
 -26 728 -76 686 -137 686 c 256
-137 841 m 256
 -171 841 -193 813 -193 782 c 256
 -193 751 -171 724 -137 724 c 256
 -103 724 -81 751 -81 782 c 256
 -81 813 -103 841 -137 841 c 256
EndSplineSet
Validated: 1
Substitution2: "Single Substitution lookup 22 subtable" uni0E4D.alt1
Substitution2: "Single Substitution lookup 22 subtable" uni0E4D.alt1
EndChar

StartChar: uni0E4E
Encoding: 3662 3662 285
Width: 0
VWidth: 1507
Flags: W
HStem: 677 42<-246.27 -154.995> 844 30<-185.827 -137.11> 965 42<-165.768 -89.6023>
VStem: -324 72<724.571 811.912> -262 73<874.313 942.88> -83 53<927.325 959.319>
LayerCount: 2
Fore
SplineSet
-244 862 m 1xf4
 -256 874 -262 891 -262 903 c 0
 -262 958 -194 1007 -122 1007 c 0
 -53 1007 -30 966 -30 952 c 0
 -30 935 -53 923 -73 923 c 0
 -77 923 -80 924 -83 924 c 1
 -83 949 -106 965 -122 965 c 0
 -164 965 -189 918 -189 902 c 0xec
 -189 893 -184 874 -164 874 c 0
 -154 874 -137 871 -137 860 c 0
 -137 854 -146 844 -163 844 c 0
 -176 843 -252 827 -252 758 c 0
 -252 735 -229 719 -213 719 c 0
 -170 719 -136 751 -118 776 c 1
 -94 762 -89 737 -89 733 c 0
 -89 722 -115 677 -213 677 c 0
 -261 677 -324 700 -324 758 c 0
 -324 813 -269 850 -240 862 c 1
 -244 862 l 1xf4
EndSplineSet
Validated: 1
Substitution2: "Single Substitution lookup 22 subtable" uni0E4E.alt1
Substitution2: "Single Substitution lookup 22 subtable" uni0E4E.alt1
EndChar

StartChar: uni0E4F
Encoding: 3663 3663 286
Width: 718
VWidth: 1507
Flags: W
HStem: -9 53<270.118 447.048> 93 58<296.525 420.027> 344 54<297.832 419.353> 449 53<267.626 447.742>
VStem: 89 68<157.56 336.297> 193 69<185.654 306.414> 455 70<185.706 307.043> 561 69<155.101 337.425>
LayerCount: 2
Fore
SplineSet
359 398 m 256
 449 398 525 332 525 247 c 256
 525 166 452 93 359 93 c 256
 265 93 193 166 193 247 c 256
 193 330 267 398 359 398 c 256
359 502 m 0
 525 502 630 367 630 247 c 0
 630 123 526 -9 359 -9 c 0
 192 -9 89 117 89 247 c 0
 89 375 195 502 359 502 c 0
359 44 m 0
 474 44 561 137 561 247 c 0
 561 365 468 449 359 449 c 0
 251 449 157 365 157 247 c 256
 157 131 250 44 359 44 c 0
359 151 m 256
 411 151 455 190 455 247 c 0
 455 298 415 344 359 344 c 256
 302 344 262 297 262 247 c 0
 262 194 302 151 359 151 c 256
EndSplineSet
Validated: 1
EndChar

StartChar: uni0E50
Encoding: 3664 3664 287
Width: 725
VWidth: 1507
Flags: W
HStem: -9 57<273.81 446.266> 402 58<278.545 442.188>
VStem: 89 92<140.281 306.57> 541 94<141.431 306.634>
LayerCount: 2
Fore
SplineSet
89 226 m 256
 89 356 213 460 360 460 c 0
 510 460 635 353 635 226 c 256
 635 98 510 -9 360 -9 c 0
 213 -9 89 95 89 226 c 256
360 402 m 0
 257 402 181 316 181 225 c 0
 181 120 267 48 360 48 c 0
 466 48 541 131 541 225 c 0
 541 319 462 402 360 402 c 0
EndSplineSet
Validated: 1
EndChar

StartChar: uni0E51
Encoding: 3665 3665 288
Width: 725
VWidth: 1507
Flags: W
HStem: -67 47<408.856 434.702> 41 65<216.5 353.845> 202 48<272.135 353.994> 402 58<277.728 439.748>
VStem: 89 92<133.793 305.71> 202 63<131.144 194.493> 362 65<113.426 194.244> 541 94<94.0497 289.123>
LayerCount: 2
Fore
SplineSet
635 182 m 0
 635 41 493 -67 439 -67 c 0
 409 -67 383 -48 375 -20 c 1
 507 9 541 125 541 182 c 0
 541 300 470 402 363 402 c 0
 271 402 181 332 181 214 c 0
 181 179 189 151 205 131 c 1
 203 136 202 144 202 154 c 0
 202 208 256 250 314 250 c 0
 384 250 427 202 427 154 c 0
 427 81 345 41 270 41 c 0
 163 41 89 115 89 214 c 256
 89 340 187 460 363 460 c 0
 519 460 635 331 635 182 c 0
314 202 m 256
 285 202 265 183 265 154 c 256
 265 125 285 106 314 106 c 256
 343 106 362 126 362 154 c 256
 362 183 342 202 314 202 c 256
EndSplineSet
Validated: 1
EndChar

StartChar: uni0E52
Encoding: 3666 3666 289
Width: 725
VWidth: 1507
Flags: W
HStem: -9 57<267.711 458.715> 130 49<280.802 361.273> 276 48<301.228 360.994>
VStem: 87 94<121.752 487.937> 210 91<323 379.493> 210 63<186.863 268.808> 369 65<186.766 268.244> 543 93<121.531 381.555>
LayerCount: 2
Fore
SplineSet
321 276 m 256xf7
 292 276 273 256 273 228 c 256
 273 199 292 179 321 179 c 256
 350 179 369 199 369 228 c 256
 369 257 349 276 321 276 c 256xf7
362 48 m 0
 436 48 543 91 543 187 c 2
 543 304 l 2
 543 339 530 393 497 407 c 1
 452 360 l 2
 445 352 436 348 423 348 c 0
 410 348 400 352 392 360 c 2
 342 410 l 1
 328 403 301 377 301 323 c 1xfb
 305 324 312 324 321 324 c 0
 391 324 434 276 434 228 c 0
 434 173 385 130 321 130 c 0
 263 130 210 172 210 228 c 2
 210 304 l 2
 210 378 274 460 359 460 c 0
 373 460 383 457 389 451 c 2
 422 418 l 1
 454 451 l 2
 460 457 470 460 485 460 c 256
 544 460 636 405 636 304 c 2
 636 187 l 2
 636 56 475 -9 362 -9 c 256
 241 -9 87 60 87 187 c 2
 87 383 l 2
 87 456 67 507 20 538 c 1
 35 556 56 566 79 566 c 0
 99 566 115 559 128 544 c 0
 163 501 181 447 181 383 c 2
 181 187 l 2
 181 87 294 48 362 48 c 0
EndSplineSet
Validated: 1
EndChar

StartChar: uni0E53
Encoding: 3667 3667 290
Width: 725
VWidth: 1507
Flags: W
HStem: -9 50<160.015 241.444> 137 48<158.917 241.444> 402 58<205.847 294.482 427.905 519.77>
VStem: 54 92<76.3186 317.049> 249 63<48.1184 129.278> 314 93<154.379 381.25> 541 94<31.3366 380.688>
LayerCount: 2
Fore
SplineSet
360 422 m 1
 386 443 428 460 473 460 c 0
 565 460 635 400 635 332 c 2
 635 57 l 2
 635 17 591 -9 541 -9 c 1
 541 332 l 2
 541 370 508 402 473 402 c 0
 440 402 407 369 407 332 c 2
 407 181 l 2
 407 163 386 149 360 149 c 0
 338 149 314 163 314 181 c 2
 314 332 l 2
 314 370 282 402 247 402 c 0
 197 402 146 304 146 208 c 0
 146 197 147 186 148 175 c 1
 163 182 180 185 200 185 c 0
 262 185 312 142 312 89 c 0
 312 34 262 -9 200 -9 c 0
 122 -9 91 45 70 107 c 0
 64 126 54 167 54 207 c 0
 54 330 114 460 247 460 c 0
 293 460 334 443 360 422 c 1
200 137 m 256
 171 137 152 117 152 89 c 256
 152 60 172 41 200 41 c 256
 229 41 249 60 249 89 c 256
 249 118 229 137 200 137 c 256
EndSplineSet
Validated: 1
EndChar

StartChar: uni0E54
Encoding: 3668 3668 291
Width: 725
VWidth: 1507
Flags: W
HStem: 0 57<261.796 386 471.04 590.206> 273 48<352.927 433.765> 393 58<262.655 544.925>
VStem: 89 92<141.42 309.229> 280 65<184.353 265.583> 442 63<183.738 265.493>
LayerCount: 2
Fore
SplineSet
482 451 m 2
 570 451 620 556 629 574 c 1
 665 561 681 534 681 508 c 0
 681 472 602 393 482 393 c 2
 335 393 l 2
 257 393 181 321 181 225 c 256
 181 128 256 57 335 57 c 2
 386 57 l 1
 348 76 280 124 280 225 c 0
 280 280 330 321 393 321 c 256
 458 321 505 279 505 225 c 0
 505 169 457 131 399 127 c 1
 441 81 503 63 558 63 c 0
 599 63 632 34 635 0 c 1
 335 0 l 2
 199 0 89 90 89 225 c 0
 89 339 185 451 335 451 c 2
 482 451 l 2
393 273 m 256
 364 273 345 253 345 225 c 256
 345 196 364 176 393 176 c 256
 422 176 442 195 442 225 c 256
 442 254 422 273 393 273 c 256
EndSplineSet
Validated: 1
EndChar

StartChar: uni0E55
Encoding: 3669 3669 292
Width: 725
VWidth: 1507
Flags: W
HStem: 0 57<261.796 386 471.04 590.206> 273 48<352.927 433.765> 393 49<352.192 434.762> 538 50<352.849 433.965>
VStem: 89 92<141.42 309.39> 280 65<184.353 265.583 448.878 530.972> 442 63<183.738 265.493 452.36 530.882>
LayerCount: 2
Fore
SplineSet
335 0 m 2
 199 0 89 90 89 225 c 0
 89 318 156 424 294 446 c 1
 286 461 282 476 282 490 c 0
 282 546 329 588 393 588 c 256
 459 588 505 545 505 490 c 0
 505 477 502 464 496 452 c 1
 556 465 606 523 632 576 c 1
 656 560 680 530 680 504 c 0
 680 473 603 393 482 393 c 2
 335 393 l 2
 257 393 181 321 181 225 c 256
 181 128 256 57 335 57 c 2
 386 57 l 1
 348 76 280 124 280 225 c 0
 280 280 330 321 393 321 c 256
 458 321 505 279 505 225 c 0
 505 169 457 131 399 127 c 1
 441 81 503 63 558 63 c 0
 599 63 632 34 635 0 c 1
 335 0 l 2
393 273 m 256
 364 273 345 253 345 225 c 256
 345 196 364 176 393 176 c 256
 422 176 442 195 442 225 c 256
 442 254 422 273 393 273 c 256
393 538 m 256
 364 538 345 518 345 490 c 256
 345 461 365 442 393 442 c 256
 422 442 442 461 442 490 c 256
 442 519 422 538 393 538 c 256
EndSplineSet
Validated: 1
EndChar

StartChar: uni0E56
Encoding: 3670 3670 293
Width: 725
VWidth: 1507
Flags: W
HStem: -9 57<299.392 460.463> 89 44<276 313.521> 229 50<232.498 313.149> 331 234<107 207> 402 58<284.406 441.962>
VStem: 158 67<141.113 221.839> 321 65<140.843 222.096> 541 94<132.675 305.816>
LayerCount: 2
Fore
SplineSet
273 229 m 256xe7
 244 229 225 209 225 181 c 256
 225 152 245 133 273 133 c 256
 302 133 321 153 321 181 c 256
 321 210 301 229 273 229 c 256xe7
47 532 m 1
 67 562 98 565 107 565 c 0xf7
 167 565 223 482 238 431 c 1
 269 446 316 460 360 460 c 0
 510 460 635 353 635 225 c 256
 635 104 540 -9 384 -9 c 0
 278 -9 158 59 158 161 c 0
 158 220 194 279 273 279 c 0
 337 279 386 237 386 181 c 0
 386 126 336 90 276 89 c 1
 301 62 337 48 384 48 c 0
 478 48 541 127 541 225 c 0
 541 308 470 402 360 402 c 0xef
 287 402 233 340 220 334 c 0
 216 332 212 331 207 331 c 0xf7
 192 331 166 336 164 351 c 0
 155 421 141 451 116 480 c 0
 96 503 73 521 47 532 c 1
EndSplineSet
Validated: 1
EndChar

StartChar: uni0E57
Encoding: 3671 3671 294
Width: 725
VWidth: 1507
Flags: W
HStem: -9 50<159.972 240.998> 137 48<159.037 241.166> 402 58<187.724 264.814 377.954 450.841>
VStem: 56 96<77.8706 349.61> 249 63<48.3451 129.898> 276 92<202.487 391.892> 463 92<92 391.656> 589 92<112.762 486.076>
LayerCount: 2
Fore
SplineSet
200 137 m 256xfb
 171 137 152 117 152 89 c 256
 152 60 172 41 200 41 c 256
 229 41 249 60 249 89 c 256
 249 118 229 137 200 137 c 256xfb
555 92 m 1
 571 113 589 147 589 182 c 2
 589 383 l 2
 589 447 607 501 642 544 c 0
 655 559 671 566 690 566 c 0
 699 566 726 565 751 538 c 1
 703 508 681 456 681 383 c 2
 681 182 l 2
 681 57 537 -13 503 -13 c 0
 493 -13 464 -7 463 23 c 2
 463 350 l 2
 463 371 444 402 415 402 c 256
 387 402 368 373 368 350 c 2
 368 229 l 2
 368 215 350 197 321 197 c 0
 296 197 276 209 276 229 c 2
 276 350 l 2xf7
 276 371 257 402 228 402 c 0
 153 402 148 255 148 211 c 2
 148 194 l 2
 148 187 148 181 149 176 c 1
 164 182 181 185 200 185 c 0
 267 185 312 140 312 89 c 0
 312 40 273 -9 200 -9 c 0
 122 -9 90 46 70 119 c 0
 61 153 56 189 56 226 c 0
 56 339 102 460 228 460 c 0
 265 460 298 449 321 433 c 1
 343 451 374 460 415 460 c 0
 491 460 555 408 555 350 c 2
 555 92 l 1
EndSplineSet
Validated: 1
EndChar

StartChar: uni0E58
Encoding: 3672 3672 295
Width: 725
VWidth: 1507
Flags: W
HStem: -9 57<419.64 519.521> 69 49<480.238 520> 214 50<480.625 561.801> 393 58<262.655 547.507>
VStem: 89 92<115.291 309.229> 411 62<125.85 206.667> 570 65<126.871 206.873>
LayerCount: 2
Fore
SplineSet
635 166 m 0
 635 76 576 -9 482 -9 c 0
 452 -9 365 -3 309 83 c 1
 305 72 303 62 303 52 c 0
 303 31 311 23 311 14 c 0
 311 5 305 -9 277 -9 c 0
 150 -9 89 120 89 225 c 0
 89 339 185 451 335 451 c 2
 482 451 l 2
 570 451 622 558 629 573 c 1
 665 562 680 534 680 508 c 0
 680 468 597 393 482 393 c 2
 335 393 l 2
 257 393 181 321 181 225 c 0
 181 186 188 124 223 81 c 1
 234 134 284 180 324 180 c 0
 369 180 341 136 405 80 c 0
 430 59 455 48 482 48 c 0
 497 48 510 55 520 69 c 1
 459 69 411 114 411 166 c 0
 411 220 460 264 522 264 c 0
 591 264 635 216 635 166 c 0
522 214 m 256
 493 214 473 195 473 166 c 256
 473 137 493 118 522 118 c 256
 551 118 570 138 570 166 c 256
 570 195 550 214 522 214 c 256
EndSplineSet
Validated: 1
EndChar

StartChar: uni0E59
Encoding: 3673 3673 296
Width: 725
VWidth: 1507
Flags: W
HStem: -9 78<232.243 381.475> 166 50<300.083 381.75> 402 58<243.93 343.903 468.898 537.337>
VStem: 89 92<121.183 321.936> 229 63<76.9182 157.509> 389 65<76.7801 158.873> 607 86<435.078 541.413>
LayerCount: 2
Fore
SplineSet
341 166 m 256
 314 166 292 147 292 118 c 256
 292 89 313 69 341 69 c 256
 370 69 389 89 389 118 c 256
 389 147 369 166 341 166 c 256
341 216 m 0
 408 216 454 168 454 118 c 0
 454 48 374 -9 301 -9 c 0
 165 -9 89 107 89 225 c 0
 89 344 179 460 291 460 c 0
 338 460 377 448 407 424 c 1
 428 442 461 460 497 460 c 0
 536 460 567 451 591 434 c 1
 604 457 607 480 607 500 c 0
 607 522 604 542 598 562 c 1
 651 562 693 538 693 503 c 0
 692 460 682 427 662 402 c 0
 629 360 601 349 586 349 c 0
 548 349 536 402 497 402 c 0
 482 402 464 379 461 362 c 1
 506 286 545 135 623 42 c 0
 627 37 629 30 629 23 c 0
 629 -6 602 -14 588 -14 c 0
 573 -14 561 -8 552 3 c 0
 422 161 419 329 336 388 c 0
 324 397 308 402 291 402 c 256
 223 402 181 293 181 225 c 0
 181 157 201 97 250 65 c 1
 236 82 229 99 229 118 c 0
 229 168 274 216 341 216 c 0
EndSplineSet
Validated: 1
EndChar

StartChar: uni0E5A
Encoding: 3674 3674 297
Width: 773
VWidth: 1507
Flags: W
HStem: -6 21G<424 447.5 591 616> 363 58<207.614 346.82> 562 48<114.066 194.866>
VStem: 45 62<473.367 554.368> 203 59<473.224 554.615> 424 91<34.3366 378.48 501.337 567.812> 591 92<31.3366 405 505.472 565.839>
LayerCount: 2
Fore
SplineSet
591 405 m 1
 563 388 539 378 515 372 c 1
 515 60 l 2
 515 20 471 -6 424 -6 c 1
 424 407 l 1
 372 375 318 363 273 363 c 0
 195 363 45 411 45 514 c 0
 45 568 99 610 155 610 c 0
 226 610 262 559 262 514 c 0
 262 483 241 452 205 436 c 1
 228 426 251 421 273 421 c 0
 312 421 347 436 378 468 c 0
 409 498 424 546 424 610 c 1
 479 610 515 576 515 544 c 2
 515 445 l 1
 547 465 591 512 591 607 c 1
 641 607 683 579 683 541 c 2
 683 57 l 2
 683 17 641 -9 591 -9 c 1
 591 405 l 1
155 562 m 256
 126 562 107 542 107 514 c 256
 107 485 127 466 155 466 c 256
 184 466 203 486 203 514 c 256
 203 543 183 562 155 562 c 256
EndSplineSet
Validated: 1
EndChar

StartChar: uni0E5B
Encoding: 3675 3675 298
Width: 1080
VWidth: 1507
Flags: W
HStem: 63 55<266.76 411.136> 220 44<301.963 372.634> 277 23<955.95 996> 345 45<302.291 373.281> 488 53<256.558 366.192>
VStem: 115 88<191.652 421.486> 238 59<269.304 339.674> 386 86<381 466.721>
LayerCount: 2
Fore
SplineSet
333 118 m 0
 454 118 497 229 497 362 c 0
 497 395 495 421 491 440 c 1
 554 428 596 397 618 347 c 1
 618 357 l 2
 618 374 614 399 603 440 c 1
 655 425 695 396 724 351 c 1
 724 354 l 2
 724 365 721 387 714 419 c 1
 765 404 803 376 826 335 c 1
 826 336 l 2
 826 346 825 360 820 384 c 1
 907 367 919 309 996 300 c 1
 1010 295 l 1
 1003 283 986 277 959 277 c 0
 930 277 904 283 883 295 c 1
 875 263 859 243 834 234 c 1
 791 234 779 288 779 288 c 1
 772 242 755 219 727 219 c 0
 693 219 680 283 680 283 c 1
 672 248 653 202 612 202 c 0
 595 202 581 222 571 262 c 1
 568 268 l 1
 547 131 469 63 333 63 c 0
 195 63 115 157 115 303 c 0
 115 447 176 541 309 541 c 0
 410 541 472 481 472 384 c 0
 472 345 462 309 443 276 c 1
 445 276 l 1
 426 239 390 220 338 220 c 0
 285 220 238 259 238 304 c 0
 238 355 281 390 338 390 c 0
 357 390 372 387 384 381 c 1
 384 390 386 388 386 396 c 0
 386 457 362 488 314 488 c 0
 230 488 203 392 203 295 c 0
 203 184 257 118 333 118 c 0
338 345 m 256
 314 345 297 326 297 304 c 256
 297 283 314 264 338 264 c 256
 361 264 378 283 378 304 c 256
 378 328 359 345 338 345 c 256
EndSplineSet
Validated: 1
EndChar

StartChar: zerowidthnonjoiner
Encoding: 8204 8204 299
Width: 0
VWidth: 1507
Flags: W
LayerCount: 2
Back
SplineSet
-29 311 m 2
 -29 347 0 365 59 365 c 1
 59 -407 l 2
 59 -443 30 -461 -29 -461 c 1
 -29 311 l 2
EndSplineSet
EndChar

StartChar: zerowidthjoiner
Encoding: 8205 8205 300
Width: 0
VWidth: 1507
Flags: W
LayerCount: 2
Back
SplineSet
59 196 m 1
 59 -407 l 2
 59 -443 30 -461 -29 -461 c 1
 -29 196 l 1
 -42 182 l 1
 -83 220 l 1
 -26 279 l 1
 -66 319 -72 324 -83 336 c 1
 -41 375 l 1
 15 318 l 1
 72 375 l 1
 113 336 l 1
 56 279 l 1
 113 220 l 1
 71 182 l 1
 59 196 l 1
EndSplineSet
EndChar

StartChar: lefttorightmark
Encoding: 8206 8206 301
Width: 0
VWidth: 1507
Flags: W
LayerCount: 2
Back
SplineSet
59 252 m 1
 59 -407 l 2
 59 -443 30 -461 -27 -461 c 1
 -27 311 l 1
 173 311 l 1
 164 320 154 332 152 335 c 1
 188 374 l 1
 282 282 l 1
 187 187 l 1
 152 229 l 1
 173 252 l 1
 59 252 l 1
EndSplineSet
EndChar

StartChar: righttoleftmark
Encoding: 8207 8207 302
Width: 0
VWidth: 1507
Flags: W
LayerCount: 2
Back
SplineSet
57 -407 m 2
 57 -443 28 -461 -29 -461 c 1
 -29 252 l 1
 -143 252 l 1
 -122 229 l 1
 -157 187 l 1
 -252 282 l 1
 -158 374 l 1
 -122 335 l 1
 -143 311 l 1
 57 311 l 1
 57 -407 l 2
EndSplineSet
EndChar

StartChar: endash
Encoding: 8211 8211 303
Width: 633
VWidth: 1507
Flags: W
HStem: 270 59<78.9959 553.64>
LayerCount: 2
Fore
SplineSet
588 329 m 1
 588 282 547 270 515 270 c 2
 44 270 l 1
 44 294 60 329 115 329 c 2
 588 329 l 1
EndSplineSet
Validated: 1
EndChar

StartChar: emdash
Encoding: 8212 8212 304
Width: 1138
VWidth: 1507
Flags: W
HStem: 271 56<73.7158 1060>
LayerCount: 2
Fore
SplineSet
44 271 m 1
 44 308 67 327 113 327 c 2
 1090 327 l 1
 1090 290 1067 271 1020 271 c 2
 44 271 l 1
EndSplineSet
Validated: 1
EndChar

StartChar: dagger
Encoding: 8224 8224 311
Width: 605
VWidth: 1507
Flags: W
HStem: 427 58<59 258 344 547>
VStem: 258 86<-130 433 482 743>
LayerCount: 2
Fore
SplineSet
461 485 m 2
 495 485 513 487 547 487 c 1
 547 427 l 1
 466 432 445 429 344 433 c 1
 344 39 348 -17 348 -130 c 1
 255 -130 l 1
 255 -63 258 71 258 205 c 2
 258 433 l 1
 238 433 138 433 59 427 c 1
 59 487 l 1
 93 487 109 485 143 485 c 0
 212 483 212 482 258 482 c 1
 258 544 l 2
 258 565 257 588 256 612 c 0
 256 678 255 691 255 743 c 1
 348 743 l 1
 348 682 l 2
 348 582 344 602 344 482 c 1
 364 482 384 482 402 483 c 2
 461 485 l 2
EndSplineSet
Validated: 1
EndChar

StartChar: daggerdbl
Encoding: 8225 8225 312
Width: 605
VWidth: 1507
Flags: W
HStem: 145 61<59 258 345 547> 427 60<59 258 344 547>
VStem: 258 86<-130 151 202 433 482 743>
LayerCount: 2
Fore
SplineSet
547 427 m 1
 482 431 412 433 344 433 c 1
 345 202 l 1
 385 202 424 202 461 205 c 0
 495 205 513 206 547 206 c 1
 547 145 l 1
 482 149 412 151 344 151 c 1
 345 10 347 -74 348 -130 c 1
 255 -130 l 1
 258 -18 258 95 258 151 c 1
 238 151 138 151 59 145 c 1
 59 206 l 1
 93 206 109 205 143 205 c 0
 189 202 212 202 258 202 c 1
 258 433 l 1
 238 433 138 433 59 427 c 1
 59 487 l 1
 93 487 109 485 143 485 c 0
 212 483 212 482 258 482 c 1
 258 544 l 2
 258 565 257 588 256 612 c 0
 256 678 255 691 255 743 c 1
 348 743 l 1
 348 682 l 2
 348 582 344 602 344 482 c 1
 364 482 384 482 402 483 c 2
 461 485 l 2
 495 485 513 487 547 487 c 1
 547 427 l 1
EndSplineSet
Validated: 1
EndChar

StartChar: bullet
Encoding: 8226 8226 313
Width: 569
VWidth: 1507
Flags: W
HStem: 163 273<202.041 364.677>
VStem: 133 301<229.466 367.242>
LayerCount: 2
Fore
SplineSet
283 163 m 256
 192 163 133 233 133 298 c 0
 133 368 193 436 283 436 c 256
 374 436 434 369 434 298 c 0
 434 233 375 163 283 163 c 256
EndSplineSet
Validated: 1
EndChar

StartChar: perthousand
Encoding: 8240 8240 315
Width: 1275
VWidth: 1507
Flags: W
HStem: -5 50<595.431 711.316 982.191 1096.98> 306 50<172.193 290.402> 360 50<594.352 711.216 980.502 1098.28> 671 49<171.465 291.005>
VStem: 63 86<377.758 648.803> 312 86<378.027 648.803> 485 86<68.8281 335.912> 734 84<67.7986 335.912> 873 86<66.1864 338.703> 1121 85<67.9844 335.912>
LayerCount: 2
Fore
SplineSet
1040 410 m 0
 1132 410 1206 362 1206 289 c 2
 1206 115 l 2
 1206 48 1128 -5 1040 -5 c 256
 950 -5 873 50 873 115 c 2
 873 289 l 2
 873 362 951 410 1040 410 c 0
1040 360 m 0
 994 360 959 331 959 289 c 2
 959 115 l 2
 959 75 994 45 1040 45 c 0
 1084 45 1121 76 1121 115 c 2
 1121 289 l 2
 1121 332 1083 360 1040 360 c 0
232 720 m 256
 329 720 398 664 398 601 c 2
 398 427 l 2
 398 349 308 306 232 306 c 256
 148 306 63 355 63 427 c 2
 63 601 l 2
 63 664 135 720 232 720 c 256
232 671 m 0
 186 671 149 643 149 601 c 2
 149 427 l 2
 149 384 186 356 232 356 c 0
 275 356 312 384 312 427 c 2
 312 601 l 2
 312 643 275 671 232 671 c 0
653 410 m 0
 745 410 818 362 818 289 c 2
 818 115 l 2
 818 40 730 -5 653 -5 c 256
 564 -5 485 50 485 115 c 2
 485 289 l 2
 485 362 562 410 653 410 c 0
653 360 m 256
 609 360 571 332 571 289 c 2
 571 115 l 2
 571 76 609 45 653 45 c 0
 697 45 734 76 734 115 c 2
 734 289 l 2
 734 332 696 360 653 360 c 256
577 724 m 2
 594 754 618 759 632 759 c 0
 646 759 663 754 681 745 c 1
 306 -2 l 2
 294 -26 277 -38 254 -38 c 0
 239 -38 222 -33 202 -23 c 1
 577 724 l 2
EndSplineSet
Validated: 1
EndChar

StartChar: minute
Encoding: 8242 8242 316
Width: 226
VWidth: 1507
Flags: W
HStem: 503 222<95.7665 113>
VStem: 48 137
LayerCount: 2
Fore
SplineSet
65 651 m 2
 69 707 130 725 185 725 c 1
 145 564 l 2
 141 548 113 503 48 503 c 1
 65 651 l 2
EndSplineSet
Validated: 1
EndChar

StartChar: second
Encoding: 8243 8243 317
Width: 357
VWidth: 1507
Flags: W
HStem: 503 222<96.5803 113 179 187 225.987 240>
VStem: 48 269
LayerCount: 2
Fore
SplineSet
65 651 m 2
 69 705 126 725 187 725 c 1
 145 564 l 2
 141 548 113 503 48 503 c 1
 65 651 l 2
194 651 m 2
 198 706 256 725 317 725 c 1
 274 564 l 2
 270 542 240 503 179 503 c 1
 194 651 l 2
EndSplineSet
Validated: 1
EndChar

StartChar: guilsinglleft
Encoding: 8249 8249 318
Width: 322
VWidth: 1507
Flags: W
VStem: 36 255
LayerCount: 2
Fore
SplineSet
36 298 m 0
 36 303 40 311 47 320 c 2
 193 485 l 2
 206 502 222 510 240 510 c 0
 260 510 277 500 291 484 c 1
 130 298 l 1
 291 113 l 1
 277 96 261 87 242 87 c 0
 223 87 207 95 193 112 c 2
 47 279 l 2
 40 286 36 292 36 298 c 0
EndSplineSet
Validated: 1
EndChar

StartChar: Euro
Encoding: 8364 8364 321
Width: 729
VWidth: 1507
Flags: W
HStem: -9 60<274.579 465.863> 262 59<29.5579 74 169 431.801> 396 61<29.5579 74 169 431.801> 665 60<275.112 469.946>
VStem: 74 95<148.105 262 321 396 457 563.674> 574 92<151.185 223.078 494.481 567.14>
LayerCount: 2
Fore
SplineSet
371 725 m 0
 563 725 666 596 666 520 c 0
 666 479 622 458 573 458 c 1
 574 463 574 469 574 474 c 2
 574 490 l 2
 574 583 489 665 371 665 c 256
 251 665 169 580 169 490 c 2
 169 457 l 1
 464 457 l 1
 464 416 440 396 393 396 c 2
 169 396 l 1
 169 321 l 1
 464 321 l 1
 464 282 440 262 393 262 c 2
 169 262 l 1
 169 228 l 2
 169 123 268 51 371 51 c 0
 471 51 574 121 574 228 c 2
 574 244 l 2
 574 250 574 256 573 261 c 1
 603 261 666 248 666 196 c 0
 666 119 551 -9 371 -9 c 0
 222 -9 74 86 74 228 c 2
 74 262 l 1
 -2 262 l 1
 -2 309 31 321 74 321 c 1
 74 396 l 1
 -2 396 l 1
 -2 445 31 457 74 457 c 1
 74 490 l 2
 74 630 222 725 371 725 c 0
EndSplineSet
Validated: 1
EndChar

StartChar: uni2113
Encoding: 8467 8467 322
Width: 351
VWidth: 1507
Flags: W
HStem: -5 64<160.5 255.31> 669 56<196.371 221.475>
VStem: 106 87<61.3948 317 467 667.87> 226 85<490.525 668.904>
LayerCount: 2
Fore
SplineSet
294 104 m 1
 304 94 316 78 316 61 c 0
 316 49 310 39 298 32 c 0
 257 7 221 -5 188 -5 c 0
 133 -5 106 31 106 104 c 2
 106 317 l 1
 96 311 85 308 75 308 c 0
 64 308 44 311 21 341 c 1
 113 404 l 1
 106 401 l 1
 106 592 l 2
 106 681 138 725 203 725 c 0
 272 725 308 689 311 616 c 0
 311 502 269 418 185 365 c 1
 193 368 l 1
 193 102 l 2
 193 73 197 59 206 59 c 0
 217 59 247 74 294 104 c 1
226 590 m 0
 226 632 222 669 206 669 c 0
 197 669 193 643 193 592 c 2
 193 467 l 1
 215 499 226 538 226 590 c 0
EndSplineSet
Validated: 1
EndChar

StartChar: trademark
Encoding: 8482 8482 323
Width: 916
VWidth: 1507
Flags: W
HStem: 668 48<68.8804 163 249 358.69>
VStem: 163 86<335.144 668> 405 86<335.144 512> 736 85<334.32 512>
LayerCount: 2
Fore
SplineSet
383 716 m 1
 383 697 372 668 327 668 c 2
 249 668 l 1
 249 359 l 2
 249 319 207 306 163 306 c 1
 163 668 l 1
 29 668 l 1
 29 700 47 716 83 716 c 2
 383 716 l 1
736 512 m 1
 656 327 l 2
 650 313 636 306 613 306 c 256
 591 306 577 313 571 327 c 2
 491 512 l 1
 491 359 l 2
 491 319 449 306 405 306 c 1
 405 680 l 2
 405 708 432 722 487 722 c 1
 613 427 l 1
 740 722 l 1
 794 722 821 708 821 680 c 2
 821 359 l 2
 821 317 775 306 736 306 c 1
 736 512 l 1
EndSplineSet
Validated: 1
EndChar

StartChar: Ohm
Encoding: 8486 8486 324
Width: 726
VWidth: 1507
Flags: W
HStem: 0 57<82.4332 228 497 642.284> 669 58<279.127 444.759>
VStem: 68 93<331.715 536.708> 228 93<57 180.225> 404 93<57 180.225> 564 92<331.715 540.264>
LayerCount: 2
Fore
SplineSet
656 433 m 0
 656 301 569 203 497 169 c 1
 497 57 l 1
 603 57 l 2
 649 57 672 38 672 0 c 1
 404 0 l 1
 404 205 l 1
 486 231 564 315 564 433 c 0
 564 563 475 669 362 669 c 0
 253 669 161 566 161 433 c 0
 161 315 239 231 321 205 c 1
 321 0 l 1
 53 0 l 1
 53 38 76 57 121 57 c 2
 228 57 l 1
 228 169 l 1
 155 203 68 301 68 433 c 0
 68 586 190 727 362 727 c 256
 528 727 656 594 656 433 c 0
EndSplineSet
Validated: 1
EndChar

StartChar: estimated
Encoding: 8494 8494 325
Width: 510
VWidth: 1507
Flags: W
HStem: -11 52<204.186 316.86> 295 52<143 375> 537 51<202.627 313.335>
VStem: 51 91<139.305 295 347 454.15> 371 72<105.72 139.321>
LayerCount: 2
Fore
SplineSet
375 347 m 1
 364 474 325 537 258 537 c 0
 191 537 153 474 143 347 c 1
 375 347 l 1
443 125 m 0
 443 124 416 -11 258 -11 c 0
 120 -11 51 95 51 307 c 0
 51 492 120 588 258 588 c 0
 395 588 464 490 464 295 c 1
 142 295 l 1
 146 126 185 41 258 41 c 0
 313 41 351 83 371 166 c 1
 419 156 443 142 443 125 c 0
EndSplineSet
Validated: 1
EndChar

StartChar: partialdiff
Encoding: 8706 8706 326
Width: 660
VWidth: 1507
Flags: W
HStem: -9 54<243.782 408.458> 469 53<246.067 410.07>
VStem: 59 89<146.972 355.705> 505 95<153.419 375.847>
LayerCount: 2
Fore
SplineSet
455 491 m 1
 435 520 356 634 154 716 c 1
 181 772 l 1
 339 706 600 571 600 270 c 0
 600 84 463 -9 324 -9 c 0
 173 -9 59 92 59 249 c 0
 59 415 192 522 329 522 c 0
 373 522 415 512 455 491 c 1
323 45 m 0
 432 45 505 128 505 262 c 256
 505 390 458 421 404 451 c 0
 382 463 357 469 329 469 c 0
 207 469 148 354 148 250 c 0
 148 101 253 45 323 45 c 0
EndSplineSet
Validated: 1
EndChar

StartChar: Delta
Encoding: 8710 8710 327
Width: 633
VWidth: 1507
Flags: W
HStem: 0 57<110 520>
LayerCount: 2
Fore
SplineSet
315 552 m 1
 110 57 l 1
 520 57 l 1
 315 552 l 1
633 0 m 1
 -2 0 l 1
 315 764 l 1
 633 0 l 1
EndSplineSet
Validated: 1
EndChar

StartChar: product
Encoding: 8719 8719 328
Width: 767
VWidth: 1507
Flags: W
HStem: 686 57<181 583>
VStem: 89 92<-105.038 686> 583 92<-105.038 686>
LayerCount: 2
Fore
SplineSet
181 -78 m 2
 181 -117 150 -137 89 -137 c 1
 89 743 l 1
 675 743 l 1
 675 -78 l 2
 675 -117 644 -137 583 -137 c 1
 583 686 l 1
 181 686 l 1
 181 -78 l 2
EndSplineSet
Validated: 1
EndChar

StartChar: summation
Encoding: 8721 8721 329
Width: 813
VWidth: 1507
Flags: W
HStem: -128 59<164 749.498> 683 60<164 749.498>
LayerCount: 2
Fore
SplineSet
36 703 m 0
 36 721 52 743 77 743 c 2
 782 743 l 1
 782 703 758 683 710 683 c 2
 164 683 l 1
 574 330 l 1
 573 330 l 1
 585 319 591 312 591 307 c 256
 591 303 585 296 574 285 c 2
 164 -69 l 1
 710 -69 l 2
 758 -69 782 -89 782 -128 c 1
 77 -128 l 2
 54 -128 36 -111 36 -93 c 0
 36 -87 38 -80 44 -75 c 2
 484 306 l 1
 44 687 l 2
 39 691 36 696 36 703 c 0
EndSplineSet
Validated: 1
EndChar

StartChar: minus
Encoding: 8722 8722 330
Width: 633
VWidth: 1507
Flags: W
HStem: 270 59<78.9959 553.64>
LayerCount: 2
Fore
SplineSet
588 329 m 1
 588 282 547 270 515 270 c 2
 44 270 l 1
 44 294 60 329 115 329 c 2
 588 329 l 1
EndSplineSet
Validated: 1
EndChar

StartChar: radical
Encoding: 8730 8730 331
Width: 560
VWidth: 1507
Flags: W
HStem: -9 21G<255 273.5> 329 55<61.4238 118> 700 20G<512.5 533.5>
LayerCount: 2
Fore
SplineSet
300 5 m 1
 295 -4 283 -9 264 -9 c 0
 246 -9 230 -5 226 5 c 2
 118 329 l 1
 99 329 l 2
 55 329 33 347 33 384 c 1
 154 384 l 2
 176 384 188 379 191 368 c 2
 264 136 l 1
 470 683 l 2
 479 708 498 720 527 720 c 0
 540 720 554 718 570 713 c 1
 300 5 l 1
EndSplineSet
Validated: 1
EndChar

StartChar: infinity
Encoding: 8734 8734 332
Width: 967
VWidth: 1507
Flags: W
HStem: 163 54<200.871 332.745 625.507 762.199> 452 50<205.212 330.871 633.703 757.018>
VStem: 74 89<258.022 407.068> 800 91<257.927 408.845>
LayerCount: 2
Fore
SplineSet
163 338 m 0
 163 283 184 217 268 217 c 0
 328 217 402 283 434 339 c 1
 353 432 300 452 267 452 c 0
 184 452 163 372 163 338 c 0
696 502 m 0
 807 502 891 439 891 326 c 0
 891 291 869 163 698 163 c 0
 580 163 534 236 501 262 c 0
 492 269 485 277 478 285 c 1
 419 204 348 163 267 163 c 0
 152 163 74 232 74 341 c 0
 74 366 90 502 265 502 c 0
 376 502 423 438 462 404 c 0
 470 396 478 388 485 380 c 1
 544 461 615 502 696 502 c 0
696 214 m 0
 773 214 800 284 800 329 c 0
 800 381 779 449 695 449 c 0
 641 449 564 395 529 326 c 1
 609 231 663 214 696 214 c 0
EndSplineSet
Validated: 1
EndChar

StartChar: integral
Encoding: 8747 8747 333
Width: 405
VWidth: 1507
Flags: W
HStem: -134 57<-44.5493 50.6731> 695 52<297.6 399.544>
LayerCount: 2
Fore
SplineSet
332 747 m 0
 374 747 403 740 403 709 c 0
 403 703 401 696 398 689 c 1
 353 695 l 2
 306 695 277 665 268 606 c 2
 176 9 l 2
 160 -87 109 -134 24 -134 c 0
 -40 -134 -50 -110 -50 -94 c 0
 -50 -87 -48 -81 -44 -74 c 1
 -33 -76 -23 -77 -13 -77 c 0
 47 -77 76 -36 87 11 c 2
 179 607 l 2
 193 701 244 747 332 747 c 0
EndSplineSet
Validated: 1
EndChar

StartChar: approxequal
Encoding: 8776 8776 334
Width: 633
VWidth: 1507
Flags: W
HStem: 122 57<349.071 490.086> 188 58<109.748 264.602> 301 58<348.199 490.432> 368 57<110.776 263.509>
LayerCount: 2
Fore
SplineSet
430 301 m 0
 325 301 254 368 179 368 c 0
 144 368 110 351 75 318 c 1
 59 339 51 356 51 368 c 0
 51 391 79 425 179 425 c 0
 290 425 357 359 430 359 c 0
 476 359 520 400 546 430 c 1
 572 407 576 386 576 375 c 0
 576 331 494 301 430 301 c 0
430 122 m 0
 326 122 256 188 179 188 c 0
 144 188 110 172 75 139 c 1
 59 159 51 176 51 189 c 0
 51 212 78 246 179 246 c 0
 292 246 358 179 430 179 c 0
 476 179 521 222 546 250 c 1
 573 228 576 206 576 195 c 0
 576 151 496 122 430 122 c 0
EndSplineSet
Validated: 1
EndChar

StartChar: notequal
Encoding: 8800 8800 335
Width: 633
VWidth: 1507
Flags: W
HStem: 184 57<74.4332 213 329 559.284> 363 58<74.4332 303 419 559.284>
LayerCount: 2
Fore
SplineSet
45 184 m 1
 45 222 68 241 113 241 c 2
 241 241 l 1
 303 363 l 1
 45 363 l 1
 45 402 68 421 113 421 c 2
 332 421 l 1
 386 528 l 2
 396 550 411 560 432 560 c 0
 446 560 463 556 482 546 c 1
 419 421 l 1
 589 421 l 1
 589 382 566 363 520 363 c 2
 390 363 l 1
 329 241 l 1
 589 241 l 1
 589 203 566 184 520 184 c 2
 300 184 l 1
 244 71 l 2
 233 49 217 39 196 39 c 0
 182 39 165 43 146 53 c 1
 213 184 l 1
 45 184 l 1
EndSplineSet
Validated: 1
EndChar

StartChar: lessequal
Encoding: 8804 8804 336
Width: 633
VWidth: 1507
Flags: W
HStem: 2 58<78.7728 553.832>
LayerCount: 2
Fore
SplineSet
47 298 m 0
 47 303 52 315 71 321 c 2
 579 520 l 1
 582 511 584 502 584 494 c 0
 584 477 578 457 550 445 c 2
 178 298 l 1
 550 154 l 2
 564 148 584 134 584 103 c 0
 584 95 582 87 579 78 c 1
 71 277 l 2
 55 282 47 289 47 298 c 0
589 60 m 1
 589 22 559 2 517 2 c 2
 45 2 l 1
 45 27 62 60 116 60 c 2
 589 60 l 1
EndSplineSet
Validated: 1
EndChar

StartChar: greaterequal
Encoding: 8805 8805 337
Width: 633
VWidth: 1507
Flags: W
HStem: 2 58<79.9959 553.388>
LayerCount: 2
Fore
SplineSet
594 298 m 0
 594 289 586 282 570 277 c 1
 62 78 l 1
 58 88 55 97 55 106 c 0
 55 121 61 143 87 154 c 2
 461 298 l 1
 87 445 l 2
 74 450 55 463 55 490 c 0
 55 500 58 509 62 520 c 1
 570 321 l 1
 589 315 594 303 594 298 c 0
116 60 m 2
 589 60 l 1
 589 22 558 2 517 2 c 2
 45 2 l 1
 45 25 61 60 116 60 c 2
EndSplineSet
Validated: 1
EndChar

StartChar: lozenge
Encoding: 9674 9674 338
Width: 622
VWidth: 1507
Flags: W
HStem: -12 21G<294 327> 707 20G<296 321>
LayerCount: 2
Fore
SplineSet
311 77 m 1
 479 357 l 1
 311 639 l 1
 142 357 l 1
 311 77 l 1
311 727 m 256
 331 727 348 722 357 710 c 2
 570 357 l 1
 357 5 l 2
 352 -2 343 -12 311 -12 c 256
 277 -12 269 -2 264 5 c 2
 53 357 l 1
 264 710 l 2
 269 717 281 727 311 727 c 256
EndSplineSet
Validated: 1
EndChar

StartChar: dottedcircle
Encoding: 9676 9676 339
Width: 654
VWidth: 1507
Flags: W
HStem: 17 63<282.184 369.247> 36 62<186.86 272.949 377.86 463.949> 90 62<103.452 191.247 459.753 547.634> 170 64<51.0505 136.875 513.86 600.827> 268 62<31.3599 118.05 533.36 621.548> 365 63<51.0403 136.816 513.86 601.247> 446 62<103.86 191.247 460.173 546.816> 499 63<186.86 272.949 377.86 463.949> 519 63<282.184 369.247>
VStem: 29 92<273.136 324.187> 48 92<175.643 228.28 370.474 422.28> 101 93<95.6793 146.526 451.136 502.187> 184 92<41.8126 92.8645 504.813 556.526> 279 93<22.4741 74.2801 524.474 576.28> 375 92<41.8126 92.8645 504.813 556.526> 457 93<95.4741 146.526 451.136 502.746> 511 93<175.813 228.187 370.679 422.187> 531 93<273.136 324.466>
LayerCount: 2
Fore
SplineSet
75 268 m 0x1c44
 53 268 29 280 29 298 c 256
 29 317 53 330 75 330 c 0
 96 330 121 316 121 298 c 256
 121 280 95 268 75 268 c 0x1c44
577 268 m 256
 555 268 531 280 531 298 c 256
 531 317 555 330 577 330 c 256
 599 330 624 317 624 298 c 256x1c0440
 624 280 599 268 577 268 c 256
279 550 m 256
 279 563 296 582 326 582 c 256
 348 582 372 568 372 550 c 256
 372 538 355 519 326 519 c 256x1c84
 303 519 279 532 279 550 c 256
184 531 m 256x1d0c
 184 549 208 562 231 562 c 256
 253 562 276 549 276 531 c 256
 276 518 260 499 231 499 c 256
 209 499 184 513 184 531 c 256x1d0c
375 531 m 256x1d06
 375 549 399 562 422 562 c 256
 444 562 467 549 467 531 c 256
 467 518 451 499 422 499 c 256
 400 499 375 513 375 531 c 256x1d06
101 476 m 256x1e14
 101 494 125 508 148 508 c 256
 170 508 194 494 194 476 c 256
 194 464 178 446 148 446 c 256
 126 446 101 458 101 476 c 256x1e14
457 476 m 256x1e05
 457 489 474 508 503 508 c 256
 533 508 550 489 550 476 c 256
 550 458 526 446 503 446 c 256
 481 446 457 458 457 476 c 256x1e05
48 396 m 256x1c24
 48 413 72 428 93 428 c 0
 123 428 140 409 140 396 c 256
 140 378 116 365 93 365 c 0
 75 365 48 377 48 396 c 256x1c24
511 396 m 256x1c0480
 511 414 535 428 558 428 c 256
 580 428 604 414 604 396 c 256
 604 384 587 365 558 365 c 256
 536 365 511 378 511 396 c 256x1c0480
372 48 m 256
 372 36 355 17 326 17 c 256
 303 17 279 30 279 48 c 256
 279 61 296 80 326 80 c 256x9c04
 348 80 372 66 372 48 c 256
467 68 m 256x5c06
 467 55 451 36 422 36 c 256
 400 36 375 50 375 68 c 256
 375 86 400 98 422 98 c 256
 444 98 467 86 467 68 c 256x5c06
276 68 m 256x5c0c
 276 55 260 36 231 36 c 256
 209 36 184 50 184 68 c 256
 184 86 209 98 231 98 c 256
 253 98 276 86 276 68 c 256x5c0c
550 121 m 256x3c05
 550 103 526 90 503 90 c 256
 481 90 457 103 457 121 c 256
 457 133 474 152 503 152 c 256
 526 152 550 139 550 121 c 256x3c05
194 121 m 256x3c14
 194 109 177 90 148 90 c 256
 126 90 101 103 101 121 c 256
 101 139 125 152 148 152 c 256
 170 152 194 139 194 121 c 256x3c14
604 202 m 256x1c0480
 604 189 587 170 558 170 c 256
 536 170 511 184 511 202 c 256
 511 220 535 234 558 234 c 256
 580 234 604 220 604 202 c 256x1c0480
140 202 m 256x1c24
 140 189 123 170 93 170 c 0
 71 170 48 185 48 202 c 256
 48 219 72 234 93 234 c 0
 123 234 140 215 140 202 c 256x1c24
EndSplineSet
Validated: 1
EndChar

StartChar: uni0E10.alt1
Encoding: 63232 63232 340
Width: 610
VWidth: 1507
Flags: W
HStem: -9 21G<403.82 439> 102 49<223.378 305.046> 247 47<223.46 304.687> 550 57<218.99 357.173>
VStem: 154 62<157.788 239.066> 413 92<146 327.148>
LayerCount: 2
Fore
SplineSet
59 432 m 0
 59 483 118 607 285 607 c 0
 387 607 446 551 455 543 c 1
 490 607 l 1
 525 591 547 568 547 541 c 0
 547 535 546 529 543 523 c 2
 505 449 l 2
 495 429 482 419 466 419 c 0
 454 419 435 425 425 449 c 0
 404 500 350 550 285 550 c 0
 207 550 165 474 155 448 c 1
 446 377 l 2
 473 368 505 344 505 312 c 2
 505 57 l 2
 505 17 462 -9 416 -9 c 1
 335 124 l 1
 314 109 291 102 264 102 c 0
 203 102 154 147 154 199 c 0
 154 252 204 294 264 294 c 0
 311 294 347 273 363 244 c 2
 413 146 l 1
 413 323 l 1
 285 353 221 372 93 402 c 0
 77 405 59 416 59 432 c 0
264 247 m 256
 235 247 216 227 216 199 c 256
 216 170 236 151 264 151 c 256
 293 151 312 171 312 199 c 256
 312 228 292 247 264 247 c 256
EndSplineSet
Validated: 1
EndChar

StartChar: uni0E48.alt2
Encoding: 63242 63242 350
Width: 0
VWidth: 1507
Flags: W
HStem: 686 258<-168.291 -102.709>
VStem: -181 91<715.123 914.481>
LayerCount: 2
Fore
SplineSet
-90 740 m 2
 -90 704 -120 686 -181 686 c 1
 -181 889 l 2
 -181 926 -151 944 -90 944 c 1
 -90 740 l 2
EndSplineSet
Validated: 1
Substitution2: "Single Substitution lookup 20 subtable" uni0E48.alt3
Substitution2: "Single Substitution lookup 21 subtable" uni0E48
Substitution2: "Single Substitution lookup 22 subtable" uni0E48.alt1
Substitution2: "Single Substitution lookup 20 subtable" uni0E48.alt3
Substitution2: "Single Substitution lookup 21 subtable" uni0E48
Substitution2: "Single Substitution lookup 22 subtable" uni0E48.alt1
EndChar

StartChar: uni0E49.alt2
Encoding: 63243 63243 351
Width: 0
VWidth: 1507
Flags: W
HStem: 781 42<-326.054 -291> 904 40<-325.926 -256.195>
VStem: -386 54<828.741 898.301> -250 54<827.985 899.448> -110 78<805.979 915.663>
LayerCount: 2
Fore
SplineSet
-357 708 m 0
 -357 732 -309 733 -291 781 c 1
 -344 781 -386 817 -386 864 c 256
 -386 910 -343 944 -291 944 c 0
 -240 944 -196 910 -196 864 c 0
 -196 827 -203 797 -217 775 c 0
 -231 753 -244 737 -255 728 c 1
 -204 739 -131 777 -116 841 c 0
 -112 858 -110 876 -110 895 c 0
 -110 910 -112 927 -115 944 c 1
 -90 944 -32 944 -32 888 c 0
 -32 793 -92 722 -187 700 c 1
 -225 690 -272 686 -327 686 c 0
 -346 686 -357 697 -357 708 c 0
-291 904 m 256
 -312 904 -332 887 -332 864 c 256
 -332 840 -312 823 -291 823 c 256
 -267 823 -250 842 -250 864 c 256
 -250 885 -267 904 -291 904 c 256
EndSplineSet
Validated: 1
Substitution2: "Single Substitution lookup 20 subtable" uni0E49.alt3
Substitution2: "Single Substitution lookup 21 subtable" uni0E49
Substitution2: "Single Substitution lookup 22 subtable" uni0E49.alt1
Substitution2: "Single Substitution lookup 20 subtable" uni0E49.alt3
Substitution2: "Single Substitution lookup 21 subtable" uni0E49
Substitution2: "Single Substitution lookup 22 subtable" uni0E49.alt1
EndChar

StartChar: uni0E4A.alt2
Encoding: 63244 63244 352
Width: 0
VWidth: 1507
Flags: W
HStem: 686 41<-446.449 -376.608> 808 36<-444.784 -378.644> 904 40<-431.512 -363.172 -298.514 -232.535>
VStem: -521 69<739.587 885.842> -371 53<731.455 803.047> -219 74<752.004 894.525> -102 78<807.493 911.861>
LayerCount: 2
Fore
SplineSet
-265 944 m 0
 -215 944 -145 921 -145 830 c 0
 -145 806 -146 775 -163 751 c 1
 -154 760 -146 769 -140 780 c 2
 -122 809 l 2
 -107 833 -102 861 -102 897 c 0
 -102 911 -104 927 -107 944 c 1
 -65 944 -24 927 -24 888 c 0
 -24 753 -148 686 -228 686 c 0
 -245 686 -257 696 -257 703 c 0
 -257 722 -219 713 -219 828 c 0
 -219 874 -237 904 -265 904 c 0
 -303 904 -303 855 -330 855 c 0
 -360 855 -359 904 -393 904 c 0
 -427 904 -445 872 -448 838 c 1
 -434 843 -422 844 -411 844 c 0
 -360 844 -318 815 -318 767 c 256
 -318 721 -359 686 -411 686 c 0
 -466 686 -521 741 -521 816 c 0
 -521 871 -484 944 -393 944 c 0
 -362 944 -345 939 -330 921 c 1
 -314 936 -292 944 -265 944 c 0
-411 808 m 256
 -435 808 -452 789 -452 767 c 256
 -452 746 -435 727 -411 727 c 256
 -388 727 -371 746 -371 767 c 256
 -371 791 -390 808 -411 808 c 256
EndSplineSet
Validated: 1
Substitution2: "Single Substitution lookup 20 subtable" uni0E4A.alt3
Substitution2: "Single Substitution lookup 21 subtable" uni0E4A
Substitution2: "Single Substitution lookup 22 subtable" uni0E4A.alt1
Substitution2: "Single Substitution lookup 20 subtable" uni0E4A.alt3
Substitution2: "Single Substitution lookup 21 subtable" uni0E4A
Substitution2: "Single Substitution lookup 22 subtable" uni0E4A.alt1
EndChar

StartChar: uni0E4B.alt2
Encoding: 63245 63245 353
Width: 0
VWidth: 1507
Flags: W
HStem: 784 57<-261.284 -179 -90 -11.4332>
VStem: -179 89<710.74 784 841 911.26>
LayerCount: 2
Fore
SplineSet
18 841 m 1
 18 803 -5 784 -50 784 c 2
 -90 784 l 1
 -90 737 l 2
 -90 699 -120 680 -179 680 c 1
 -179 784 l 1
 -291 784 l 1
 -291 822 -268 841 -222 841 c 2
 -179 841 l 1
 -179 885 l 2
 -179 923 -149 942 -90 942 c 1
 -90 841 l 1
 18 841 l 1
EndSplineSet
Validated: 1
Substitution2: "Single Substitution lookup 20 subtable" uni0E4B.alt3
Substitution2: "Single Substitution lookup 21 subtable" uni0E4B
Substitution2: "Single Substitution lookup 22 subtable" uni0E4B.alt1
Substitution2: "Single Substitution lookup 20 subtable" uni0E4B.alt3
Substitution2: "Single Substitution lookup 21 subtable" uni0E4B
Substitution2: "Single Substitution lookup 22 subtable" uni0E4B.alt1
EndChar

StartChar: uni0E4C.alt2
Encoding: 63246 63246 354
Width: 0
VWidth: 1507
Flags: W
HStem: 686 44<-222.159 -151.378> 811 41<-202.266 -152.905>
VStem: -296 68<735.301 805.102> -146 56<735.089 805.833>
LayerCount: 2
Fore
SplineSet
-86 1043 m 1
 -62 1030 -40 1005 -40 982 c 0
 -40 944 -103 910 -178 879 c 0
 -184 876 -198 865 -203 852 c 1
 -187 852 l 2
 -137 852 -90 819 -90 770 c 256
 -90 724 -135 686 -187 686 c 0
 -245 686 -296 730 -296 792 c 0
 -296 845 -266 894 -200 924 c 0
 -123 962 -102 1000 -86 1043 c 1
-187 811 m 256
 -208 811 -228 794 -228 770 c 256
 -228 747 -208 730 -187 730 c 256
 -163 730 -146 749 -146 770 c 256
 -146 794 -165 811 -187 811 c 256
EndSplineSet
Validated: 1
Substitution2: "Single Substitution lookup 20 subtable" uni0E4C.alt3
Substitution2: "Single Substitution lookup 21 subtable" uni0E4C
Substitution2: "Single Substitution lookup 22 subtable" uni0E4C.alt1
Substitution2: "Single Substitution lookup 20 subtable" uni0E4C.alt3
Substitution2: "Single Substitution lookup 21 subtable" uni0E4C
Substitution2: "Single Substitution lookup 22 subtable" uni0E4C.alt1
EndChar

StartChar: uni0E0D.alt1
Encoding: 63247 63247 355
Width: 908
VWidth: 1507
Flags: W
HStem: -9 63<570.519 694.644> -9 48<186.035 266.891> 136 46<208.321 266.953> 550 57<222.411 377.668>
VStem: 116 92<181 314> 116 62<45.9439 128.762> 274 62<46.88 129.026> 449 92<83.2478 478.235> 724 93<82.9756 565.251>
LayerCount: 2
Fore
SplineSet
449 405 m 2xbb80
 449 489 379 550 300 550 c 0
 237 550 161 509 151 413 c 1
 153 405 168 380 179 359 c 2
 203 314 l 1
 208 298 l 1
 208 181 l 1xbb80
 211 182 217 182 226 182 c 0
 288 182 336 142 336 87 c 256
 336 39 294 -9 226 -9 c 256
 162 -9 116 35 116 87 c 2x7780
 116 291 l 1
 115 293 112 299 106 310 c 2
 63 390 l 2
 60 396 59 401 59 405 c 0
 59 525 167 607 300 607 c 0
 431 607 541 526 541 405 c 2
 541 139 l 2
 541 88 582 54 633 54 c 256
 686 54 724 90 724 139 c 2
 724 540 l 2
 724 579 767 606 817 606 c 1
 817 139 l 2
 817 53 729 -9 633 -9 c 256
 536 -9 449 52 449 139 c 2
 449 405 l 2xbb80
226 136 m 256
 197 136 178 116 178 87 c 256
 178 58 198 39 226 39 c 256x7780
 255 39 274 59 274 87 c 256
 274 116 255 136 226 136 c 256
EndSplineSet
Validated: 1
EndChar

